<?xml version="1.0" encoding="UTF-8"?><svg id="Layer_2" xmlns="http://www.w3.org/2000/svg" viewBox="0 0 183.06 131.67"><defs><style>.cls-1{fill:#29369d;}.cls-2{fill:#e6f6fc;}</style></defs><g id="Layer_1-2"><g><path class="cls-1" d="M137.01,115.09c-3.57-.8-7.87-3.59-11.67-11.14-2.16-4.29-4.62-9.89-7.39-16.32,4.18-2.05,8.86-5.25,11.6-13.81,2.39-7.45,.25-13.31,.25-13.31,0,0-1.88,9.02-11.79,10-2.04,.2-4.5,.3-7.26,.37-4.01-9.23-8.49-19.18-13.44-29.02-2.48-4.93-5.24-8.29-8.14-10.46,2.89-2.89,5.39-6.96,6.88-13.01,2.52-10.23-1.61-18.4-1.61-18.4,0,0-1.51,12.42-16.49,13.45-11.76,.81-32.63-.57-54.52,.93S.54,38.75,0,48.52l2.8-3.55c6.53-6.76,21.66-7.22,36.94-6.59,4.28,22.06-3.51,64.01,.77,75.99,2.57,7.21,6.19,15.85,19.19,17.16,10.09,1.01,18.24-5.4,18.24-5.4,0,0-12.27,.59-13.07-16.8-.16-3.55-.17-7.86-.11-12.73l1.65-2.07c4.76-4.99,14.7-5.56,24.68-5.35,5.35,13.97,10.19,26.51,14.53,31.12,4.05,4.3,8.96,9.09,16.21,9.33,1.87-1.14,9.51-6.11,15.2-14.54Zm-54.88-43.05c-12.68,1.25-16.02,14.12-17.35,22.06,.2-13.54,.76-30.92-.05-48.63-.1-2.19-.36-4.16-.76-5.94,.38,0,.75,.01,1.12,.01,6.92,4.86,13.33,17.94,19.21,32.3-.72,.06-1.44,.12-2.16,.19Z"/><path class="cls-2" d="M147.59,89.39c-.88,26.02-21.98,40.27-21.98,40.27,0,0,17.55,4.64,32.91-.2,20.48-6.45,24.54-40.81,24.54-40.81,0,0-35.45,.36-35.47,.74Z"/></g></g></svg>