<?xml version="1.0" encoding="UTF-8"?>
<svg id="Layer_2" data-name="Layer 2" xmlns="http://www.w3.org/2000/svg" viewBox="0 0 500 500">
  <defs>
    <style>
      .cls-1 {
        fill: #2fa7e0;
      }

      .cls-2 {
        fill: #9decff;
      }

      .cls-3, .cls-4 {
        fill: #fff;
      }

      .cls-5 {
        fill: #aeb1b2;
      }

      .cls-6 {
        fill: #606365;
      }

      .cls-7 {
        fill: #ffbf9d;
      }

      .cls-8 {
        fill: #707274;
      }

      .cls-9 {
        fill: #ff9a6c;
      }

      .cls-10 {
        fill: #f4d862;
      }

      .cls-11 {
        fill: #cfd1d2;
      }

      .cls-12 {
        fill: #3e4042;
      }

      .cls-13 {
        fill: #e1e1e1;
      }

      .cls-14 {
        opacity: .3;
      }

      .cls-15 {
        opacity: .6;
      }

      .cls-16 {
        fill: none;
        stroke: #2fa7e0;
        stroke-miterlimit: 10;
      }

      .cls-17 {
        fill: #808285;
      }

      .cls-18 {
        fill: #375a64;
      }

      .cls-4 {
        isolation: isolate;
        opacity: .4;
      }

      .cls-19 {
        fill: #bec0c2;
      }

      .cls-20 {
        fill: #1a2e35;
      }
    </style>
  </defs>
  <g id="Layer_1-2" data-name="Layer 1">
    <g>
      <circle class="cls-2" cx="250" cy="250" r="250"/>
      <g id="Layer_2-2" data-name="Layer 2">
        <g id="Layer_1-2" data-name="Layer 1-2">
          <g>
            <g>
              <path class="cls-8" d="m148.61,111.17h262.22c2.82,0,5.12,2.31,5.12,5.12v160.83c0,2.82-2.31,5.12-5.12,5.12H148.61c-2.82,0-5.12-2.31-5.12-5.12V116.29c0-2.82,2.31-5.12,5.12-5.12Z"/>
              <path class="cls-12" d="m410.83,282.75H148.61c-3.11,0-5.67-2.52-5.67-5.67V116.29c0-3.11,2.52-5.67,5.67-5.67h262.22c3.11,0,5.67,2.52,5.67,5.67v160.83c0,3.11-2.52,5.67-5.67,5.67v-.04ZM148.61,111.72c-2.52,0-4.57,2.05-4.57,4.57v160.83c0,2.52,2.05,4.57,4.57,4.57h262.22c2.52,0,4.57-2.05,4.57-4.57V116.29c0-2.52-2.05-4.57-4.57-4.57,0,0-262.22,0-262.22,0Z"/>
            </g>
            <g>
              <path class="cls-5" d="m148.61,117.28h262.22c2.82,0,5.12,2.31,5.12,5.12v160.83c0,2.82-2.31,5.12-5.12,5.12H148.61c-2.82,0-5.12-2.31-5.12-5.12V122.4c0-2.82,2.31-5.12,5.12-5.12Z"/>
              <path class="cls-6" d="m410.83,288.9H148.61c-3.11,0-5.67-2.52-5.67-5.67V122.4c0-3.11,2.52-5.67,5.67-5.67h262.22c3.11,0,5.67,2.52,5.67,5.67v160.83c0,3.11-2.52,5.67-5.67,5.67ZM148.61,117.83c-2.52,0-4.57,2.05-4.57,4.57v160.83c0,2.52,2.05,4.57,4.57,4.57h262.22c2.52,0,4.57-2.05,4.57-4.57V122.4c0-2.52-2.05-4.57-4.57-4.57H148.61Z"/>
            </g>
            <path class="cls-11" d="m411.49,277.85c0,2.71-2.23,4.87-4.94,4.87h-253.62c-2.74,0-4.94-2.2-4.94-4.87V124.34c0-2.71,2.2-4.87,4.94-4.87h253.59c2.74,0,4.94,2.2,4.94,4.87v153.51h.04Z"/>
            <g>
              <path class="cls-3" d="m411.05,256.73V125.69c0-2.56-2.2-4.61-4.9-4.61h-252.27c-2.71,0-4.9,2.05-4.9,4.61v131.04h262.08Z"/>
              <path class="cls-19" d="m411.05,257.28H148.94c-.29,0-.55-.26-.55-.55V125.69c0-2.85,2.45-5.16,5.45-5.16h252.27c3,0,5.45,2.31,5.45,5.16v131.04c0,.29-.26.55-.55.55h.04Zm-261.57-1.1h261.02V125.69c0-2.23-1.98-4.06-4.39-4.06h-252.23c-2.42,0-4.39,1.83-4.39,4.06v130.53-.04Z"/>
            </g>
            <g>
              <path class="cls-3" d="m411.05,256.73V125.69c0-2.56-2.2-4.61-4.9-4.61h-252.27c-2.71,0-4.9,2.05-4.9,4.61v131.04h262.08Z"/>
              <path class="cls-19" d="m411.05,257.28H148.94c-.29,0-.55-.26-.55-.55V125.69c0-2.85,2.45-5.16,5.45-5.16h252.27c3,0,5.45,2.31,5.45,5.16v131.04c0,.29-.26.55-.55.55h.04Zm-261.57-1.1h261.02V125.69c0-2.23-1.98-4.06-4.39-4.06h-252.23c-2.42,0-4.39,1.83-4.39,4.06v130.53-.04Z"/>
            </g>
            <path class="cls-17" d="m411.05,134.95v-9.26c0-2.56-2.2-4.61-4.9-4.61h-252.27c-2.71,0-4.9,2.05-4.9,4.61v9.26s262.08,0,262.08,0Z"/>
            <g>
              <path d="m358.43,130.41c0-1.02.62-1.76,1.61-2.16h0c-.91-.48-1.28-1.17-1.28-1.87,0-1.28,1.1-2.16,2.49-2.16,1.57,0,2.34.99,2.34,1.98,0,.7-.33,1.43-1.32,1.9h0c1.02.44,1.65,1.13,1.65,2.12,0,1.39-1.21,2.34-2.74,2.34-1.68,0-2.71-1.02-2.71-2.2l-.04.04Zm4.35-.04c0-.99-.7-1.46-1.79-1.76-.95.26-1.46.88-1.46,1.68-.04.81.59,1.54,1.61,1.54s1.61-.62,1.61-1.43l.04-.04Zm-3-4.06c0,.81.62,1.24,1.54,1.5.7-.22,1.24-.73,1.24-1.46,0-.66-.4-1.32-1.35-1.32s-1.39.59-1.39,1.28h-.04Z"/>
              <path d="m364.98,127.45c0-.48.29-.77.73-.77s.73.33.73.77-.29.77-.73.77-.73-.33-.73-.77Zm0,4.39c0-.48.29-.77.73-.77s.73.33.73.77-.29.77-.73.77-.73-.33-.73-.77Z"/>
              <path d="m369.85,125.4h0l-1.39.77-.22-.84,1.76-.95h.95v8.09h-1.06v-7.06h-.04Z"/>
              <path d="m378.71,125.33h-3.07l-.33,2.09c.18,0,.37-.04.66-.04.62,0,1.24.15,1.76.44.62.37,1.17,1.06,1.17,2.09,0,1.57-1.24,2.78-3,2.78-.88,0-1.65-.26-2.01-.51l.29-.84c.33.18.99.44,1.72.44,1.02,0,1.9-.66,1.9-1.76s-.7-1.79-2.34-1.79c-.48,0-.81.04-1.13.07l.51-3.88h3.88s0,.91,0,.91Z"/>
            </g>
            <path class="cls-4" d="m152.71,175.06c12.62-9.77,25.32-19.43,38.2-28.8,16.36-11.93,33.08-23.42,50.06-34.47h-16.43c-14.27,9.26-28.32,18.96-42.19,28.8-12.44,8.82-24.77,17.75-37.14,26.64v13.69c2.52-1.98,5.01-3.92,7.54-5.85h-.04Z"/>
            <g>
              <g>
                <rect class="cls-1" x="197.94" y="161.45" width="48.78" height="17.49"/>
                <rect class="cls-1" x="257.62" y="161.45" width="48.78" height="17.49"/>
                <g>
                  <g>
                    <rect class="cls-1" x="329.31" y="175.42" width="19.28" height="1.54"/>
                    <polyline class="cls-1" points="332.82 171.95 338.71 162.62 345.11 172.13"/>
                    <rect class="cls-1" x="336.73" y="170.59" width="4.46" height="5.56"/>
                  </g>
                  <rect class="cls-16" x="317.34" y="160.53" width="43.25" height="19.32" rx="6.95" ry="6.95"/>
                </g>
              </g>
              <g>
                <rect class="cls-1" x="198.41" y="188.85" width="48.78" height="17.49"/>
                <rect class="cls-1" x="258.1" y="188.85" width="48.78" height="17.49"/>
                <g>
                  <g>
                    <rect class="cls-1" x="329.78" y="202.83" width="19.28" height="1.54"/>
                    <polyline class="cls-1" points="333.26 199.36 339.15 190.02 345.59 199.54"/>
                    <rect class="cls-1" x="337.17" y="198" width="4.46" height="5.56"/>
                  </g>
                  <rect class="cls-16" x="317.78" y="187.94" width="43.25" height="19.32" rx="6.95" ry="6.95"/>
                </g>
              </g>
              <g>
                <rect class="cls-1" x="198.85" y="216.26" width="48.78" height="17.49"/>
                <rect class="cls-1" x="258.57" y="216.26" width="48.78" height="17.49"/>
                <g>
                  <g>
                    <rect class="cls-1" x="330.26" y="230.24" width="19.28" height="1.54"/>
                    <polyline class="cls-1" points="333.73 226.76 339.62 217.43 346.03 226.95"/>
                    <rect class="cls-1" x="337.65" y="225.41" width="4.46" height="5.56"/>
                  </g>
                  <rect class="cls-16" x="318.25" y="215.35" width="43.25" height="19.32" rx="6.95" ry="6.95"/>
                </g>
              </g>
            </g>
            <path class="cls-4" d="m278.62,286.52c26.86-20.71,54.23-40.69,81.89-60.27,18.41-13.06,36.92-25.94,55.44-38.79v-29.49c-20.67,14.45-41.53,28.73-62.24,43.11-27.85,19.36-55.36,39.15-82.41,59.61-11.78,8.93-23.53,17.97-35.2,27.04h40.95c.55-.4,1.06-.84,1.61-1.24l-.04.04Z"/>
            <g>
              <g>
                <path class="cls-20" d="m137.52,149.19l-6.37-1.94c-7.68-2.71-14.05-.62-18.22,4.65-4.17,5.27-5.78,12.26-5.53,19.03.15,4.35.99,8.93-.73,12.92-.95,2.23-2.63,4.03-4.21,5.85s-3.18,3.73-3.88,6.04-.37,5.12,1.46,6.7c.77.66,1.76,1.1,2.38,1.9.84,1.13.77,2.67.84,4.1.37,6.66,5.67,12.66,12.15,13.83,6.48,1.13,13.47-2.71,16.03-8.82,1.87-4.43,1.5-9.4,1.32-14.2-.66-16.8.95-33.67,4.76-50.02v-.04Z"/>
                <g>
                  <g>
                    <path class="cls-20" d="m151.28,141.36c-5.49-1.65-10.69-.07-15.81,2.56s-9.26,7.03-11.93,12.19c-2.85,5.42-4.13,11.71-3.15,17.78.99,6.04,4.32,11.75,9.33,15.15,6.84,4.65,16.36,4.46,23.46.26,7.14-4.21,11.82-12.04,13.14-20.31.88-5.71.22-11.71-2.34-16.83-2.6-5.12-7.21-9.29-12.66-10.79"/>
                    <g>
                      <path class="cls-20" d="m133.06,158.77c1.06-2.09,1.06-4.54,1.65-6.81,1.32-5.01,5.82-8.56,10.72-9.99,4.57-1.32,9.81-.26,14.86,2.09,3.44,1.61,6.59,4.06,8.64,7.32,2.71,4.32,3.18,9.99,1.21,14.67l-25.18-6.92c-2.63,1.72-5.34,3.48-8.38,4.24-.88.22-1.83.37-2.71.11-.88-.26-1.68-.99-1.79-1.9-.11-1.02.59-1.9,1.02-2.82h-.04Z"/>
                      <path class="cls-7" d="m159.99,151.27l-22.94,2.09c-2.2-.11-4.1,1.46-4.39,3.66l-5.53,49.18c-.37,3.37.33,6.73,2.05,9.66l1.79,3.04c4.1,6.95,14.05,7.5,18.59.84.33-.48.55-.88.66-1.21.11-.44.29-.7.33-1.1l.99-4.72c.73-4.35,1.28-8.78,1.28-8.75,0,0,9.29-.07,13.06-11.75,1.87-5.82,3.11-15.63,3.88-23.71.7-7.28-2.63-16.83-9.81-17.24h.04Z"/>
                      <g>
                        <g>
                          <path class="cls-20" d="m165.44,178.24c-.11.81-.88,1.39-1.72,1.32-.84-.07-1.43-.81-1.35-1.65.11-.81.88-1.39,1.72-1.32.84.07,1.43.84,1.35,1.65Z"/>
                          <path class="cls-20" d="m166.91,173.26c-.22.18-1.24-.88-2.85-1.13-1.61-.29-2.96.37-3.11.15-.07-.11.18-.44.77-.73s1.5-.55,2.52-.37,1.79.7,2.23,1.17.55.88.44.95v-.04Z"/>
                        </g>
                        <g>
                          <path class="cls-20" d="m150.92,176.45c-.11.81-.88,1.39-1.72,1.32-.84-.07-1.43-.81-1.35-1.65.11-.81.88-1.39,1.72-1.32.84.07,1.43.84,1.35,1.65Z"/>
                          <path class="cls-20" d="m151.39,170.96c-.22.18-1.24-.88-2.85-1.13-1.61-.29-2.96.37-3.11.15-.07-.11.18-.44.77-.73s1.5-.55,2.52-.37c1.02.18,1.79.7,2.23,1.17s.55.88.44.95v-.04Z"/>
                        </g>
                        <path class="cls-20" d="m154.79,184.21s1.06-.11,2.71-.07c.44,0,.84,0,.95-.26.15-.29.04-.77-.07-1.28-.22-1.1-.48-2.23-.73-3.4-.99-4.87-1.65-8.82-1.43-8.86.18-.04,1.17,3.88,2.16,8.71.22,1.21.48,2.34.66,3.44.07.51.26,1.1-.04,1.68-.15.29-.51.48-.77.51-.29.04-.51,0-.73,0-1.68-.18-2.71-.33-2.67-.44l-.04-.04Z"/>
                        <path class="cls-9" d="m152.86,203.97s-8.01-.77-15.15-6.84c0,0,2.67,8.93,14.67,9.73,0,0,.48-2.89.48-2.89Z"/>
                        <path class="cls-9" d="m153.48,188.08c-.48-.88-1.43-1.46-2.45-1.54-.73-.04-1.5.18-2.01.7-.51.51-.73,1.32-.44,1.94.33.7,1.24.99,2.05.88s1.57-.51,2.27-.91c.18-.11.4-.22.55-.4.15-.18.22-.44.11-.62"/>
                        <path class="cls-20" d="m149.82,184.57c.26,0,0,1.83,1.32,3.33,1.32,1.54,3.22,1.61,3.22,1.87,0,.11-.48.29-1.28.18-.77-.11-1.9-.55-2.71-1.46s-1.02-2.05-.99-2.78c.04-.77.33-1.17.44-1.13Z"/>
                      </g>
                      <path class="cls-20" d="m152.71,165.1c-.22.44-1.83-.04-3.77-.15s-3.59.22-3.77-.26c-.07-.22.26-.59.95-.91s1.72-.59,2.89-.55c1.17.07,2.2.4,2.85.81.66.4.95.81.84,1.02v.04Z"/>
                      <path class="cls-20" d="m168.3,166.02c-.33.33-1.39-.26-2.74-.48-1.35-.29-2.52-.15-2.74-.59-.07-.22.15-.55.7-.84s1.43-.44,2.34-.26,1.68.66,2.09,1.1c.4.48.51.88.37,1.02v.04Z"/>
                      <path class="cls-20" d="m129.36,154.75c3.15-6.62,14.38-14.82,21.48-13.28l10.47,8.6c-1.24,3.84-4.72,6.88-8.67,7.5-2.12.33-4.57.15-6,1.76-1.46,1.61-1.13,4.35-2.52,6.04-1.94,2.34-6.26,1.61-7.83,4.24-.7,1.13-.62,2.63-1.32,3.77-.95,1.5-5.23,2.96-6.81,2.2-1.57-.77-1.21-3.62-1.54-5.23-.59-2.71,0-3.99.51-5.38,1.21-3.29.77-7.06,2.27-10.21h-.04Z"/>
                      <path class="cls-7" d="m132.84,177.66c.15-.88.33-2.16-.48-2.56-2.38-1.21-7.39-2.09-8.38,3.88-1.35,8.16,7.03,7.83,7.06,7.61.04-.18,1.32-5.82,1.79-8.93Z"/>
                      <path class="cls-9" d="m129.11,183.07s-.15.07-.4.15-.66.07-1.06-.15c-.81-.48-1.28-1.94-1.1-3.44.11-.73.37-1.43.73-1.98.33-.55.81-.91,1.24-.91s.7.29.77.51c.07.26,0,.4,0,.44,0,0,.18-.11.18-.44,0-.18-.07-.37-.22-.55-.18-.18-.44-.33-.73-.33-.62-.07-1.28.44-1.68,1.02-.44.59-.73,1.35-.84,2.2-.22,1.65.37,3.33,1.46,3.88.55.26,1.02.15,1.32,0s.37-.33.33-.37v-.04Z"/>
                    </g>
                    <path class="cls-20" d="m159.26,147.28c.37,3.44,4.87,8.34,6.73,11.2,3.62,5.49,4.24,7.21,2.89,18.33,2.42-3.59,4.39-7.17,4.76-11.53.37-4.35-.7-8.86-3.29-12.33s-6.81-5.78-11.09-5.67"/>
                  </g>
                  <path class="cls-20" d="m126.58,152.63c4.61-6.73,10.43-10.32,15.7-11.38"/>
                </g>
                <path class="cls-18" d="m124.79,184.28s-.15-.11-.33-.37c-.22-.26-.51-.66-.84-1.21-.7-1.06-1.54-2.74-2.12-4.98-.62-2.23-.95-4.94-.99-7.98-.18-3.04.48-6.4,1.72-9.7s2.85-6.22,4.68-8.64,3.77-4.35,5.56-5.75,3.44-2.27,4.61-2.78c.59-.26,1.02-.44,1.35-.55s.48-.15.48-.15c0,.04-.62.29-1.76.84-1.13.55-2.71,1.46-4.46,2.85-1.76,1.39-3.62,3.33-5.42,5.75-1.79,2.38-3.37,5.31-4.57,8.53s-1.87,6.51-1.72,9.51c.04,3,.33,5.71.88,7.9s1.32,3.88,1.94,4.98c.62,1.1,1.06,1.65,1.02,1.68l-.04.04Z"/>
              </g>
              <g>
                <path class="cls-20" d="m165.48,289.12s46.29-5.31,53.83-6.62c14.45-2.49,28.94-.11,35.09,12.51,2.78,5.75-.73,16.83-9.22,25.07-6.33,6.15-37.73,38.39-37.73,38.39l-26.93-22.8,33.34-26.27-64.59,9.22,16.25-29.42-.04-.07Z"/>
                <g>
                  <path class="cls-20" d="m213.49,342.69l-17.31,18.55s13.1,24.37,10.21,28.14l-37.29-33.34,25.8-30.04,18.59,16.72v-.04Z"/>
                  <path class="cls-13" d="m186.01,349.31c-.88-.44-2.09-.07-2.56.81-.48.88-.07,2.12.81,2.6s2.34.07,2.71-.84-.15-2.38-1.13-2.6"/>
                  <path class="cls-18" d="m169.1,356.01l2.6-3.04,34.98,33.3s.55,1.54-.29,3.07l-37.32-33.37.04.04Z"/>
                  <path class="cls-3" d="m196.91,361.57s-1.13-.55-2.56-.77c-1.39-.26-2.56.11-2.63-.11-.15-.18,1.06-1.02,2.78-.73,1.68.29,2.6,1.46,2.42,1.61Z"/>
                  <path class="cls-3" d="m199.44,366.69c-.11.22-1.17-.18-2.45,0s-2.16.88-2.34.7c-.18-.11.59-1.32,2.2-1.54,1.61-.26,2.74.62,2.6.81v.04Z"/>
                  <path class="cls-3" d="m197.61,373.35c-.18-.11.33-1.24,1.68-1.83,1.32-.59,2.52-.22,2.49,0,0,.26-1.06.29-2.12.77-1.1.48-1.83,1.17-2.01,1.02l-.04.04Z"/>
                  <path class="cls-3" d="m200.39,356.92c-.22.11-.84-.91-1.94-1.76-1.06-.88-2.16-1.24-2.12-1.5,0-.22,1.39-.18,2.63.81,1.28,1.02,1.65,2.34,1.43,2.42v.04Z"/>
                </g>
                <path class="cls-18" d="m225.97,339.43s-.11.15-.33.4c-.26.29-.62.66-1.02,1.1-.95.99-2.27,2.38-3.88,4.06-3.33,3.44-7.94,8.2-13.14,13.58l-.15.15-.18-.15c-1.06-.91-2.2-1.87-3.37-2.85-6.48-5.53-12.33-10.5-16.61-14.16-2.09-1.79-3.77-3.29-5.01-4.35-.55-.48-.99-.88-1.35-1.21-.29-.29-.48-.44-.44-.44s.18.11.51.37c.37.29.84.66,1.39,1.13,1.24,1.02,2.96,2.45,5.09,4.21,4.32,3.62,10.21,8.6,16.72,14.05,1.13.99,2.27,1.94,3.37,2.85h-.33c5.23-5.31,9.88-10.03,13.25-13.43,1.65-1.65,3-2.96,3.95-3.95.44-.44.81-.77,1.1-1.06.26-.22.4-.37.4-.33l.04.04Z"/>
              </g>
              <g>
                <path class="cls-20" d="m265.34,337.97l22.72,20.35,22.54,10.83c1.61.77,2.27,2.78,1.39,4.39h0c-.48.88-1.35,1.5-2.38,1.61-6.37.7-29.82,3.11-31.4,1.54-1.83-1.83-25.36-19.83-25.36-19.83l12.51-18.85-.04-.04Z"/>
                <path class="cls-18" d="m312,373.54l-35.35,1.79,1.57,1.35c.99.7,1.35.62,2.45.62,2.96,0,11.16-.26,28.91-2.09,1.02-.11,1.94-.73,2.42-1.68h0Z"/>
                <g class="cls-15">
                  <path class="cls-3" d="m276.65,366.51c.88-.26,1.94.33,2.2,1.21.29.88-.26,1.98-1.17,2.23-.88.26-2.16-.37-2.34-1.28s.55-2.16,1.46-2.2"/>
                </g>
                <path class="cls-3" d="m297.43,370.24s-.59-1.65-.07-3.59c.44-1.98,1.87-3,1.72-3.15-.04-.07-.48.07-.99.55-.55.48-1.13,1.35-1.39,2.42-.26,1.1-.15,2.12.11,2.78.26.7.55,1.02.62.95v.04Z"/>
                <path class="cls-3" d="m301.93,371.23c.18,0,.07-1.43.73-2.93.62-1.54,1.72-2.38,1.61-2.56-.07-.18-1.5.55-2.23,2.27s-.29,3.26-.11,3.22Z"/>
                <path class="cls-3" d="m290.85,369.95c.22,0,0-2.16.84-4.61.81-2.45,2.23-4.03,2.09-4.17-.11-.15-1.87,1.32-2.71,3.95-.88,2.63-.37,4.87-.18,4.83h-.04Z"/>
                <path class="cls-3" d="m283.45,364.35c.18.07.73-1.68,2.09-3.44,1.32-1.76,2.85-2.74,2.74-2.93-.07-.15-1.87.62-3.29,2.49-1.43,1.87-1.72,3.84-1.54,3.84v.04Z"/>
                <path class="cls-3" d="m278.37,360.77c.18.04.51-1.94,2.09-3.66,1.54-1.76,3.44-2.27,3.37-2.45,0-.07-.51-.07-1.28.22-.77.26-1.76.88-2.56,1.79-.84.95-1.32,1.98-1.5,2.78s-.15,1.32-.07,1.32h-.04Z"/>
              </g>
              <g>
                <path class="cls-20" d="m91.64,309.98c.48,1.17-1.57,38.93,33.7,39.15,31.69.22,74.32-29.27,79.15-27.37,3.18,1.24,57.89,49.47,57.89,49.47l19.72-23.53s-50.61-49.03-55.58-52.55c-10.65-7.57-18.15-7.5-35.68-4.28-15.7,2.89-54.12,15.84-54.12,15.84l-3.7-3.18-41.42,6.44h.04Z"/>
                <path class="cls-18" d="m179.49,294.68s.18-.11.59-.26.99-.4,1.76-.66c1.57-.59,3.88-1.39,6.92-2.23s6.81-1.79,11.27-2.42c2.23-.33,4.61-.55,7.17-.51,2.56.04,5.27.37,8.01,1.02,5.53,1.35,11.31,4.1,16.36,8.6,4.9,4.61,9.99,9.66,15.41,14.93,10.83,10.54,22.76,22.18,35.31,34.4l.18.15-.15.18c-.88,1.02-1.79,2.12-2.71,3.26-2.93,3.48-5.96,7.03-8.97,10.32-2.96,3.29-5.71,6.55-8.49,9.81l.07.18c-11.12-9.77-21.59-18.96-30.99-27.19-4.68-4.13-9.15-8.01-13.28-11.67-2.05-1.83-4.06-3.59-5.96-5.23-.95-.84-1.9-1.65-2.82-2.45-.48-.4-.91-.81-1.35-1.17-.48-.37-.99-.62-1.5-.84-2.09-.91-4.43-.81-6.26.11-1.87.91-3.59,1.79-5.23,2.6-3.26,1.61-6.04,3-8.34,4.13-2.27,1.13-4.03,1.98-5.23,2.6-.59.29-1.02.51-1.35.66-.29.15-.48.22-.48.22,0,0,.15-.07.44-.26.33-.15.77-.4,1.35-.7,1.21-.62,2.93-1.5,5.2-2.67s5.05-2.56,8.31-4.21c1.61-.81,3.37-1.68,5.23-2.63,1.9-.95,4.32-1.06,6.48-.15.55.26,1.06.51,1.54.88.48.37.91.77,1.39,1.17.91.81,1.87,1.61,2.82,2.45,1.9,1.68,3.92,3.4,6,5.23,4.13,3.62,8.6,7.5,13.32,11.64,9.4,8.23,19.87,17.38,31.03,27.15l.07.18c2.74-3.29,5.56-6.66,8.31-10.17,2.67-3.51,5.42-6.84,8.34-10.28.91-1.1,1.83-2.2,2.67-3.18v.33c-12.51-12.22-24.44-23.86-35.28-34.43-5.42-5.27-10.5-10.32-15.37-14.93-4.98-4.43-10.72-7.21-16.17-8.56-2.74-.66-5.42-.99-7.94-1.06s-4.9.18-7.14.48c-4.43.59-8.2,1.5-11.23,2.31-3.04.84-5.38,1.61-6.92,2.16-.77.26-1.35.48-1.79.62-.4.15-.62.18-.62.18l.04-.07Z"/>
              </g>
              <g>
                <path class="cls-10" d="m160.14,210.92s11.71,4.72,13.1,14.75c1.17,8.38-1.43,30.66-1.39,32.2.04,1.79.62,2.93,1.24,3.62,1.43,1.57,2.23,3.62,2.2,5.75,0,1.61-.18,3.26-.73,4.17-1.35,2.31-14.31,17.53-14.31,17.53l-11.53-24.3s7.54-22.76,7.61-23.35,3.73-30.34,3.73-30.34l.07-.04Z"/>
                <path class="cls-7" d="m173.38,270.38c.51.07,17.38,12.26,17.38,12.26,0,0,4.13-8.09,5.96-8.31,1.83-.26,7.54,1.98,8.05,2.6s1.61.7,2.74.81c1.1.11,3.11,2.93,3.11,2.93l3.81,2.85s-1.21,2.23-1.5,2.63c-.33.4-2.89-.7-2.85-1.1s.33,2.52-1.65,2.63c-1.98.07-4.5-1.28-4.5-1.28l-.66-3.4-4.9-3.22-.59,3.26s4.94,1.02,4.79,2.67-1.61,2.12-1.61,2.12l-4.1-.11-9,2.2s-23.64-5.31-24.52-8.01c-.88-2.71,3.15-12.48,10.06-11.53h-.04Z"/>
                <path class="cls-10" d="m173.57,264.71s2.71,1.98,4.68,6.59c1.06,2.42,12.33,10.79,12.33,10.79l-9.15,7.5s-19.06.81-19.98-2.09,2.09-15.7,2.09-15.7l10.03-7.1Z"/>
              </g>
              <g>
                <path class="cls-13" d="m161.67,297.35h0c.22.84,1.06,1.35,1.9,1.17l33.15-7.36,28.51-5.27.26-2.56-27.23,3.95-35.39,8.01c-.91.22-1.46,1.13-1.21,2.05Z"/>
                <path class="cls-13" d="m213.49,247.73l-15.33,39.85c-.62,1.57.7,3.26,2.38,2.96l33.85-6.33c.77-.11,1.39-.66,1.65-1.39l15.37-39.52c.29-.81-.33-1.65-1.17-1.61l-34.91,4.65c-.84.07-1.54.59-1.83,1.39Z"/>
                <path class="cls-20" d="m216.93,246.34s-3.55,9.95-8.2,22.14c-4.65,12.19-8.53,22.03-8.67,21.96s3.55-9.95,8.2-22.14c4.65-12.19,8.53-22.03,8.67-21.96Z"/>
                <path class="cls-3" d="m225.42,265.19c-.95,1.9-.88,3.92.15,4.43s2.63-.59,3.59-2.52c.95-1.9.88-3.92-.15-4.43s-2.63.59-3.59,2.52Z"/>
              </g>
              <g>
                <path class="cls-10" d="m162.22,291.17s-2.74-11.82-2.2-13.98c1.57-6.22,9.81-21.96,9.11-31.36-.7-9.4-9-34.95-9-34.95l-7.94-2.78c-3.22,7.1-15.63,5.49-25.8-2.82l-12.73,2.6-19.91,62.94-3.33,22.91c-8.09,10.69,1.24,16.32,1.24,16.32,0,0,15.33,4.9,27.48,2.71,9.08-1.65,22.32-8.12,25.29-10.5,7.1-5.64,18.37-5.27,18.37-5.27l-.55-5.85-.04.04Z"/>
                <path class="cls-7" d="m139.97,291.75l8.31,3.44s4.61-2.78,5.31-3.04c.7-.26,9.84-1.54,11.67-1.46,1.83.07,3.84-.26,3.84-.26l-10.98,6.84-6.95,9.4s-2.85,1.02-5.93,1.06c-3.04,0-10.25-1.76-10.25-1.76l4.98-14.2v-.04Z"/>
                <g>
                  <path class="cls-10" d="m115.27,207.74s-14.56.88-19.69,12.7c-3.4,7.87-10.47,42.56-11.53,48.89s0,14.05,5.01,18.08c4.98,3.99,46.51,21.96,46.51,21.96l8.64-16.91-35.02-22.07h-1.13l4.21-25.47"/>
                  <path class="cls-20" d="m112.27,244.84s0,.15-.04.44c-.04.29-.11.73-.18,1.28-.18,1.17-.44,2.82-.77,5.01-.7,4.39-1.72,10.76-3,18.77l-.15-.18h1.21c9.33,5.85,21.33,13.39,35.06,22.03l.18.11-.11.18c-2.74,5.38-5.64,11.05-8.64,16.94l-.11.18-.22-.07c-8.42-3.66-17.42-7.61-26.6-11.86-3.62-1.68-7.21-3.37-10.72-5.05-1.76-.88-3.48-1.72-5.2-2.63-1.68-.91-3.44-1.79-4.83-3.11-1.39-1.32-2.42-3-3.15-4.76-.73-1.76-1.17-3.59-1.35-5.45-.22-1.83-.22-3.7,0-5.49.18-1.79.55-3.55.84-5.27,1.32-6.88,2.71-13.43,4.06-19.5,1.35-6.11,2.67-11.75,4.06-16.87.7-2.56,1.39-4.98,2.16-7.28.77-2.27,1.9-4.28,3.18-5.96,1.32-1.65,2.82-2.96,4.28-3.99,1.5-.99,2.93-1.79,4.28-2.34,2.71-1.17,4.94-1.65,6.48-1.94.77-.11,1.35-.18,1.76-.22h.59s-.18,0-.59.07c-.4.04-.99.15-1.72.29-1.5.29-3.73.84-6.4,2.01-1.35.55-2.78,1.35-4.24,2.38-1.46,1.02-2.89,2.34-4.21,3.95-1.24,1.68-2.34,3.62-3.11,5.89-.73,2.27-1.43,4.68-2.12,7.25-1.35,5.12-2.67,10.79-3.99,16.87-1.32,6.11-2.71,12.62-4.03,19.5-.33,1.72-.66,3.48-.84,5.23s-.18,3.59.04,5.38c.4,3.59,1.68,7.32,4.35,9.92,1.35,1.28,3.07,2.12,4.76,3.04,1.68.91,3.44,1.76,5.16,2.63,3.51,1.68,7.1,3.4,10.72,5.05,9.18,4.21,18.19,8.2,26.6,11.86l-.29.11c3-5.85,5.89-11.53,8.67-16.91l.07.29c-13.69-8.64-25.65-16.25-34.98-22.14h.07-1.32v-.18c1.35-7.98,2.42-14.34,3.15-18.74.37-2.16.66-3.84.88-4.98.11-.55.18-.99.22-1.28s.11-.44.11-.44l-.04-.04Z"/>
                </g>
                <path class="cls-20" d="m167.86,225.67s-.18.88-.37,2.49c-.07.81-.11,1.79-.07,2.96s.18,2.45.37,3.92c.4,2.89.95,6.33,1.02,10.25.11,3.88-.33,8.23-1.94,12.44-1.61,4.17-3.7,7.9-5.01,11.49-1.32,3.62-1.21,7.17-1.02,10.06.18,2.93.44,5.27.62,6.88.07.77.15,1.39.18,1.87.04.44.04.66,0,.66,0,0-.07-.22-.15-.66-.07-.48-.18-1.1-.29-1.87-.22-1.61-.55-3.95-.77-6.88-.22-2.89-.37-6.51.95-10.21,1.32-3.66,3.4-7.39,4.98-11.53s2.05-8.42,1.94-12.26c-.04-3.84-.59-7.28-.91-10.21-.18-1.46-.29-2.78-.29-3.95s.07-2.16.18-3c.11-.81.26-1.43.37-1.87.11-.4.18-.62.18-.62l.04.04Z"/>
                <path class="cls-20" d="m116.41,232.47s.37-1.32.59-3.51c.15-1.1.15-2.42.07-3.84-.15-1.43-.4-3.04-.88-4.61-.99-3.22-2.63-5.78-4.03-7.46-1.39-1.68-2.49-2.52-2.42-2.6,0,0,.29.18.77.55s1.13.99,1.9,1.83c1.5,1.65,3.22,4.28,4.24,7.57.51,1.65.77,3.26.88,4.72.07,1.5,0,2.82-.18,3.92-.07.55-.18,1.06-.29,1.5-.07.44-.18.81-.29,1.1-.18.59-.33.91-.37.91v-.07Z"/>
                <path class="cls-20" d="m136.61,267.71s1.65-.26,3.95-1.57c.59-.29,1.13-.73,1.79-1.17.59-.51,1.24-.99,1.83-1.65,1.24-1.21,2.45-2.74,3.48-4.46,2.09-3.48,3.15-7.06,3.7-9.66.51-2.63.55-4.28.62-4.28,0,0,.04.4,0,1.17,0,.77-.11,1.83-.33,3.18-.44,2.63-1.46,6.33-3.62,9.84-1.06,1.76-2.27,3.33-3.55,4.54-.62.66-1.32,1.13-1.9,1.65-.66.4-1.24.88-1.87,1.13-.59.29-1.13.59-1.65.73-.51.18-.91.33-1.32.37-.73.15-1.13.18-1.13.15v.04Z"/>
                <path class="cls-20" d="m98.88,274.92s1.72-2.12,4.72-3.48c3-1.35,5.71-1.32,5.71-1.21,0,.15-2.6.33-5.49,1.68-2.93,1.28-4.83,3.11-4.94,3Z"/>
                <g>
                  <path class="cls-7" d="m171.26,292.67c-.11.62-.55,1.1-1.13,1.24-.11,0-.26.04-.37.04-.91,0-1.32-1.72-1.32-1.72l-4.13.59s-5.89,7.57-7.94,9.7c-8.16,8.45-10.28,2.34-10.28,2.34l2.52-9.92,5.23-8.86s-.33.55-.18-.88c.11-1.39,2.52-1.65,2.52-1.65.18-.73,1.57-1.39,1.57-1.39l6.55-1.24c1.35-.26,2.74.15,3.77,1.02l3.99,3.48s2.34,2.67,2.34,3.44c0,1.21-1.21,1.32-1.21,1.32,0,0,.29,2.12-.22,2.38-.51.22-1.68.11-1.68.11h-.04Z"/>
                  <path class="cls-9" d="m155.93,290.73s.84-.29,2.23-.62c1.35-.37,3.29-.7,5.45-.62,1.06,0,2.09.15,3,.33s1.79.29,2.23.81c.22.26.22.55.15.81-.07.26-.22.44-.37.55-.29.26-.55.22-.51.26,0,0,.26.11.62-.11.18-.11.37-.33.48-.62.11-.29.11-.73-.15-1.06-.26-.33-.66-.51-1.06-.66-.4-.11-.84-.26-1.32-.33-.91-.18-1.98-.33-3.07-.37-2.2-.07-4.17.33-5.56.77-1.39.44-2.16.88-2.12.91v-.04Z"/>
                  <path class="cls-9" d="m156.73,294.97s2.6-.81,5.82-1.57c3.22-.81,5.89-1.21,5.89-1.32,0-.07-.7,0-1.76.11-1.1.15-2.56.4-4.21.81-1.61.4-3.07.88-4.1,1.28-1.02.4-1.65.7-1.61.73l-.04-.04Z"/>
                  <path class="cls-9" d="m171.19,292.48s0-.26-.11-.7-.26-1.1-.55-1.87c-.15-.4-.33-.81-.59-1.24s-.62-.88-1.06-1.21c-.84-.7-1.9-1.35-3.11-1.72-1.21-.37-2.38-.62-3.51-.62s-2.09.22-2.85.44c-.81.22-1.43.44-1.83.59-.44.15-.66.26-.66.29,0,.07.99-.22,2.56-.55.81-.18,1.72-.33,2.78-.33s2.2.29,3.37.62c1.17.37,2.16.95,3,1.61.84.62,1.24,1.5,1.57,2.27.62,1.5.88,2.52.95,2.49l.04-.07Z"/>
                  <path class="cls-9" d="m158.53,283.7s.99-.22,2.52-.51c1.54-.22,3.88-.84,5.82.77,2.01,1.39,3.73,2.78,4.72,4.06.99,1.24,1.24,2.27,1.32,2.23,0,0,0-.26-.18-.7-.15-.44-.44-1.06-.91-1.72-.95-1.35-2.71-2.82-4.72-4.21-.51-.37-1.06-.66-1.61-.88-.59-.22-1.17-.26-1.72-.26-1.1,0-2.01.22-2.82.4-1.57.37-2.49.73-2.49.81h.07Z"/>
                  <path class="cls-9" d="m160.03,298.67s.11-.15.29-.4c.22-.29.48-.7.81-1.21.73-1.02,1.79-2.49,3.29-4.21h-.07c1.24-.11,2.63-.29,4.13-.51l-.18-.11c.07.33.22.62.37.95.15.29.37.62.73.81.18.11.4.11.59.07.18,0,.37-.04.55-.15.37-.18.66-.48.81-.84.04-.11.07-.18.11-.29v-.11h0s-.4.29-.22.15h.15c.18,0,.37,0,.55.04h.59c.11,0,.18,0,.29-.07.11,0,.22-.07.33-.18.18-.22.18-.44.22-.66v-.62c0-.4-.04-.81-.07-1.21l-.18.22c.55-.07,1.1-.37,1.32-.95.11-.26.15-.59,0-.88-.11-.26-.22-.51-.37-.73-.59-.88-1.24-1.72-1.94-2.52h0c-.66-.59-1.39-1.21-2.12-1.87-.44-.4-.91-.77-1.35-1.17-.44-.37-.88-.81-1.43-1.1-.55-.29-1.13-.48-1.72-.51-.59-.07-1.17.07-1.72.15-2.16.4-4.24.81-6.18,1.17h0c-.37.18-.66.37-.95.62-.29.22-.59.51-.73.91l.18-.15c-.77-.07-1.54.18-2.01.73-.48.59-.55,1.28-.51,1.94v-.11c-1.46,2.52-2.71,4.61-3.59,6.07-.4.7-.73,1.24-.95,1.68-.22.4-.33.59-.29.59,0,0,.15-.18.4-.55.26-.4.59-.95,1.02-1.61.91-1.46,2.16-3.51,3.73-6h0v-.11c0-.59.07-1.24.48-1.68.37-.48,1.06-.66,1.68-.62h.15l.04-.15c.07-.26.33-.51.59-.73s.59-.4.91-.55h-.04c1.94-.33,4.03-.73,6.18-1.13.55-.11,1.06-.22,1.61-.15.55.04,1.06.22,1.54.48s.88.66,1.35,1.06c.44.4.88.77,1.35,1.17.73.62,1.43,1.24,2.12,1.87h0c.7.77,1.35,1.61,1.9,2.45.15.22.26.44.33.62s.04.4,0,.59c-.15.4-.55.66-.95.7h-.22v.22c.04.37.07.77.07,1.13s0,.81-.15.99c0,0-.07.04-.15.07-.07,0-.15.04-.26.04h-1.21c.18-.15-.26.18-.22.15h0v.07c0,.07-.04.15-.07.22-.11.29-.37.55-.62.66-.15.07-.29.11-.44.11s-.29,0-.4-.04c-.48-.29-.77-.95-.91-1.54v-.15h-.18c-1.5.22-2.89.4-4.1.59h-.04v.04c-1.5,1.76-2.52,3.26-3.22,4.32-.33.55-.59.95-.73,1.24l-.22.44-.04.26Z"/>
                </g>
                <g class="cls-14">
                  <path d="m151.65,249.41c-.73,3.44-2.05,7.1-3.95,10.03-2.27,3.51-5.09,5.38-8.64,7.57l-.26.11c4.21.04,8.42-2.09,10.9-5.53s3.26-8.12,1.94-12.22v.04Z"/>
                </g>
              </g>
            </g>
          </g>
        </g>
      </g>
    </g>
  </g>
</svg>