<?xml version="1.0" encoding="UTF-8"?><svg xmlns="http://www.w3.org/2000/svg" viewBox="0 0 95.21 60.66"><defs><style>.cls-1{fill:#2fa7e0;}.cls-2,.cls-3{fill:#fff;}.cls-4{fill:#aeb1b2;}.cls-5{fill:#606365;}.cls-6{opacity:.6;}.cls-7{fill:#f5f5f5;}.cls-8{isolation:isolate;}.cls-9{fill:#ffbf9d;}.cls-10{fill:#707274;}.cls-11{fill:#ff9a6c;}.cls-12{fill:#f4d862;}.cls-13{fill:#cfd1d2;}.cls-14{fill:#3e4042;}.cls-15{fill:#e1e1e1;}.cls-16{opacity:.3;}.cls-17{fill:#beeafc;}.cls-18{fill:#808285;}.cls-19{fill:#375a64;}.cls-3{mix-blend-mode:screen;opacity:.4;}.cls-20{fill:#bec0c2;}.cls-21{fill:#1a2e35;}</style></defs><g class="cls-8"><g id="Layer_2"><g id="Layer_1-2"><g><g><path class="cls-10" d="M1.55,.15H73.64c.78,0,1.41,.63,1.41,1.41V45.76c0,.78-.63,1.41-1.41,1.41H1.56c-.78,0-1.41-.63-1.41-1.41V1.55C.15,.78,.78,.15,1.55,.15Z"/><path class="cls-14" d="M73.64,47.32H1.56c-.86,0-1.56-.7-1.56-1.55V1.55C0,.7,.7,0,1.56,0H73.64c.86,0,1.55,.7,1.55,1.55V45.77c0,.86-.7,1.55-1.55,1.55ZM1.56,.3C.86,.3,.3,.86,.3,1.55V45.77c0,.69,.56,1.26,1.26,1.26H73.64c.69,0,1.26-.56,1.26-1.26V1.55c0-.69-.56-1.26-1.26-1.26H1.56Z"/></g><g><path class="cls-4" d="M1.55,1.84H73.64c.78,0,1.41,.63,1.41,1.41V47.45c0,.78-.63,1.41-1.41,1.41H1.55c-.78,0-1.41-.63-1.41-1.41V3.24C.15,2.47,.78,1.84,1.55,1.84Z"/><path class="cls-5" d="M73.64,49.01H1.56c-.86,0-1.56-.7-1.56-1.56V3.24c0-.86,.7-1.55,1.56-1.55H73.64c.86,0,1.55,.7,1.55,1.55V47.45c0,.86-.7,1.56-1.55,1.56ZM1.56,1.98C.86,1.98,.3,2.55,.3,3.24V47.45c0,.69,.56,1.26,1.26,1.26H73.64c.69,0,1.26-.56,1.26-1.26V3.24c0-.69-.56-1.26-1.26-1.26H1.56Z"/></g><path class="cls-13" d="M73.82,45.97c0,.74-.61,1.34-1.36,1.34H2.74c-.75,0-1.36-.6-1.36-1.34V3.77c0-.74,.61-1.34,1.36-1.34H72.46c.75,0,1.36,.6,1.36,1.34V45.97Z"/><g><path class="cls-2" d="M73.7,40.17V4.14c0-.7-.6-1.27-1.35-1.27H3c-.75,0-1.35,.57-1.35,1.27V40.17H73.7Z"/><path class="cls-20" d="M73.7,40.32H1.65c-.08,0-.15-.07-.15-.15V4.14c0-.78,.67-1.42,1.5-1.42H72.34c.83,0,1.5,.64,1.5,1.42V40.17c0,.08-.07,.15-.15,.15Zm-71.9-.3H73.55V4.14c0-.62-.54-1.12-1.2-1.12H3c-.66,0-1.2,.5-1.2,1.12V40.02Z"/></g><g><path class="cls-2" d="M73.7,40.17V4.14c0-.7-.6-1.27-1.35-1.27H3c-.75,0-1.35,.57-1.35,1.27V40.17H73.7Z"/><path class="cls-20" d="M73.7,40.32H1.65c-.08,0-.15-.07-.15-.15V4.14c0-.78,.67-1.42,1.5-1.42H72.34c.83,0,1.5,.64,1.5,1.42V40.17c0,.08-.07,.15-.15,.15Zm-71.9-.3H73.55V4.14c0-.62-.54-1.12-1.2-1.12H3c-.66,0-1.2,.5-1.2,1.12V40.02Z"/></g><path class="cls-18" d="M73.7,6.69v-2.55c0-.7-.6-1.27-1.35-1.27H3c-.75,0-1.35,.57-1.35,1.27v2.55H73.7Z"/><g><path d="M59.23,5.45c0-.28,.17-.48,.44-.59h0c-.25-.13-.35-.32-.35-.51,0-.35,.3-.59,.69-.59,.43,0,.65,.27,.65,.55,0,.19-.09,.39-.36,.52h0c.28,.12,.45,.32,.45,.59,0,.39-.33,.65-.76,.65-.47,0-.75-.28-.75-.6Zm1.2-.01c0-.27-.19-.4-.49-.49-.26,.08-.4,.25-.4,.46-.01,.23,.16,.42,.45,.42s.44-.17,.44-.4Zm-.83-1.11c0,.22,.17,.34,.42,.41,.19-.06,.34-.2,.34-.4,0-.18-.11-.36-.38-.36-.25,0-.39,.16-.39,.36Z"/><path d="M61.04,4.63c0-.13,.09-.22,.2-.22s.2,.09,.2,.22c0,.12-.08,.21-.21,.21-.12,0-.2-.09-.2-.21Zm0,1.21c0-.13,.09-.22,.2-.22s.2,.09,.2,.22c0,.12-.08,.21-.21,.21-.12,0-.2-.09-.2-.21Z"/><path d="M62.38,4.07h0l-.39,.21-.06-.23,.49-.26h.26v2.22h-.29v-1.94Z"/><path d="M64.81,4.04h-.85l-.09,.57c.05,0,.1-.01,.18-.01,.17,0,.34,.04,.48,.12,.17,.1,.32,.29,.32,.57,0,.43-.35,.76-.83,.76-.24,0-.45-.07-.56-.14l.08-.23c.09,.05,.27,.12,.48,.12,.28,0,.53-.18,.53-.48,0-.29-.2-.49-.64-.49-.13,0-.23,.01-.31,.02l.14-1.07h1.07v.25Z"/></g><g><rect class="cls-17" x="50.33" y="9.74" width="19.74" height="27.83"/><rect class="cls-1" x="54.21" y="13.37" width="11.98" height="9.53"/><rect class="cls-1" x="54.92" y="30.33" width="10.57" height="1.29"/></g><g><rect class="cls-17" x="4.48" y="9.74" width="20.26" height="27.83"/><rect class="cls-1" x="7.16" y="12.91" width="7.34" height="9.11"/><rect class="cls-1" x="19.75" y="13.54" width="1.29" height="6.83"/><rect class="cls-1" x="7.34" y="25.3" width="7.34" height="9.11"/><rect class="cls-1" x="19.93" y="25.93" width="1.29" height="6.83"/></g><g><rect class="cls-17" x="27.47" y="9.74" width="20.26" height="27.83"/><g><rect class="cls-1" x="29.43" y="12.4" width="6.7" height="5.06"/><rect class="cls-1" x="39.06" y="12.4" width="6.7" height="5.06"/></g><g><rect class="cls-1" x="29.43" y="20.12" width="6.7" height="5.06"/><rect class="cls-1" x="39.06" y="20.12" width="6.7" height="5.06"/></g><g><rect class="cls-1" x="29.43" y="28.21" width="6.7" height="5.06"/><rect class="cls-1" x="39.06" y="28.21" width="6.7" height="5.06"/></g></g><path class="cls-3" d="M37.3,47.06c7.38-5.69,14.91-11.18,22.51-16.57,5.06-3.59,10.15-7.13,15.24-10.66V11.72c-5.69,3.97-11.41,7.89-17.11,11.85-7.66,5.32-15.22,10.76-22.66,16.39-3.24,2.46-6.46,4.94-9.68,7.44h11.25c.15-.11,.29-.23,.44-.34Z"/><path class="cls-3" d="M3.52,20.26c3.47-2.68,6.96-5.34,10.5-7.92,4.5-3.28,9.09-6.44,13.76-9.47h-4.52c-3.93,2.55-7.78,5.21-11.6,7.91-3.42,2.42-6.81,4.88-10.21,7.32v3.76c.69-.54,1.38-1.08,2.08-1.61Z"/><g><g><g><path class="cls-21" d="M90.66,54.64l2.54,6.02,1.79-.02-.79-6.01h-3.54Z"/><path class="cls-21" d="M80.93,54.66l2.51,5.99,1.79-.02-.78-5.99h-3.51Z"/><path class="cls-19" d="M94.83,18.53c-.98-1.47-20.37-1.69-21.2-.15l-7.08,13.46-10.65-.49s-1.43-.07-2.83,1.27c-.69,.66-.66,4.83-.46,6.44,.13,1.07,1.76,15.66,1.76,15.66l40.13-.08s1.31-34.64,.33-36.11Z"/><path class="cls-21" d="M83.12,55.01s0-.04,0-.13c0-.09,0-.21-.01-.38,0-.33-.02-.82-.03-1.44-.03-1.25-.06-3.05-.11-5.26l.03,.03c-3.28,.02-7.55,.05-12.19,.09-4.85,.03-9.28,.05-12.63,.07l.03-.03c-.34,2.05-.31,3.76-.22,4.92,.04,.58,.1,1.04,.14,1.34,.02,.15,.04,.27,.05,.35,.01,.08,.01,.12,.01,.12,0,0-.14-.64-.24-1.81-.09-1.17-.14-2.87,.2-4.94v-.03s.03,0,.03,0c3.35-.02,7.78-.06,12.63-.09,4.64-.03,8.9-.05,12.19-.07h.03s0,.03,0,.03c.03,2.21,.06,4.01,.08,5.26,0,.62,.01,1.11,.02,1.44,0,.16,0,.29,0,.38,0,.08,0,.13,0,.13Z"/><path class="cls-21" d="M81.89,32.43s.03,0,.08,0c.05,0,.14,0,.24,.01,.21,.02,.53,.09,.89,.28,.36,.19,.77,.51,1.12,.99,.35,.47,.62,1.12,.76,1.86,.15,.74,.17,1.58,.16,2.48,0,.9-.03,1.87-.09,2.91-.12,2.06-.38,4.37-.65,6.85v.04s-.04,0-.04,0c-3.12,.02-6.55,.04-10.15,.07-7.12,.04-13.61,.08-18.4,.11h-.03s0-.03,0-.03c-.08-1.36,0-2.59,.18-3.66,.19-1.06,.51-1.96,.95-2.58,.22-.31,.47-.55,.71-.71,.03-.02,.06-.04,.09-.06,.03-.02,.06-.03,.09-.05,.06-.03,.12-.06,.17-.09,.12-.04,.22-.09,.32-.11,.1-.02,.18-.04,.26-.05,.08,0,.14-.01,.19-.02,.1,0,.15,0,.15,0,0,0-.05,0-.15,.02-.05,0-.11,0-.19,.02-.07,.02-.16,.04-.26,.06-.1,.03-.2,.07-.31,.11-.05,.03-.11,.06-.17,.09-.03,.02-.06,.03-.09,.05-.03,.02-.06,.04-.09,.06-.24,.16-.49,.4-.7,.71-.44,.62-.75,1.51-.93,2.57-.18,1.06-.25,2.29-.17,3.64l-.03-.03c4.8-.03,11.28-.08,18.4-.13,3.59-.02,7.02-.04,10.15-.06l-.04,.04c.28-2.48,.54-4.78,.66-6.85,.06-1.03,.1-2,.1-2.9,0-.9-.01-1.73-.15-2.47-.13-.74-.4-1.37-.74-1.85-.34-.47-.74-.8-1.1-.99-.36-.19-.67-.26-.88-.29-.21-.03-.32-.02-.32-.02Z"/><polygon class="cls-21" points="54.96 54.71 54.38 60.65 56.17 60.63 58.41 54.71 54.96 54.71"/></g><path class="cls-21" d="M58.3,40.72s.06,0,.18-.02c.13-.02,.29-.05,.48-.08,.4-.07,.96-.17,1.58-.23,.62-.07,1.19-.08,1.6-.08,.19,0,.35,0,.49,0,.11,0,.18,0,.18,0,0,0-.06-.01-.18-.03-.11-.01-.28-.02-.49-.03-.41-.02-.98-.02-1.61,.05-.62,.07-1.18,.18-1.58,.26-.2,.04-.36,.08-.47,.11-.11,.03-.17,.04-.17,.05Z"/><path class="cls-21" d="M55.47,31.37s.13,.07,.36,.19c.23,.12,.54,.33,.88,.65,.34,.31,.7,.74,1.01,1.27,.31,.53,.57,1.15,.75,1.84,.34,1.38,.32,2.68,.3,3.61-.01,.47-.03,.84-.04,1.1,0,.12,0,.22-.01,.3,0,.07,0,.1,0,.1,0,0,0-.04,.01-.1,0-.08,.02-.18,.03-.3,.02-.26,.05-.64,.07-1.1,.02-.47,.03-1.02,0-1.64-.03-.62-.11-1.3-.28-1.99-.18-.69-.44-1.33-.76-1.86-.32-.53-.68-.96-1.04-1.27-.35-.31-.67-.52-.91-.63-.11-.06-.21-.1-.27-.13-.06-.03-.1-.04-.1-.04Z"/><g class="cls-16"><path d="M76.45,42.52c-1.21,.28-2.45,.41-3.69,.37-.09,3.87-.43,7.74-1,11.58-.31,.14-.63,.28-.97,.29-.34,0-.71-.15-.85-.45-.08-.18-.08-.39-.07-.59,.17-3.86,.56-7.71,1.19-11.52,.05-.28,.11-.6,.35-.76,.23-.15,.53-.11,.79-.06,1.5,.28,2.98,.63,4.44,1.04"/></g><g class="cls-16"><path d="M78.22,42.2l-.37,5.3s-1.25-2.87-.93-3.97c.32-1.1,1.31-1.34,1.31-1.34Z"/></g></g><g><g><g><path class="cls-21" d="M78.54,21.11c.12-4.18,.25-8.36,.37-12.54l.41-.72c.36-.31,.93-.26,1.32,.02,.39,.28,.61,.73,.77,1.18,.74,2.16,.16,4.53,.31,6.8,.03,.49,.11,1.01,.4,1.41,.39,.55,1.11,.82,1.41,1.42,.27,.54,.07,1.27-.44,1.6,.37,.21,.74,.44,.99,.78s.31,.85,.04,1.18c-.29,.35-.82,.36-1.28,.32-1.29-.12-2.57-.36-3.8-.75-.15-.05-.32-.11-.41-.24-.09-.13-.09-.3-.08-.46Z"/><path class="cls-19" d="M81.2,18.95s-.16-.03-.35-.24c-.19-.2-.33-.59-.37-1.08-.07-.98-.1-2.35,.02-3.86,.06-.75,.15-1.47,.25-2.11,.11-.64,.16-1.25,.02-1.74-.13-.49-.42-.81-.65-.97-.12-.08-.22-.12-.29-.14-.07-.02-.11-.03-.11-.02,0,.01,.15,.03,.38,.19,.22,.16,.49,.48,.61,.96,.13,.48,.07,1.07-.04,1.71-.11,.65-.2,1.36-.26,2.12-.12,1.51-.08,2.88,0,3.87,.05,.49,.2,.89,.41,1.09,.1,.1,.2,.15,.26,.18,.07,.02,.11,.03,.11,.03Z"/></g><g><g><path class="cls-12" d="M78.35,8.52c.04,.18-.09-.15,0,0h0Z"/><path class="cls-12" d="M78.49,7.81c.14-.15,.37-.09,.53,.03,.28,.2,.5,.54,.64,.91,.14,.37,.21,.78,.26,1.18,.02,.23,.03,.52-.13,.65-.11,.1-.26,.08-.38,0-.12-.08-.21-.22-.29-.35-.32-.53-.58-1.11-.78-1.72-.04-.18,.03-.59,.14-.7Z"/></g><g><g><path class="cls-21" d="M79.67,10.95c-.32-1.36-.89-2.75-2.02-3.57-1-.74-2.47-1.02-3.71-.92-.61,.05-1.29,.35-1.82,.67-.72,.44-1,1.29-1.33,2.06-.66,1.55-.5,3.61,0,4.17l6.49,3.16c1.11-.62,2.31-1.47,2.57-2.71,.18-.85,.01-2.01-.19-2.85Z"/><g><path class="cls-9" d="M77.21,8.54l-4.05-1.05c-1.3-.15-2.18,1.45-2.27,2.75-.1,1.45-.17,3.22,0,4.31,.33,2.18,2,2.7,2,2.7,0,0,0,1.89,.01,2.54l1.89,5.76,2.69-5.76,.41-10.46c.01-.4-.28-.74-.68-.78Z"/><path class="cls-21" d="M71.62,11.99c0,.15,.11,.27,.27,.28,.15,0,.28-.1,.29-.25,0-.15-.11-.27-.27-.28-.15,0-.28,.1-.29,.25Z"/><path class="cls-21" d="M71.27,11.16s.25-.12,.55-.12c.3,0,.52,.15,.55,.12,.02-.02-.02-.08-.11-.15-.09-.07-.25-.14-.44-.14-.19,0-.34,.07-.44,.14-.09,.07-.12,.14-.11,.15Z"/><path class="cls-21" d="M74.34,11.99c0,.15,.11,.27,.27,.28,.15,0,.28-.1,.29-.25,0-.15-.11-.27-.27-.28-.15,0-.28,.1-.29,.25Z"/><path class="cls-21" d="M74.22,11.24s.25-.12,.55-.12c.3,0,.52,.15,.55,.12,.02-.02-.02-.08-.11-.15-.09-.07-.25-.14-.44-.14-.19,0-.34,.07-.44,.14-.09,.07-.12,.14-.11,.15Z"/><path class="cls-21" d="M73.12,13.46s-.18-.05-.49-.09c-.08,0-.15-.02-.16-.08-.02-.06,.01-.14,.05-.23,.07-.19,.15-.38,.23-.58,.32-.83,.55-1.51,.52-1.52-.03-.01-.32,.65-.64,1.48-.08,.2-.15,.4-.22,.59-.03,.09-.08,.19-.04,.3,.02,.06,.08,.1,.13,.11,.05,.02,.09,.02,.13,.02,.3,.02,.49,.02,.49,0Z"/><path class="cls-11" d="M72.88,17.25v.54c2.19,.22,2.92-1.3,2.92-1.3-1.46,.86-2.92,.76-2.92,.76Z"/><path class="cls-11" d="M74.11,14.02c-.09-.14-.24-.21-.4-.22-.23,0-.42,.07-.57,.28-.05,.06-.05,.23-.03,.28,.02,.05,0,.02,.04,.06,.13,.12,.27,.24,.45,.28,.17,.04,.38-.01,.5-.18,.1-.15,.1-.36,.01-.5Z"/><path class="cls-21" d="M74,13.67s-.05,.32-.33,.55c-.28,.23-.63,.19-.63,.24,0,.02,.08,.06,.22,.07,.14,0,.35-.04,.53-.18,.17-.14,.25-.33,.26-.46,.01-.14-.02-.22-.04-.22Z"/><path class="cls-21" d="M74.09,10.28c.03,.08,.33,.05,.68,.09,.35,.04,.64,.14,.68,.07,.02-.03-.03-.11-.14-.19-.11-.08-.29-.16-.51-.18-.21-.02-.41,0-.53,.06-.13,.05-.2,.11-.18,.15Z"/><path class="cls-21" d="M71.39,10.13c.05,.07,.26,0,.51,0,.25-.01,.46,.05,.51-.02,.02-.03-.01-.1-.1-.17-.09-.06-.24-.12-.41-.11-.17,0-.32,.07-.41,.13-.09,.07-.12,.14-.09,.17Z"/><path class="cls-9" d="M77.31,11.97s1.21-.39,1.2,.83c-.01,1.21-1.23,.95-1.23,.92,0-.03,.03-1.74,.03-1.74Z"/><path class="cls-11" d="M77.65,13.25s.02,.01,.06,.03c.03,.02,.09,.03,.16,0,.13-.05,.24-.25,.25-.47,0-.11-.02-.22-.06-.3-.04-.09-.09-.15-.16-.16-.06-.02-.11,.02-.13,.06-.02,.03,0,.06-.02,.06,0,0-.03-.02-.02-.07,0-.02,.02-.05,.05-.08,.03-.02,.07-.04,.12-.03,.09,0,.18,.09,.22,.19,.05,.1,.07,.22,.07,.34,0,.24-.14,.47-.31,.52-.09,.02-.16,0-.19-.03-.04-.03-.04-.06-.04-.06Z"/></g><path class="cls-15" d="M78.06,13.66s.05,.05,.05,.16c0,.05-.02,.12-.09,.17-.07,.05-.16,.05-.23,.02-.08-.03-.15-.09-.16-.17-.02-.07,0-.14,.03-.19,.06-.09,.14-.1,.14-.1,0,0-.06,.03-.1,.12-.02,.04-.03,.1-.02,.15,.01,.05,.06,.1,.13,.12,.06,.02,.13,.02,.18,0,.05-.03,.07-.08,.07-.13,.02-.09-.01-.15,0-.15Z"/><path class="cls-21" d="M70.8,10.58c.16-.35,.48-.61,.82-.8,.34-.19,.7-.33,1.04-.53,.77-.45,1.36-1.19,1.63-2.04-.6-.31-1.34-.27-1.94,.03-.6,.3-1.07,.84-1.34,1.45-.28,.61-.38,1.29-.37,1.97"/><path class="cls-21" d="M77.59,8.21c-.9-.85-2.59-1.32-3.77-.92,.17,1.02,.95,2.17,1.62,2.95,.68,.79,1.1,2.17,2.58,1.7,.1-.03,.22,.06,.31,0,.08-.05,.12-.14,.14-.23,.39-1.21,.03-2.64-.9-3.51Z"/></g><path class="cls-2" d="M78.1,8.01s0,.02-.03,.04c-.02,.02-.04,.06-.08,.11-.08,.09-.2,.22-.37,.35-.17,.13-.39,.26-.66,.35-.27,.09-.58,.15-.91,.13-.33-.02-.64-.11-.89-.23-.26-.12-.47-.28-.62-.43-.16-.15-.26-.29-.33-.39-.03-.05-.06-.09-.07-.12-.02-.03-.02-.04-.02-.04,.01,0,.13,.23,.45,.52,.16,.14,.36,.29,.62,.41,.25,.12,.55,.2,.87,.22,.32,.02,.63-.04,.89-.13,.26-.09,.49-.21,.66-.34,.34-.25,.49-.48,.5-.47Z"/><path class="cls-19" d="M78.68,9.67s-.01,.02-.04,.04c-.03,.02-.07,.07-.13,.11-.11,.09-.3,.2-.54,.28-.24,.09-.56,.14-.9,.12-.34-.02-.72-.1-1.08-.28-.35-.18-.66-.41-.9-.65-.24-.24-.43-.49-.58-.7-.14-.21-.25-.4-.32-.52-.03-.06-.06-.11-.07-.15-.02-.03-.02-.05-.02-.05,0,0,.01,.02,.03,.05,.02,.04,.05,.09,.08,.14,.07,.12,.18,.3,.33,.51,.15,.21,.34,.45,.58,.68,.24,.24,.54,.46,.89,.64,.35,.17,.72,.26,1.05,.28,.34,.02,.64-.03,.88-.11,.24-.08,.43-.18,.54-.26,.12-.08,.18-.14,.18-.13Z"/></g><path class="cls-19" d="M77.61,16.31s.02,0,.06-.03c.04-.02,.1-.05,.18-.1,.15-.09,.36-.23,.6-.44,.24-.2,.51-.47,.75-.82,.24-.34,.45-.76,.58-1.23,.27-.93,.21-1.84,.06-2.44-.07-.31-.16-.55-.23-.71-.03-.08-.07-.14-.09-.18-.02-.04-.03-.06-.04-.06,0,0,.03,.09,.09,.26,.06,.16,.14,.41,.2,.71,.13,.61,.19,1.49-.08,2.41-.13,.46-.33,.87-.56,1.21-.23,.34-.49,.61-.72,.82-.23,.21-.44,.36-.58,.45-.14,.1-.23,.15-.22,.16Z"/></g></g><g><g><g><path class="cls-12" d="M59.93,46.93l-2.03,3.69s-4.27-1.08-4.71-.44l6.85,4.45,3.4-5.61-3.51-2.08Z"/><g class="cls-6"><path class="cls-2" d="M60.25,51.61c.11,.12,.12,.33,0,.44-.11,.12-.33,.12-.44,0-.12-.12-.13-.37,0-.47,.13-.1,.38-.1,.46,.04"/></g><g class="cls-6"><path class="cls-2" d="M60.03,54.63l.34-.57-6.76-4.07s-.28-.05-.5,.21l6.91,4.42Z"/></g><path class="cls-21" d="M57.81,50.51s.14,.15,.25,.36c.11,.21,.11,.41,.15,.41,.04,.01,.11-.22-.02-.48-.13-.25-.36-.34-.37-.3Z"/><path class="cls-21" d="M56.89,50.38s.09,.18,.12,.39c.04,.21-.03,.39,0,.41,.03,.02,.17-.16,.13-.43-.04-.27-.23-.4-.25-.37Z"/><path class="cls-21" d="M55.94,51.01s.18-.12,.2-.36c.03-.24-.09-.41-.12-.39-.04,.02,0,.18-.02,.38-.02,.2-.09,.35-.06,.37Z"/><path class="cls-21" d="M58.36,49.72s.18,.09,.37,.22c.19,.13,.3,.28,.34,.26,.03-.01-.04-.23-.26-.38-.22-.15-.45-.14-.44-.1Z"/></g><g class="cls-16"><polygon points="59.53 47.66 59.16 48.31 62.63 50.34 62.98 49.77 59.53 47.66"/></g><path class="cls-21" d="M58.78,48.99s.11,.12,.35,.21c.12,.05,.27,.09,.43,.11,.08,.01,.17,.02,.27,.01,.04,0,.1,0,.16-.02,.06-.01,.14-.09,.12-.17,0-.08-.05-.14-.1-.17-.05-.03-.1-.05-.14-.06-.09-.03-.18-.05-.26-.06-.17-.02-.33,0-.45,.02-.25,.05-.38,.15-.38,.16,0,.02,.15-.04,.39-.06,.12-.01,.26-.01,.42,.01,.08,.01,.16,.03,.24,.06,.09,.02,.15,.06,.15,.11,0,.02,0,.02-.03,.03-.03,.01-.07,.01-.11,.01-.09,0-.17,0-.25,0-.16-.01-.3-.04-.42-.07-.23-.06-.37-.13-.38-.11Z"/><path class="cls-21" d="M58.8,49.06s.15-.07,.3-.28c.07-.11,.14-.25,.18-.41,.02-.08,.03-.17,.04-.27,0-.09,0-.22-.12-.31-.07-.04-.16-.02-.21,.01-.05,.03-.08,.07-.11,.11-.06,.07-.11,.16-.14,.24-.07,.16-.08,.32-.07,.45,.03,.26,.15,.39,.16,.38,.02-.01-.06-.15-.06-.38,0-.12,.02-.26,.09-.4,.03-.07,.07-.14,.13-.2,.06-.07,.12-.11,.14-.09,.04,.02,.06,.11,.05,.19,0,.08-.01,.17-.03,.24-.03,.15-.09,.29-.14,.39-.11,.21-.23,.32-.21,.33Z"/></g><g><g><path class="cls-12" d="M66.13,54.08l.21,4.2s-4.35,1.3-4.28,2.33h8.19s-.04-6.6-.04-6.6l-4.08,.07Z"/><g class="cls-6"><path class="cls-2" d="M68.86,57.9c.16,.04,.27,.22,.24,.38-.03,.16-.21,.28-.37,.24-.16-.04-.3-.25-.25-.4,.05-.16,.27-.28,.41-.2"/></g><g class="cls-6"><path class="cls-2" d="M70.24,60.6v-.69s-7.8,.09-7.8,.09c0,0-.39,.27-.39,.61h8.19Z"/></g><path class="cls-21" d="M66.2,58.25s.2,.06,.4,.18c.2,.12,.3,.29,.34,.28,.04,0-.03-.25-.27-.39-.24-.15-.48-.1-.47-.06Z"/><path class="cls-21" d="M65.35,58.61s.16,.1,.3,.27c.14,.16,.18,.34,.22,.34,.04,0,.06-.23-.11-.43-.17-.21-.41-.22-.41-.18Z"/><path class="cls-21" d="M64.88,59.64s.09-.19-.02-.41c-.1-.22-.29-.3-.31-.27-.02,.03,.1,.15,.18,.33,.09,.18,.1,.35,.14,.35Z"/><path class="cls-21" d="M66.26,57.28s.2-.02,.42,0c.23,0,.4,.08,.42,.05,.02-.03-.15-.17-.42-.18-.27-.01-.45,.12-.43,.15Z"/></g><g class="cls-16"><polygon points="66.27 57.06 66.32 57.9 70.24 57.79 70.23 57.12 66.27 57.06"/></g><path class="cls-21" d="M66.24,56.43s.16,.04,.41,0c.12-.02,.27-.07,.43-.14,.08-.04,.16-.08,.23-.13,.04-.02,.08-.05,.12-.1,.04-.04,.07-.15,.02-.21-.04-.06-.12-.09-.18-.09-.06,0-.11,.01-.15,.02-.09,.02-.18,.05-.25,.09-.16,.07-.28,.16-.37,.25-.19,.18-.25,.33-.24,.34,.02,.01,.11-.11,.3-.26,.1-.07,.22-.15,.36-.21,.07-.03,.15-.06,.23-.08,.09-.02,.16-.03,.18,.01,0,.01,0,.02,0,.05-.02,.02-.05,.05-.09,.07-.07,.05-.14,.09-.21,.13-.14,.07-.28,.12-.39,.16-.23,.07-.39,.08-.39,.1Z"/><path class="cls-21" d="M66.29,56.49s.09-.14,.1-.4c0-.13-.01-.28-.06-.45-.03-.08-.06-.17-.11-.25-.05-.08-.11-.19-.26-.2-.08,0-.15,.06-.17,.12-.03,.06-.03,.1-.04,.15-.01,.1-.01,.19,0,.28,.03,.17,.1,.32,.18,.42,.16,.21,.33,.25,.33,.24,.01-.02-.13-.1-.25-.3-.06-.1-.12-.23-.13-.38,0-.08,0-.16,0-.24,.01-.09,.04-.16,.08-.15,.04,0,.11,.06,.14,.13,.04,.07,.08,.15,.1,.22,.05,.15,.08,.29,.08,.41,.01,.24-.03,.39,0,.4Z"/></g><g><path class="cls-7" d="M78.01,18.2l-.46-.19c.14-.22-.95,1.91-2.44,1.93-2.04,.02-2.24-2.01-2.24-2.01h-.11s-3.35,3.48-3.35,3.48l-.44,9.71,.36,1.25,7.19,2.61,2.51-4.99,.22-3.08-1.24-8.7Z"/><path class="cls-12" d="M77.79,18.09s4.08,.93,4.75,2.67c.29,.77,.39,13.18,.39,13.18,0,0,.51,1.14,.47,3.48-.03,2.25-1.52,3.7-3.37,4.12,0,0-.49-3.53-2.44-5.3-1.85-1.68-2.02-1.47-2.02-1.47l.45-4.05,.46-3.52c.46-2.52-.06-5.25,.8-7.66l.51-1.45Z"/><path class="cls-12" d="M69.17,20.56l-2.79,12.25,2.99-.68,.95-7.35,2.46-6.86s-.41,.05-.95,.14c-1.32,.21-2.38,1.2-2.67,2.5Z"/><g class="cls-16"><path d="M82.9,36.05c.01,.15-.08,.29-.2,.38-.12,.09-.27,.12-.41,.15-.69,.12-1.4,0-2.06-.22-.76-.25-1.49-.6-2.21-.96-1.06-.52-1.39-.76-2.39-1.39,1.04,.42,1.38,.48,2.47,.73,1.63,.37,3.34,.56,4.81,1.35"/></g><g><path class="cls-9" d="M76.91,31.42l-1.82-.39s-2.09-1.17-2.56-1.16c-.42,0-2.09,.76-2.42,.91-.04,.02-.07,.04-.09,.08h0c-.09,.15-.04,.35,.11,.44l.03,.02-.02,.04c-.03,.05-.05,.11-.05,.18-.02,.21,.25,.32,.39,.16l-.07,.09s-.05,.08-.05,.13v.09c-.02,.1,.03,.2,.12,.25h0c.09,.05,.19,.04,.27-.03,.23-.18,.71-.53,.99-.53,.26,0,.67,.06,.92,.1,.13,.02,.23,.12,.25,.24h0c-.17-.02-1.42,.4-1.87,.55-.14,.05-.25,.15-.29,.29-.04,.13,0,.27,.27,.25,.56-.04,1.62-.33,1.62-.33,0,0,.53-.06,.82,.22,.41,.4,.6,.55,1.01,.49s.74-.21,.74-.21l.66,.12,1.04-2.01Z"/><path class="cls-11" d="M73.07,31.08s-.15-.07-.41-.13c-.26-.06-.63-.09-1.02,0-.39,.1-.71,.3-.9,.47-.2,.17-.3,.31-.3,.3,0,0,.02-.04,.07-.09,.05-.06,.12-.14,.22-.23,.2-.18,.52-.39,.91-.49,.4-.1,.78-.06,1.04,0,.13,.03,.23,.07,.3,.1,.07,.03,.1,.05,.1,.05Z"/><path class="cls-11" d="M72.93,30.5s-.15-.09-.42-.15c-.27-.06-.67-.04-1.06,.12-.39,.16-.71,.39-.93,.56-.11,.08-.19,.15-.26,.2-.06,.05-.1,.07-.1,.07,0,0,.03-.03,.09-.08,.06-.05,.15-.12,.25-.21,.22-.17,.53-.41,.93-.57,.4-.16,.81-.18,1.08-.11,.14,.03,.24,.07,.31,.11,.04,.02,.06,.04,.08,.05,.02,.01,.03,.02,.03,.02Z"/></g><path class="cls-12" d="M80.07,21.14l.91,9.78h.26l-4.12,.08-1.49,3s5.41,2.63,7.72,1.91c2.74-.86,1.96-3.92,1.94-5,0-.19-1.54-9.28-3.03-10.64,0,0-1.96,.13-2.18,.87Z"/><g><path class="cls-21" d="M79.95,23.87s0,.09,.02,.26c.02,.18,.06,.42,.1,.72,.09,.62,.22,1.44,.35,2.35,.14,.92,.26,1.75,.35,2.35,.04,.29,.08,.53,.1,.71,.03,.17,.04,.26,.05,.26s0-.09-.01-.26c-.01-.17-.04-.42-.08-.72-.07-.61-.18-1.44-.32-2.36-.14-.92-.28-1.75-.38-2.35-.05-.29-.09-.53-.12-.71-.03-.17-.05-.26-.06-.26Z"/><path class="cls-21" d="M80.26,19.65s-.03,.03-.08,.1c-.05,.07-.11,.17-.17,.31-.07,.13-.13,.3-.19,.49-.05,.19-.1,.41-.12,.63-.05,.46-.03,.87,0,1.17,.03,.3,.06,.48,.07,.48,.01,0,0-.19-.01-.48,0-.3-.02-.71,.03-1.15,.03-.22,.07-.43,.12-.62,.05-.19,.11-.35,.17-.49,.11-.27,.21-.43,.2-.44Z"/><path class="cls-21" d="M83.34,35.9s-.01,0-.04,0c-.03,0-.07,.02-.12,.03-.1,.02-.26,.05-.45,.07-.4,.03-.98-.02-1.68-.16-.35-.07-.74-.16-1.15-.25-.41-.11-.83-.26-1.27-.43-.89-.33-1.85-.73-2.86-1.15-.04-.02-.08-.04-.13-.05l.02,.06c.54-1.08,1.04-2.1,1.49-3l-.03,.02c.66,0,1.27-.04,1.81-.06,.54-.02,1.01-.03,1.4-.03,.39,0,.7,.02,.91,.04,.21,.02,.32,.04,.32,.04,0,0-.03,0-.08-.02-.05-.01-.13-.03-.24-.04-.21-.03-.52-.05-.91-.06-.39,0-.87,0-1.41,0-.54,.01-1.15,.04-1.81,.05h-.02s-.01,.02-.01,.02c-.45,.9-.96,1.92-1.5,2.99l-.02,.04,.04,.02s.08,.04,.13,.05c1.01,.43,1.98,.82,2.87,1.15,.45,.16,.87,.32,1.28,.42,.42,.09,.8,.17,1.15,.24,.71,.14,1.29,.18,1.7,.14,.4-.04,.61-.14,.61-.14Z"/><path class="cls-21" d="M80.5,30.94s.1-.09,.29-.21c.18-.12,.47-.23,.8-.28,.33-.05,.64-.03,.86-.03,.22,0,.36,.01,.36,0,0-.01-.13-.04-.36-.06-.22-.02-.53-.05-.88,0-.34,.05-.64,.18-.82,.32-.18,.13-.26,.26-.25,.26Z"/><g class="cls-16"><path d="M80.57,30.93c.58-.09,1.19-.05,1.75,.13,.35,.11,.7,.27,.89,.58,.06,.1,.1,.24,.02,.32-.07,.07-.19,.05-.29,0-.2-.09-.37-.23-.55-.37-.28-.21-.58-.4-.91-.53-.33-.13-.69-.18-1.03-.13"/></g><g class="cls-16"><path d="M80.75,30.72c.12-.34,.58-.67,.87-.76,.66-.23,1.43-.31,2.02,.07,.06,.04,.13,.1,.13,.17,0,.11-.11,.17-.21,.2-.42,.12-.86,.05-1.3,0-.43-.04-.9-.05-1.27,.17"/></g><g class="cls-16"><path d="M80.89,30.29c-.85-1.75-1.24-4.05-.89-6.09l.89,6.09Z"/></g></g></g><g><path class="cls-21" d="M80.03,41.54s-1.47,.98-4.41,.98-3.6-.2-3.6-.2l-2.74-2.49-6.02,10.55s-4.78-2.96-4.81-2.87c-.06,.06,4.46-9.99,5.45-11.73,.32-.56,.62-.98,1.12-1.62,1-1.3,2.67-1.9,4.28-1.55,.81,.18,1.71,.41,2.5,.7,2.19,.8,4.04,1.34,5.62,2.74,1.83,1.62,2.93,4.77,2.62,5.5Z"/><path class="cls-21" d="M69.96,38.61s2.17,1.5,2.11,2.7c-.05,1.01-1.39,15.82-1.39,15.82l-5.33-.09-.37-9.7,4.98-8.73Z"/><path class="cls-19" d="M64.56,48.09s0-.01,.02-.04c.02-.03,.04-.06,.06-.11,.06-.1,.14-.24,.24-.42,.21-.38,.5-.91,.86-1.56,.72-1.33,1.72-3.15,2.82-5.17,.39-.72,.77-1.42,1.12-2.07l-.04,.02c.85,.1,1.55,.63,1.93,1.22,.19,.3,.31,.62,.36,.93,.06,.31,.06,.6,.06,.86-.01,.53-.06,.95-.08,1.24,0,.14-.01,.26-.01,.33,0,.08,0,.11,0,.11,0,0,0-.04,.01-.11,0-.08,.01-.19,.03-.33,.02-.29,.08-.71,.1-1.24,0-.27,0-.56-.05-.88-.05-.31-.17-.65-.36-.96-.38-.62-1.1-1.16-1.98-1.27h-.03s-.01,.02-.01,.02c-.35,.65-.73,1.34-1.12,2.07-1.09,2.02-2.08,3.85-2.8,5.18-.35,.66-.64,1.2-.84,1.58-.1,.18-.17,.33-.22,.43-.02,.05-.04,.08-.06,.11-.01,.03-.02,.04-.02,.04Z"/><path class="cls-19" d="M69.01,36.59s.38,.4,.57,1.03c.2,.63,.08,1.17,.1,1.17,0,0,.05-.13,.07-.35,.02-.22,0-.53-.09-.85-.1-.32-.26-.59-.4-.76-.14-.17-.25-.25-.25-.25Z"/><path class="cls-19" d="M70.13,36.18s.03,.15,.06,.4c.03,.24,.04,.59-.03,.96-.07,.37-.2,.68-.32,.9-.12,.22-.21,.34-.2,.35,0,0,.12-.1,.25-.32,.13-.21,.28-.54,.35-.92,.07-.38,.05-.73,0-.98-.05-.25-.11-.39-.12-.39Z"/></g><path class="cls-21" d="M74.29,29.38s-.15-.2-.36-.53c-.1-.17-.21-.38-.32-.62-.1-.24-.19-.51-.26-.81-.07-.29-.1-.58-.12-.84-.01-.26,0-.5,.01-.69,.04-.39,.1-.63,.09-.64,0,0-.02,.06-.05,.16-.02,.05-.03,.12-.05,.2-.01,.08-.03,.17-.04,.27-.03,.2-.04,.44-.03,.7,.01,.26,.05,.56,.11,.85,.07,.3,.17,.57,.27,.82,.11,.24,.23,.45,.34,.62,.05,.09,.11,.16,.16,.22,.05,.06,.09,.12,.13,.16,.07,.08,.12,.13,.12,.12Z"/></g></g><path class="cls-12" d="M69.39,19.92s-5.78,9.93-5.91,10.69c-.1,.57,.09,2.18,.61,2.39,1.45,.59,3.13-.09,4.66-1.15l.23-.16,.42-11.77Z"/><g><path class="cls-19" d="M94.83,18.53s-.91-.53-1.12,.94c-.22,1.47-1.7,12.23-1.7,12.23l-9.25-.09s-1.95-.07-3.28,3.91c-.93,2.79-1.87,12.26-1.87,12.26l.18,6.86h16.72s.52-14.38,.6-20.78c.09-6.39,.27-13.37-.27-15.33Z"/><path class="cls-21" d="M94,18.43s-.02,.02-.05,.04c-.03,.03-.08,.07-.14,.14-.11,.13-.25,.36-.28,.69-.08,.67-.2,1.64-.34,2.84-.3,2.41-.71,5.76-1.18,9.55v.04s-.04,0-.04,0c-.62-.01-1.27-.03-1.93-.04-2.09-.03-4.07-.05-5.88,0-.45,.01-.89,.03-1.32,.07-.11,0-.21,.02-.32,.03-.1,.01-.21,.03-.31,.04-.21,.01-.39,.1-.55,.21-.32,.24-.57,.55-.78,.86-.22,.31-.4,.62-.57,.93-.65,1.23-1.03,2.3-1.26,3.05-.11,.37-.18,.67-.21,.87-.02,.1-.02,.18-.02,.23,0,.05,0,.08,0,.08,0,0,0-.03,0-.08,0-.05,0-.13,.02-.23,.03-.21,.09-.5,.2-.88,.11-.38,.26-.83,.46-1.35,.2-.52,.45-1.1,.78-1.72,.16-.31,.35-.63,.56-.94,.22-.31,.47-.63,.8-.88l.13-.08s.09-.05,.14-.07c.05-.02,.1-.03,.15-.05,.05-.01,.1-.02,.15-.02,.1-.01,.21-.03,.31-.04,.11,0,.21-.02,.32-.03,.43-.04,.87-.05,1.32-.07,1.81-.06,3.8-.04,5.88-.01,.66,.01,1.31,.03,1.93,.04l-.04,.04c.48-3.78,.9-7.13,1.21-9.54,.16-1.2,.28-2.16,.37-2.83,.03-.34,.18-.57,.3-.7,.12-.13,.2-.17,.2-.17Z"/><path class="cls-21" d="M81.89,32.43s.02,0,.06,.01c.04,0,.1,.02,.18,.03,.15,.03,.38,.09,.66,.21,.28,.11,.6,.3,.92,.58,.17,.13,.31,.31,.47,.49,.07,.1,.14,.2,.21,.31,.02,.03,.04,.05,.05,.08l.04,.09c.03,.06,.06,.12,.09,.18,.03,.06,.06,.12,.09,.18,.03,.06,.05,.13,.07,.19,.05,.13,.1,.27,.14,.4,.06,.29,.15,.58,.17,.89,.02,.16,.04,.32,.05,.48,0,.16,0,.33,0,.5,.01,.34-.02,.68-.03,1.04-.06,1.42-.17,2.98-.29,4.62-.14,1.85-.3,3.59-.46,5.13l.04-.03c-2,.02-3.69,.03-4.88,.04-.59,0-1.06,.01-1.38,.02-.16,0-.28,0-.37,0-.04,0-.07,0-.09,0-.02,0-.03,0-.03,0,0,0,.01,0,.03,0,.02,0,.06,0,.09,0,.09,0,.21,0,.37,0,.33,0,.79,0,1.38,0,1.19,0,2.88,0,4.88-.01h.03s0-.03,0-.03c.16-1.53,.32-3.28,.47-5.13,.13-1.64,.23-3.2,.29-4.63,0-.36,.04-.7,.03-1.04,0-.17,0-.34,0-.5,0-.16-.04-.32-.05-.48-.02-.32-.11-.61-.18-.9-.04-.14-.1-.28-.15-.41-.03-.07-.05-.13-.08-.2-.03-.06-.06-.12-.1-.18-.03-.06-.06-.12-.09-.18l-.05-.09s-.04-.05-.06-.08c-.07-.11-.15-.21-.22-.31-.16-.18-.31-.36-.48-.49-.33-.28-.66-.46-.94-.57-.28-.12-.51-.17-.67-.2-.08-.01-.14-.02-.18-.03-.04,0-.06,0-.06,0Z"/><path class="cls-21" d="M81.99,54.73s.04-1.49,.04-3.33-.02-3.33-.04-3.33-.04,1.49-.04,3.33,.02,3.33,.04,3.33Z"/></g><g><g><path class="cls-15" d="M61.21,25.72l9.41,.85c.09,0,.16,.07,.19,.15l2.09,6.72c.02,.07,.07,.12,.13,.14l3.61,.98c.08,.03,.14,.11,.14,.2,0,.14-.13,.25-.27,.22l-3.89-.82-8.75-1.09c-.08,0-.15-.06-.18-.14l-2.73-6.91c-.06-.15,.06-.31,.22-.29Z"/><path class="cls-21" d="M61.21,25.72s-.03,0-.08,0c-.05,.01-.14,.07-.16,.18-.01,.06,.02,.12,.04,.18,.02,.06,.05,.13,.08,.21,.06,.15,.12,.32,.2,.51,.3,.78,.74,1.9,1.29,3.31,.28,.7,.58,1.48,.91,2.31,.04,.1,.08,.21,.12,.32l.06,.16c.02,.05,.06,.12,.11,.15,.03,.02,.06,.03,.09,.03h.09s.18,.03,.18,.03c.12,.01,.24,.03,.35,.04,.48,.06,.97,.12,1.47,.19,2.02,.25,4.27,.54,6.66,.84h0c.66,.14,1.34,.28,2.02,.43,.34,.07,.69,.15,1.04,.22,.17,.04,.35,.07,.52,.11l.26,.06s.1,.02,.15,.01c.05,0,.1-.04,.14-.07,.06-.06,.08-.15,.06-.24-.02-.08-.08-.15-.16-.18h0s0,0,0,0c-1.24-.34-2.44-.66-3.61-.98h0c-.06-.02-.1-.07-.12-.14l-.07-.21c-.04-.14-.09-.29-.13-.43-.09-.28-.18-.57-.26-.84-.17-.56-.35-1.11-.51-1.64-.34-1.07-.66-2.1-.96-3.07-.04-.12-.08-.24-.11-.36-.02-.06-.03-.12-.07-.18-.04-.06-.1-.11-.18-.12-.25-.02-.49-.04-.73-.07-.48-.04-.94-.08-1.39-.12-.89-.08-1.72-.15-2.48-.22-1.51-.13-2.71-.24-3.54-.31-.41-.03-.73-.06-.95-.08-.11,0-.19-.01-.25-.02-.06,0-.08,0-.08,0,0,0,.03,0,.08,.01,.06,0,.14,.01,.25,.03,.22,.02,.54,.05,.95,.09,.83,.08,2.04,.19,3.54,.33,.75,.07,1.58,.15,2.48,.23,.45,.04,.91,.08,1.39,.13,.24,.02,.48,.04,.73,.07,.05,0,.1,.04,.13,.08,.02,.04,.04,.11,.06,.17,.04,.12,.07,.24,.11,.36,.3,.97,.62,2,.95,3.08,.17,.54,.34,1.08,.51,1.64,.09,.28,.17,.56,.26,.84,.04,.14,.09,.28,.13,.43l.07,.22c.02,.08,.08,.16,.17,.19h0s0,0,0,0c1.17,.32,2.38,.65,3.61,.98h0c.05,.02,.1,.07,.11,.12,.01,.06,0,.12-.04,.16-.03,.03-.06,.04-.09,.05-.04,0-.07,0-.12-.01l-.26-.06c-.17-.04-.35-.07-.52-.11-.35-.07-.69-.15-1.04-.22-.69-.15-1.36-.29-2.02-.43h0s0,0,0,0c-2.39-.3-4.64-.58-6.66-.83-.51-.06-1-.12-1.47-.18-.12-.01-.24-.03-.35-.04l-.18-.02c-.06,0-.12,0-.16-.04-.04-.03-.07-.06-.09-.12l-.06-.16c-.04-.11-.08-.21-.13-.32-.33-.83-.64-1.61-.92-2.31-.56-1.4-1.01-2.53-1.31-3.3-.08-.19-.15-.36-.21-.51-.03-.07-.06-.14-.08-.2-.03-.06-.05-.12-.04-.17,.01-.11,.09-.16,.14-.18,.05-.02,.08,0,.08-.01Z"/></g><path class="cls-21" d="M70.27,26.54s0,.03,.02,.08c.02,.06,.04,.13,.06,.22,.05,.19,.13,.48,.24,.82,.2,.69,.5,1.64,.84,2.69,.33,1.04,.64,1.99,.86,2.68,.11,.33,.2,.61,.26,.81,.03,.09,.05,.16,.07,.22,.02,.05,.03,.08,.03,.08,0,0,0-.03-.02-.08-.02-.06-.04-.13-.06-.22-.05-.19-.13-.48-.24-.82-.2-.69-.5-1.64-.84-2.69-.33-1.04-.64-1.99-.86-2.68-.11-.33-.2-.61-.26-.81-.03-.09-.05-.16-.07-.22-.02-.05-.03-.08-.03-.08Z"/><path class="cls-2" d="M66.65,29.28c.14,0,.24,.03,.37,.17,.09,.1,.16,.24,.1,.37-.04,.09-.14,.14-.24,.15-.1,0-.2-.02-.28-.07-.12-.07-.22-.18-.23-.32,0-.14,.12-.3,.28-.3Z"/></g><path class="cls-21" d="M67.81,26.26s.03-.07,.08-.2c.05-.14,.11-.33,.18-.55,.15-.46,.37-1.1,.64-1.79,.26-.69,.52-1.31,.72-1.76,.09-.21,.17-.39,.23-.53,.05-.13,.08-.2,.08-.2s-.04,.06-.1,.18c-.06,.12-.15,.3-.25,.52-.21,.44-.48,1.06-.74,1.76-.26,.7-.48,1.34-.61,1.8-.07,.23-.12,.42-.16,.56-.03,.13-.05,.21-.04,.21Z"/></g></g></g></g></g></svg>