<?xml version="1.0" encoding="UTF-8"?>
<svg id="Layer_2" data-name="Layer 2" xmlns="http://www.w3.org/2000/svg" viewBox="0 0 500 500">
  <defs>
    <style>
      .cls-1 {
        fill: #9decff;
      }

      .cls-2 {
        fill: #fff;
      }

      .cls-3 {
        fill: #ffbf9d;
      }

      .cls-4 {
        fill: #ff9a6c;
      }

      .cls-5 {
        fill: #e1e1e1;
      }

      .cls-6 {
        isolation: isolate;
      }

      .cls-6, .cls-7 {
        opacity: .3;
      }

      .cls-8 {
        opacity: .6;
      }

      .cls-9 {
        fill: #375a64;
      }

      .cls-10 {
        fill: #f5d84d;
      }

      .cls-11 {
        fill: #1a2e35;
      }
    </style>
  </defs>
  <g id="Layer_1-2" data-name="Layer 1">
    <g>
      <circle class="cls-1" cx="250" cy="250" r="250"/>
      <g id="Layer_1-2" data-name="Layer 1-2">
        <g>
          <path class="cls-11" d="m231.12,113.99c-5.15,3.31-11.31,5.04-17.48,4.99-1.94,0-3.92-.25-5.86-.05-1.94.15-3.92.76-5.35,2.09-1.43,1.32-2.14,3.52-1.38,5.35,1.12,2.55,4.69,3.52,5.2,6.22.41,1.94-1.07,3.82-2.7,4.94s-3.57,1.89-4.94,3.31c-1.63,1.73-2.29,4.33-1.63,6.62.66,2.29,2.65,4.13,4.94,4.64,1.38.31,3.11.31,3.87,1.53.51.87.36,1.94.2,2.9-.25,2.09-.15,4.28.82,6.16.97,1.89,2.9,3.31,5.04,3.26.82,0,1.63-.25,2.45-.25s1.73.41,1.99,1.17c.15.56,0,1.12-.1,1.68-.31,2.75,2.45,4.89,5.09,5.71,5.3,1.58,11.26.05,15.74-3.21s7.64-8.1,9.73-13.25,3.21-10.6,4.33-16.05"/>
          <g>
            <path class="cls-10" d="m290.58,251.5c-.51-1.48-1.53-2.75-2.65-3.92-7.03-7.49-17.68-11.06-27.97-10.5-10.24.56-20.07,5.04-28.07,11.51-4.28,3.46-9.99,10.09-11.46,15.39,6.27,1.53,15.59-.61,21.45-3.16,5.91-2.55,11.72-5.66,18.09-6.32,7.39-.76,14.67,1.89,21.96,3.36,1.48.31,2.96.56,4.43.36s2.96-.87,3.77-2.14c.87-1.32.92-3.06.36-4.59h.1Z"/>
            <g class="cls-7">
              <path d="m290.58,251.5c-.51-1.48-1.53-2.75-2.65-3.92-7.03-7.49-17.68-11.06-27.97-10.5-10.24.56-20.07,5.04-28.07,11.51-4.28,3.46-9.99,10.09-11.46,15.39,6.27,1.53,15.59-.61,21.45-3.16,5.91-2.55,11.72-5.66,18.09-6.32,7.39-.76,14.67,1.89,21.96,3.36,1.48.31,2.96.56,4.43.36s2.96-.87,3.77-2.14c.87-1.32.92-3.06.36-4.59h.1Z"/>
            </g>
            <g>
              <g>
                <path class="cls-10" d="m285.43,340.66l17.83-11.57s17.73,14.27,21.25,12.43l-21.14-35.36-28.53,16.86,10.6,17.63Z"/>
                <path class="cls-5" d="m295.21,319.11c-.2-.82.25-1.73,1.07-1.99.76-.25,1.73.25,1.99,1.02.25.82-.31,1.94-1.12,2.09s-1.89-.46-1.94-1.27"/>
                <g class="cls-8">
                  <path class="cls-2" d="m303.37,306.17l-2.8,1.83,21.35,33.22s1.63,1.17,2.65.31l-21.14-35.36h-.05Z"/>
                </g>
                <path class="cls-11" d="m303.47,329.81s-.25-1.02-.2-2.19c0-1.17.51-2.09.36-2.19-.15-.15-1.02.71-1.02,2.19s.76,2.34.92,2.24l-.05-.05Z"/>
                <path class="cls-11" d="m307.19,332.61s0-.97.41-1.99c.36-1.02,1.07-1.63.92-1.83-.05-.2-1.17.31-1.58,1.58-.46,1.27.05,2.34.25,2.24Z"/>
                <path class="cls-11" d="m312.89,332.05s-1.07.1-1.73,1.12c-.71,1.02-.56,2.04-.41,2.04.2,0,.41-.82.97-1.63s1.27-1.32,1.17-1.48v-.05Z"/>
                <path class="cls-11" d="m299.09,332s-.61-.82-1.12-1.83c-.56-1.02-.66-1.94-.87-1.99-.2,0-.36,1.12.25,2.29.61,1.17,1.63,1.68,1.73,1.53Z"/>
              </g>
              <polygon class="cls-6" points="288.29 315.09 296.39 333.58 293.69 335.52 284.31 317.48 288.29 315.09"/>
            </g>
            <g>
              <path class="cls-11" d="m277.69,242.53c-.71,0-24.71-.51-37.65,8l-10.24,5.76.25,10.39s-2.19,3.67-1.73,5.86c.51,2.19-.05,11.46-.05,11.46,0,0-3.82.25-4.33,6.83,0,0-5.35,2.19-7.69,6.11s-26.29,47.89-27.77,54.97c-1.48,7.08-2.45,19.56,2.96,23.69,5.35,4.13,17.32,2.7,17.32,2.7,0,0,1.73,5.15,12.23,5.35,10.5.25,26.65-11.97,26.65-11.97l48.35-32.96-11.46-24.51-16.92,10.34,18.09-20.99s8.3-14.16,5.86-29.04c-1.83-11.06-13.91-32-13.91-32h.05Z"/>
              <path class="cls-9" d="m281.82,250.18h-8.15c-2.55,0-5.55.1-8.87.46s-6.93.97-10.55,2.19c-7.29,2.45-13.14,6.37-17.32,9.17-2.04,1.43-3.72,2.55-4.94,3.41-.56.36-.97.66-1.32.92-.31.2-.46.31-.51.31s.15-.15.41-.36c.36-.25.76-.61,1.27-1.02,1.12-.87,2.75-2.09,4.84-3.52,4.13-2.85,9.99-6.88,17.37-9.37,3.67-1.27,7.34-1.89,10.7-2.19,3.31-.31,6.37-.36,8.87-.36s4.59.1,6.01.15c.66,0,1.22.05,1.63.1.36,0,.56.05.56.05v.05Z"/>
              <path class="cls-9" d="m232.45,257.77s-.61.41-.76,1.43c-.05.46,0,1.07.51,1.53.46.41,1.22.66,1.89.41s1.07-.97,1.07-1.58c.05-.61-.31-1.17-.66-1.43-.82-.61-1.53-.41-1.53-.51,0,0,.15-.1.46-.15.31,0,.76,0,1.27.36.46.31.97.92.92,1.73,0,.76-.51,1.63-1.38,1.99s-1.83,0-2.34-.51c-.56-.56-.66-1.38-.56-1.89.15-.56.41-.92.66-1.12s.41-.25.41-.2l.05-.05Z"/>
              <path class="cls-9" d="m241.06,259.04s-.41-.2-.87-.71-1.12-1.22-1.38-2.34c-.25-1.07,0-2.04.2-2.7.2-.66.41-1.02.46-1.02s0,.46-.15,1.07c-.1.66-.31,1.58-.1,2.5s.82,1.68,1.17,2.19c.41.51.66.87.61.92l.05.1Z"/>
              <path class="cls-9" d="m243.09,257.77s-.36-.15-.82-.61c-.41-.46-.97-1.22-1.22-2.14-.51-1.89-.15-3.46-.05-3.46.15,0,0,1.58.51,3.31s1.68,2.8,1.58,2.9Z"/>
              <path class="cls-9" d="m268.98,250.18s-.1-.46-.15-1.12-.2-1.63-.56-2.6c-.41-.97-1.02-1.68-1.48-2.19s-.76-.82-.71-.87c0,0,.41.15.97.61.51.46,1.22,1.22,1.68,2.24.41,1.02.51,2.04.46,2.75,0,.71-.1,1.12-.15,1.12l-.05.05Z"/>
              <path class="cls-9" d="m272.13,250.07s-.1-.46-.05-1.12c0-.66.05-1.63-.2-2.6-.31-.92-.87-1.73-1.22-2.29s-.56-.97-.51-1.02c.05,0,.36.25.76.82s1.07,1.27,1.43,2.34c.31,1.07.15,2.09.1,2.75-.1.66-.2,1.12-.25,1.07l-.05.05Z"/>
              <path class="cls-9" d="m230.76,356.3s.1-.41.46-1.07c.31-.71.82-1.73,1.48-3.01,1.32-2.6,3.31-6.37,5.76-10.95,4.89-9.22,11.72-21.96,19.36-35.97,1.89-3.52,3.77-6.93,5.55-10.24,1.78-3.31,3.06-6.67,3.92-10.04,1.78-6.67,1.73-12.99.97-18.14-.76-5.15-2.29-9.17-3.46-11.82-.61-1.32-1.12-2.34-1.48-3.01-.15-.31-.31-.56-.41-.76-.1-.15-.15-.25-.1-.25,0,0,.05.1.15.25.1.2.25.46.46.76.41.66.92,1.68,1.53,3.01,1.22,2.65,2.8,6.62,3.62,11.82.82,5.15.87,11.57-.87,18.29-.87,3.36-2.14,6.78-3.97,10.14-1.78,3.31-3.67,6.73-5.55,10.24-7.59,14.01-14.47,26.7-19.46,35.92-2.45,4.59-4.48,8.3-5.86,10.9-.66,1.27-1.22,2.24-1.58,2.96-.15.31-.31.56-.41.76-.05.15-.1.25-.1.25v-.05Z"/>
              <path class="cls-9" d="m284.72,324.66s-.15.15-.51.36c-.41.25-.92.56-1.53.97-1.43.87-3.36,2.09-5.71,3.52-4.84,3.01-11.51,7.13-18.75,11.87-7.29,4.74-13.81,9.07-18.55,12.23-2.34,1.53-4.23,2.8-5.6,3.72-.61.41-1.12.76-1.53,1.02-.36.2-.56.36-.56.31,0,0,.15-.15.51-.41.36-.25.87-.61,1.48-1.07,1.32-.97,3.21-2.24,5.5-3.87,4.69-3.21,11.16-7.64,18.44-12.38,7.29-4.74,13.96-8.81,18.85-11.77,2.45-1.48,4.43-2.6,5.81-3.41.66-.36,1.17-.66,1.58-.92.36-.2.56-.31.56-.31v.15Z"/>
              <path class="cls-9" d="m292.26,341.27s-.2-.36-.46-.97c-.31-.71-.71-1.63-1.17-2.65-1.02-2.24-2.45-5.3-4.08-8.66-1.58-3.31-3.01-6.32-4.13-8.66-.46-1.02-.87-1.94-1.22-2.65-.31-.61-.41-.97-.41-1.02,0,0,.2.31.56.92s.82,1.48,1.38,2.55c1.12,2.19,2.65,5.2,4.28,8.61,1.63,3.36,3.01,6.47,3.92,8.76.46,1.12.82,2.09,1.02,2.7.2.66.31,1.02.25,1.02l.05.05Z"/>
              <path class="cls-9" d="m230.76,356.3s8.2-7.39,18.49-16.3c10.29-8.92,18.7-16.05,18.8-15.95s-8.2,7.39-18.49,16.35c-10.29,8.92-18.7,16.05-18.8,15.95v-.05Z"/>
              <path class="cls-9" d="m220.52,373.47s.97-.66,1.99-2.19c1.02-1.53,2.24-3.82,3.62-6.32s2.55-4.79,3.41-6.42c.87-1.68,1.38-2.7,1.48-2.65.05,0-.36,1.12-1.17,2.8-.76,1.68-1.94,4.03-3.31,6.52-1.38,2.5-2.65,4.74-3.77,6.27-.56.76-1.12,1.32-1.53,1.63s-.71.41-.71.41v-.05Z"/>
              <path class="cls-9" d="m229.29,376.12s.46-1.07,1.02-2.8,1.17-4.23,1.53-7.03c.31-2.8.31-5.35,0-7.18-.15-.92-.41-1.58-.61-2.04-.25-.41-.46-.66-.41-.71,0,0,.25.15.56.61.25.46.61,1.17.82,2.09.46,1.83.51,4.48.2,7.29-.36,2.85-1.02,5.35-1.68,7.08-.36.87-.66,1.58-.92,2.04s-.41.71-.46.66h-.05Z"/>
              <path class="cls-9" d="m219.15,361.91s.71-.25,1.83-.61c1.12-.31,2.7-.82,4.33-1.53,3.26-1.53,5.35-3.62,5.5-3.46,0,0-.46.61-1.38,1.38s-2.24,1.73-3.92,2.5c-1.68.76-3.26,1.17-4.43,1.43s-1.89.31-1.89.25l-.05.05Z"/>
              <path class="cls-9" d="m231.53,293.99s0,.05-.1.2c-.1.15-.25.31-.41.56-.36.46-.92,1.22-1.53,2.14-1.27,1.89-2.9,4.79-4.43,8.61s-2.9,8.51-4.28,13.76c-1.38,5.25-2.75,11.11-5.15,16.92-2.39,5.81-5.4,11.01-7.34,16.1-1.94,5.04-2.96,9.88-2.9,13.96,0,2.04.25,3.87.61,5.45.36,1.58.87,2.9,1.32,3.92s.87,1.83,1.22,2.34c.15.25.25.46.36.61.05.15.1.2.1.2,0,0-.05-.05-.15-.2s-.2-.36-.36-.56c-.36-.51-.76-1.27-1.27-2.29-.46-1.07-1.02-2.34-1.43-3.97-.41-1.58-.66-3.46-.71-5.5-.05-4.13.92-9.02,2.85-14.16,1.94-5.09,4.89-10.34,7.29-16.1,2.34-5.81,3.77-11.62,5.15-16.86,1.38-5.25,2.8-9.94,4.38-13.76,1.58-3.82,3.26-6.73,4.59-8.61.66-.97,1.22-1.63,1.58-2.09.2-.2.31-.41.46-.51.1-.1.15-.15.15-.15Z"/>
              <path class="cls-9" d="m233.11,264.49s-.15.41-.51,1.12c-.31.71-.71,1.83-.92,3.21s-.15,3.11.15,4.94c.31,1.83,1.07,3.77,1.58,5.91.25,1.07.36,2.19.25,3.21-.1,1.07-.25,2.04-.46,2.96-.41,1.83-.97,3.46-1.43,4.84s-.92,2.45-1.22,3.16c-.31.76-.46,1.17-.51,1.12,0,0,.1-.46.36-1.22.25-.87.61-1.94,1.07-3.21.41-1.38.92-3.01,1.32-4.84s.71-3.87.15-5.96c-.51-2.09-1.27-4.08-1.53-5.96-.31-1.89-.31-3.62-.05-5.04.25-1.43.71-2.55,1.07-3.26.2-.36.36-.61.46-.82.1-.15.2-.25.2-.25v.1Z"/>
              <path class="cls-9" d="m234.23,292.62s1.43-1.22,2.34-3.97c.46-1.38.76-3.06.71-4.94,0-1.89-.36-3.97-.76-6.16s-.87-4.23-1.02-6.16c-.15-1.94-.1-3.67.1-5.15.2-1.48.51-2.6.82-3.36.15-.36.31-.66.41-.87.1-.2.15-.31.2-.25,0,0-.15.41-.41,1.17-.25.76-.51,1.89-.66,3.36-.15,1.43-.15,3.16,0,5.04.15,1.89.66,3.97,1.07,6.11.41,2.19.76,4.28.76,6.22s-.36,3.72-.87,5.09-1.17,2.39-1.73,3.01c-.25.31-.51.51-.66.66-.15.15-.25.2-.25.2h-.05Z"/>
              <path class="cls-9" d="m257.97,285.23s-.41.1-1.12.2-1.78.25-3.06.46c-2.6.46-6.11,1.22-9.94,2.55-3.77,1.32-7.08,2.85-9.37,4.13-1.17.61-2.09,1.12-2.7,1.53-.66.36-1.02.56-1.02.51,0,0,.31-.25.92-.71.61-.41,1.53-1.02,2.65-1.68,2.29-1.32,5.6-2.96,9.43-4.28s7.44-2.09,10.04-2.45c1.32-.2,2.39-.31,3.11-.36.71,0,1.12-.05,1.17,0l-.1.1Z"/>
              <path class="cls-9" d="m259.45,275.04s-1.38.05-3.57.41c-1.07.15-2.39.46-3.77.87-1.38.46-2.85,1.02-4.38,1.83-1.48.76-2.8,1.68-3.97,2.55-1.12.92-2.09,1.78-2.85,2.6-1.53,1.58-2.29,2.75-2.34,2.7,0,0,.15-.31.51-.82.36-.51.87-1.27,1.63-2.09.71-.87,1.68-1.78,2.85-2.7,1.17-.92,2.5-1.83,4.03-2.65,1.53-.76,3.06-1.38,4.48-1.78,1.43-.41,2.75-.66,3.87-.82s2.04-.15,2.65-.15.97,0,.97.05h-.1Z"/>
              <path class="cls-9" d="m261.54,296.44s-.36.15-1.07.41c-.66.2-1.68.56-2.9,1.02-2.45.87-5.76,2.19-9.27,3.92-3.52,1.73-6.57,3.57-8.76,4.99-1.07.71-1.94,1.27-2.55,1.68s-.92.61-.97.61c0,0,.31-.31.87-.76s1.43-1.07,2.45-1.83c2.14-1.48,5.2-3.36,8.71-5.15,3.57-1.73,6.93-3.01,9.37-3.82,1.22-.41,2.24-.66,2.96-.87.71-.15,1.12-.25,1.12-.2h.05Z"/>
              <path class="cls-9" d="m291.04,271.98s-.31-.1-.92-.31c-.56-.2-1.43-.56-2.55-.92-2.19-.71-5.4-1.58-9.32-2.04l.25-.2c.1,4.03.1,8.81-.25,13.91-.41,5.5-1.12,10.6-1.99,14.78v-.1c1.07,3.52,2.19,6.37,3.11,8.3.46.97.87,1.68,1.12,2.19.31.51.46.76.41.76,0,0-.2-.2-.56-.71-.31-.46-.76-1.22-1.22-2.14-.97-1.94-2.14-4.74-3.26-8.3h0v-.1c.82-4.18,1.53-9.27,1.89-14.72.36-5.09.41-9.83.36-13.86v-.25h.25c3.97.51,7.18,1.43,9.37,2.24,1.07.41,1.94.76,2.5,1.02s.87.41.87.46h-.05Z"/>
              <path class="cls-9" d="m291.8,276.01s-.76-.15-1.99-.56c-1.22-.36-2.85-.82-4.74-1.27-3.72-.87-6.78-1.43-6.78-1.58,0-.05.76,0,2.04.2,1.22.2,2.96.46,4.84.92,3.77.87,6.62,2.14,6.57,2.29h.05Z"/>
              <path class="cls-9" d="m287.32,261.64s-1.12-.25-2.96-.66-4.38-.92-7.23-1.17-5.45-.2-7.34-.1-3.06.2-3.06.1c0,0,.31-.1.82-.2s1.27-.2,2.24-.25c1.89-.15,4.48-.25,7.39,0,2.85.25,5.45.76,7.23,1.32.92.25,1.63.51,2.14.66.51.2.76.31.76.36v-.05Z"/>
              <path class="cls-9" d="m268.26,265.87s-.41.15-1.22.41c-.82.2-1.99.46-3.46.71-2.96.51-7.08.97-11.67.56-2.24-.2-4.48-.46-6.27-1.58-.87-.56-1.53-1.27-1.94-2.14-.41-.82-.46-1.73-.36-2.5.25-1.48.71-2.65,1.07-3.41.36-.76.66-1.12.66-1.12,0,0-.2.41-.51,1.17-.31.76-.71,1.94-.87,3.36-.1.71,0,1.53.36,2.24.36.76,1.02,1.43,1.83,1.94,1.63,1.02,3.82,1.27,6.06,1.48,4.48.36,8.61,0,11.57-.46,1.48-.2,2.65-.41,3.46-.56s1.27-.25,1.27-.2v.1Z"/>
            </g>
          </g>
          <g>
            <g>
              <path class="cls-11" d="m265.87,98.3c-4.48-9.68-15.54-7.8-20.84-5.2-5.3,2.55-9.27,6.62-11.72,12.38-1.58,3.72-2.8,8-5.91,10.24-1.38.97-3.01,1.48-4.43,2.29-1.48.82-2.85,2.14-3.11,3.92-.46,3.21,2.75,5.45,5.5,6.78-1.63,1.12-2.04,3.62-1.48,5.6s1.89,3.62,3.21,5.15c3.97,4.74,11.11,10.5,16.2,13.71,5.09,3.16,8.41,3.57,13.91,1.27,2.24-.92,4.28-2.45,6.67-2.7,2.75-.31,5.4,1.12,8.1,1.68s6.16-.2,7.08-3.11c.36-1.12.2-2.29.36-3.46.15-1.17.71-2.39,1.73-2.65.87-.2,1.68.31,2.5.56,1.99.66,4.94,15.28,6.83,14.42,0,0,2.75-24.81-2.55-39.33-1.68-4.64-5.3-14.52-8.2-18.34-3.97-5.3-13.45-4.13-13.91-3.16"/>
              <g>
                <path class="cls-3" d="m260.21,99.87c-7.03-2.45-16.51,2.96-18.7,10.09-2.39,7.95-4.99,17.68-5.45,23.9-.92,12.53,7.95,16.2,7.95,16.2l-3.62,19.56,30.52-9.88,10.65-46.11.97-3.87-22.37-9.94.05.05Z"/>
                <path class="cls-11" d="m241.51,119.64c.1.25,1.58-.1,3.16.51,1.58.61,2.45,1.89,2.7,1.73.1-.05.05-.46-.31-1.07-.36-.56-1.07-1.27-2.04-1.63-1.02-.41-1.99-.36-2.6-.15-.66.2-.92.46-.87.61h-.05Z"/>
                <path class="cls-11" d="m257.31,123.77s1.43-.61,3.16-.46c1.68.1,2.9,1.07,3.11.87.1-.1-.05-.46-.61-.92-.51-.41-1.38-.87-2.45-.97-1.07-.05-1.99.25-2.55.61s-.76.71-.66.82v.05Z"/>
                <path class="cls-11" d="m250.23,130.8s-.97-.51-2.6-1.12c-.41-.15-.82-.31-.82-.61s.25-.76.56-1.17c.66-.92,1.32-1.94,2.04-2.96,2.85-4.18,4.99-7.69,4.79-7.8-.15-.1-2.6,3.21-5.45,7.39-.66,1.02-1.32,2.04-1.99,2.96-.25.46-.66.92-.61,1.63,0,.36.31.66.56.76.25.15.51.2.71.25,1.68.51,2.7.76,2.75.66h.05Z"/>
                <path class="cls-4" d="m244.06,150.16s8.41,2.5,17.58-.46c0,0-5.91,7.54-18.14,3.52,0,0,.56-3.06.56-3.06Z"/>
                <g>
                  <path class="cls-4" d="m249.31,136.35s.05.25,0,0h0Z"/>
                  <path class="cls-4" d="m254.76,135.54c-.36-.76-1.07-1.38-1.83-1.63-1.12-.41-2.39-.2-3.31.56-.56.61-.36,1.63-.31,1.89.61.76.66,1.38,1.48,1.83s2.9.15,3.57-.41c.61-.51.71-1.48.36-2.24h.05Z"/>
                </g>
                <path class="cls-11" d="m254.86,133.09c-.25-.1-.71,1.73-2.55,2.65s-3.72.25-3.82.51c-.05.1.36.46,1.17.66.82.2,2.04.25,3.16-.31,1.12-.56,1.78-1.53,2.04-2.24.25-.76.15-1.22,0-1.27Z"/>
                <path class="cls-11" d="m260.77,114.96c-.1.46,1.32.97,2.7,1.99,1.43.97,2.39,2.14,2.75,1.89.2-.15.15-.61-.1-1.27-.25-.66-.87-1.48-1.73-2.04-.87-.61-1.78-.87-2.45-.92-.71,0-1.17.15-1.22.36h.05Z"/>
                <path class="cls-11" d="m242.53,113.22c.36.36,1.63-.15,3.21-.36s2.96,0,3.21-.46c.1-.2-.15-.56-.76-.87s-1.58-.51-2.7-.41c-1.07.15-1.99.56-2.5,1.02-.51.46-.66.87-.51,1.02l.05.05Z"/>
                <path class="cls-11" d="m284.26,109.81c-.41-.97-1.43-1.58-2.34-2.09-6.06-3.31-12.38-6.27-18.8-8.76l-2.65,1.48c-.76,5.15,1.89,10.65,6.47,13.14,1.83,1.02,4.18,1.94,4.38,4.03.25,2.14-1.99,3.62-3.26,5.35-1.58,2.14-1.63,5.25-.2,7.44.82,1.27,2.04,2.24,2.8,3.52.97,1.73,1.02,3.92.25,5.76-.76,1.83-2.04,4.33-3.72,5.35,4.53,1.17,9.88-1.12,12.23-5.15,1.43-2.39,1.53-5.35,1.73-8.15.41-6.37,1.43-12.69,3.01-18.85.25-1.07.56-2.19.1-3.16v.1Z"/>
                <path class="cls-11" d="m263.58,99.26c-1.73,2.09-3.52,4.18-5.81,5.6-2.29,1.43-5.25,2.09-7.74,1.07.61-.71,1.27-1.38,1.89-2.09-4.48,3.06-9.58,5.15-14.88,6.16,3.36-4.08,6.78-8.2,11.36-10.85,4.59-2.65,10.55-3.41,15.03-.61"/>
              </g>
            </g>
            <path class="cls-11" d="m284.92,122.9l-14.27,11.06c1.63,1.78,1.02,6.32-.61,8.15-1.58,1.78-3.72,3.36-4.38,5.66-.71,2.55.66,5.2.71,7.85.05,3.77-2.45,6.93-4.38,10.14-1.94,3.21-3.36,7.49-1.17,10.55,2.45,3.46,7.95,2.96,11.31.36s5.25-6.52,7.74-9.94c2.5-3.41,6.37-6.01,10.55-5.6,1.38-12.74-.61-26.39-5.45-38.26l-.05.05Z"/>
            <path class="cls-11" d="m287.27,153.78s.76-.76,2.19-1.94,3.52-2.85,5.4-5.45c.92-1.27,1.78-2.8,2.39-4.59.61-1.73.97-3.72.87-5.71-.1-2.04-.82-4.08-1.94-5.96-1.17-1.89-2.8-3.62-4.74-5.09-3.82-2.96-8.36-4.69-12.43-6.47-4.08-1.73-7.74-3.57-10.44-5.76-2.75-2.14-4.43-4.43-5.3-6.11-.87-1.73-1.02-2.8-.87-2.85.2-.05.61.87,1.68,2.34s2.85,3.41,5.55,5.25c2.65,1.89,6.22,3.46,10.29,5.04,2.04.82,4.23,1.63,6.42,2.7,2.19,1.02,4.48,2.24,6.62,3.92,2.09,1.63,3.92,3.57,5.3,5.81,1.32,2.19,2.09,4.69,2.14,7.08.1,2.39-.41,4.64-1.17,6.57s-1.83,3.57-2.96,4.89c-2.24,2.7-4.59,4.23-6.22,5.2-1.63.92-2.65,1.27-2.75,1.12h-.05Z"/>
            <path class="cls-9" d="m287.57,120.15s-.46-.1-1.22-.41c-.76-.31-1.94-.71-3.31-1.32-2.75-1.17-6.57-2.9-10.19-5.81-3.62-2.9-5.91-6.62-6.78-9.48-.46-1.43-.61-2.65-.66-3.52v-1.32c.1,0,0,1.89.97,4.69.92,2.8,3.21,6.37,6.73,9.22s7.34,4.59,10.04,5.86c1.27.56,2.39,1.07,3.21,1.43.76.36,1.17.56,1.17.56l.05.1Z"/>
            <path class="cls-9" d="m287.98,134.37s.25-.56.36-1.63c.15-1.02,0-2.65-.76-4.38-.76-1.73-2.24-3.57-4.33-4.99-2.04-1.48-4.59-2.65-7.13-4.18-2.55-1.53-4.74-3.41-6.37-5.35-1.68-1.94-2.85-3.97-3.72-5.71-.82-1.78-1.32-3.26-1.58-4.33-.15-.51-.2-.92-.25-1.22,0-.25-.05-.41-.05-.41,0,0,.2.56.51,1.58.31,1.02.82,2.5,1.68,4.23.87,1.68,2.09,3.67,3.72,5.55,1.63,1.94,3.77,3.77,6.27,5.25s5.04,2.7,7.13,4.23c2.09,1.48,3.62,3.41,4.38,5.2.82,1.78.87,3.46.61,4.53-.1.56-.25.92-.36,1.22-.1.25-.2.41-.2.41h.1Z"/>
            <path class="cls-9" d="m209.21,124.84s0-.05.1-.15c.05-.1.15-.25.31-.41.31-.36.76-.82,1.58-1.17s1.89-.46,3.06-.51c1.22-.05,2.6-.15,4.13-.15s3.21,0,4.89-.46c1.73-.41,3.41-1.32,4.94-2.6s2.85-2.96,4.03-4.74c1.17-1.83,2.19-3.87,3.21-5.96s2.09-4.13,3.36-5.91c1.22-1.83,2.75-3.41,4.43-4.59,3.36-2.39,7.08-3.21,10.14-3.31,3.11-.1,5.55.61,7.13,1.27.41.15.71.31,1.02.46.25.15.51.31.71.41.41.2.61.36.56.36,0,0-.2-.1-.61-.25-.2-.1-.46-.2-.76-.36-.31-.1-.66-.25-1.07-.41-1.58-.61-4.03-1.22-7.03-1.07s-6.62.97-9.88,3.31c-1.63,1.17-3.06,2.7-4.28,4.48s-2.29,3.82-3.31,5.86c-1.02,2.09-2.04,4.13-3.26,5.96-1.22,1.83-2.55,3.52-4.13,4.84s-3.36,2.24-5.15,2.65-3.46.41-4.99.41-2.9,0-4.13.1c-1.22,0-2.24.15-3.01.46s-1.27.76-1.58,1.07-.46.51-.46.51l.05-.1Z"/>
          </g>
          <g>
            <path class="cls-3" d="m203.51,112.26c-5.6-14.16-13.04-28.02-14.11-38.62l-11.21.46c.25,4.08,1.68,38.11,9.63,51.51,7.9,13.45,34.34,44.89,34.34,44.89l9.32-23.95s-22.37-20.18-27.97-34.34v.05Z"/>
            <path class="cls-3" d="m184.91,51.68h-4.89s.46,2.9,2.7,3.06c2.24.15,1.78-.36,1.78-.36l-.51.46-3.06.61s.15,2.39,2.19,2.75l2.96-2.75s-1.17-3.77-1.17-3.77Z"/>
            <path class="cls-3" d="m198.26,51.27c-.46,3.67-.51,3.46-.51,3.46l-4.48,3.67-1.12-5.45c-.15-.71-.76-1.27-1.53-1.32l-2.04-.1s.82-2.8-1.78-2.6c0,0-1.43-.41-2.55,4.33-1.17,5.15-6.52,17.17-6.06,21.19l11.31.46c-.1-3.77,2.96-7.74,4.48-9.43.46-.51.82-1.12.97-1.78.15-.66.51-1.63,1.27-2.5,1.38-1.53,4.33-4.33,4.33-4.33v-8.61s-1.89-.61-2.34,2.96l.05.05Zm-9.12,8.25l-2.34,1.07.41-2.39,1.94-.2v1.53Z"/>
            <path class="cls-4" d="m186.74,60.8s0-.36.1-1.02c.1-.66.25-1.58.51-2.7.25-1.17.51-2.5.76-3.97.15-.76.36-1.53.41-2.34,0-.76-.31-1.63-1.12-1.68-.76-.15-1.43.51-1.78,1.17-.2.31-.31.71-.46,1.07-.1.36-.25.76-.36,1.12-.46,1.43-.87,2.75-1.22,3.87-.36,1.12-.71,1.99-.97,2.6-.25.61-.41.92-.46.92,0,0,.1-.36.31-.97.2-.61.51-1.48.82-2.6.31-1.17.71-2.45,1.12-3.92.1-.36.25-.76.36-1.12.1-.36.25-.82.46-1.17.2-.36.51-.76.87-1.02.36-.31.92-.46,1.43-.36.25,0,.46.1.71.25.2.15.41.36.51.56.2.41.31.92.31,1.32,0,.87-.25,1.63-.41,2.39-.31,1.48-.61,2.8-.87,3.97-.25,1.12-.46,2.04-.66,2.65-.15.61-.25.97-.31.97h-.05Z"/>
            <path class="cls-4" d="m189.04,59.52s0-1.27-.15-2.75c0-.36-.05-.71-.1-1.07,0-.36-.05-.56-.2-.66-.31-.25-.71-.25-.66-.31l.2-.1c.15,0,.36,0,.66.1.31.15.41.56.46.92.05.36.1.71.15,1.07.1,1.58-.2,2.8-.36,2.8Z"/>
            <path class="cls-4" d="m194.59,57.43s-.31.41-.92.97c-.61.51-1.53,1.22-2.65,1.73-1.17.56-2.29.66-3.11.71s-1.32,0-1.32,0c0-.05.51-.15,1.27-.31s1.89-.36,2.96-.82c1.07-.51,1.99-1.12,2.65-1.58.66-.46,1.07-.71,1.12-.66v-.05Z"/>
          </g>
          <g>
            <path class="cls-3" d="m283.45,163.61s12.58-.36,20.13-2.6c7.54-2.24,36.48-9.12,36.48-9.12l46.41-7.74.92,12.02s-43.1,12.58-51.51,15.49c-8.36,2.85-46.67,16-53.9,14.32l-4.48-9.22,5.96-13.09v-.05Z"/>
            <g>
              <path class="cls-3" d="m408.73,130.04c-.76-.15-4.53,1.53-4.53,1.53,1.27-1.58.1-3.11.1-3.11l-5.15,2.55s-2.6,2.65-4.33,3.92c-1.68,1.27-6.47,6.78-6.57,7.13l-3.06,2.85,1.94,11.36s2.45.2,4.03-.51c1.58-.76,3.92-3.72,3.92-3.72l4.38-.36c.51,0,1.02-.2,1.38-.56,1.32-1.12,1.12-3.01,1.12-3.01,2.75-1.58,1.17-3.62,1.17-3.62,0,0,1.58-.2,2.24-1.22.56-.87.41-1.53-.15-2.45-.51-.97-4.59-.66-4.59-.66l-.2-1.17s6.16-4.89,7.54-5.96c1.38-1.07,1.43-2.8.71-2.96l.05-.05Z"/>
              <path class="cls-4" d="m404.3,131.46s-.51,1.07-1.89,2.24c-.66.61-1.53,1.32-2.24,2.19-.76.87-1.27,2.09-1.63,3.41-.41,1.32-.82,2.6-1.38,3.67s-1.27,1.94-1.89,2.65c-.61.66-1.22,1.17-1.63,1.43-.41.31-.66.41-.66.41-.05-.05.87-.71,2.04-2.09.56-.66,1.22-1.58,1.73-2.6.56-1.07.92-2.29,1.32-3.62.41-1.32.92-2.6,1.78-3.57.82-.92,1.68-1.58,2.39-2.19,1.43-1.12,2.09-2.04,2.14-1.99l-.1.05Z"/>
              <path class="cls-4" d="m402.06,148.02s-.71.51-2.09.97c-.66.2-1.48.46-2.45.51h-1.48c-.51-.05-1.07-.2-1.58-.56-.46-.36-.82-.92-.82-1.53.1-.66.51-1.02.82-1.38.36-.31.82-.61,1.22-.66.41-.1.76-.2,1.12-.25,1.38-.31,2.24-.36,2.24-.25,0,.05-.82.2-2.19.61-.36.1-.71.2-1.07.31-.41.1-.71.31-1.02.61-.31.31-.61.71-.66,1.07,0,.41.2.87.61,1.12.76.56,1.89.51,2.75.51.92,0,1.73-.2,2.39-.41,1.32-.36,2.14-.71,2.14-.66h.05Z"/>
              <path class="cls-4" d="m403.23,144.46s-.56.31-1.58.46c-.51.1-1.12.15-1.78.15s-1.58-.1-2.14-.82c-.56-.76-.41-1.68-.1-2.29.36-.66.92-1.02,1.38-1.27.97-.46,1.58-.51,1.58-.46,0,.1-.61.25-1.43.76-.41.25-.87.61-1.12,1.17-.25.56-.36,1.27.05,1.83.41.51,1.17.66,1.78.66h1.73c1.02-.1,1.63-.2,1.63-.15v-.05Z"/>
              <path class="cls-4" d="m400.22,151.44s-.51.2-1.27.41c-.82.2-1.94.46-3.26.41-.31,0-.76-.1-1.02-.41s-.31-.66-.31-.97c0-.66.41-1.12.76-1.38.82-.51,1.43-.2,1.38-.15,0,.1-.56,0-1.17.46-.31.25-.56.66-.56,1.12,0,.2.05.46.2.66.15.15.36.2.66.25,1.22.05,2.34-.15,3.16-.25.82-.1,1.32-.15,1.38-.05l.05-.1Z"/>
            </g>
          </g>
          <g>
            <path class="cls-10" d="m262.1,203.46s-.31.2-.87.51-1.48.66-2.6.97c-2.24.66-5.5,1.12-9.07.46-3.52-.66-6.42-2.29-8.25-3.77-.92-.71-1.58-1.38-1.99-1.89s-.61-.76-.61-.82c.05-.05.97,1.07,2.85,2.45,1.83,1.38,4.69,2.9,8.1,3.57,3.41.66,6.67.31,8.87-.31,2.24-.56,3.52-1.22,3.57-1.17Z"/>
            <path class="cls-10" d="m240.85,168.91s29.6-9.48,30.67-9.73c1.12-.31,27.21,2.04,27.21,2.04,0,0-1.12,17.27,5.5,22.88h0l-19.21,6.93-6.06,16.66s-3.36,6.78-.71,13.14c5.09,12.08,13.91,31.08,12.58,33.22-.15.2-.92-6.57-13.45-10.14-3.77-1.07-10.7-1.07-16.92.15-26.85,5.4-37.19,17.78-40.25,19.92,0,0,5.5-43.36,2.9-50.13-2.6-6.78-5.35-11.16-3.21-17.22,2.14-6.01,5.4-15.64,5.4-15.64l-10.55-11.97,14.78-24.56,13.5,11.21s-2.19,13.25-2.19,13.25Z"/>
            <path class="cls-11" d="m250.69,209.06s-.36.05-1.02,0c-.66,0-1.58-.1-2.75-.36-2.29-.46-5.4-1.73-8.05-4.23s-4.03-5.6-4.53-7.9c-.25-1.17-.36-2.09-.36-2.75v-1.02c.1,0,.05,1.48.66,3.67.61,2.19,1.99,5.2,4.53,7.59s5.6,3.72,7.8,4.23c2.24.56,3.72.56,3.67.66l.05.1Z"/>
            <path class="cls-11" d="m222.92,172.43s1.63,1.99,2.04,5.09c.46,3.11-.41,5.55-.51,5.45-.15,0,.46-2.45,0-5.4-.41-2.96-1.73-5.09-1.58-5.15h.05Z"/>
            <path class="cls-11" d="m285.69,177.52s-.61.51-1.53,1.38c-.92.87-1.99,2.19-2.75,3.92-.76,1.73-1.02,3.46-1.07,4.69,0,1.22.1,2.04,0,2.04,0,0-.31-.76-.41-2.04-.05-1.27.15-3.11.97-4.89.82-1.78,1.99-3.16,2.96-3.97s1.73-1.17,1.73-1.12h.1Z"/>
            <g class="cls-7">
              <path d="m246.3,208.4c-3.21-.71-5.09-1.89-7.39-4.18-1.27-1.22-2.34-2.65-3.21-4.43-.66,2.96,3.41,8.15,7.39,10.04,3.97,1.94,8.97,1.78,12.84-.36-3.31-.1-6.37-.36-9.63-1.07Z"/>
            </g>
            <path class="cls-2" d="m282.53,229.9s-.76-.51-2.29-1.22c-1.53-.66-3.92-1.38-6.93-1.43s-6.57.56-10.24,2.09c-3.67,1.53-7.39,3.87-11.21,6.42-7.59,5.25-15.08,9.12-20.69,11.46-2.8,1.17-5.09,2.04-6.67,2.6-.82.31-1.43.46-1.83.61s-.66.2-.66.15.2-.1.61-.25c.46-.15,1.07-.41,1.83-.71,1.58-.61,3.87-1.53,6.62-2.75,5.55-2.45,12.94-6.32,20.53-11.57,3.82-2.55,7.59-4.94,11.31-6.47s7.39-2.09,10.44-1.99c3.06.1,5.45.87,6.98,1.63,1.53.76,2.24,1.38,2.24,1.38l-.05.05Z"/>
            <path class="cls-2" d="m277.18,214.41s-.56-.61-1.78-1.38-3.21-1.63-5.76-1.83c-2.6-.2-5.66.36-8.87,1.63-3.21,1.27-6.52,3.11-10.04,4.99-3.52,1.89-6.88,3.62-10.14,4.89-3.21,1.27-6.27,2.04-8.87,2.39-2.6.36-4.74.25-6.22.1-.71-.1-1.27-.2-1.68-.25-.36-.1-.56-.15-.56-.15,0,0,.82.1,2.24.2s3.57.15,6.11-.25c2.55-.36,5.55-1.17,8.76-2.45s6.57-3.01,10.04-4.89c3.52-1.89,6.83-3.72,10.09-4.99,3.21-1.27,6.42-1.83,9.02-1.58,2.65.25,4.64,1.17,5.86,1.99,1.22.87,1.68,1.53,1.68,1.53l.1.05Z"/>
            <path class="cls-2" d="m237.69,202.64s-.2.2-.61.51c-.2.15-.46.31-.76.51-.31.15-.66.41-1.07.56-.82.41-1.78.76-2.96,1.02-1.12.25-2.45.46-3.77.51-1.38,0-2.65-.15-3.82-.36-1.17-.25-2.14-.56-2.96-.97-.41-.15-.76-.36-1.07-.51s-.56-.31-.76-.46c-.41-.25-.61-.46-.61-.46,0-.1.97.51,2.6,1.12.82.31,1.78.61,2.96.82,1.12.2,2.39.36,3.72.31,1.32,0,2.6-.2,3.72-.46,1.12-.25,2.09-.56,2.9-.92,1.63-.66,2.5-1.27,2.55-1.22h-.05Z"/>
            <path class="cls-2" d="m281.61,200.25s-.1.1-.36.31c-.25.2-.66.46-1.17.76-1.07.56-2.75,1.22-4.89,1.43-2.14.2-4.79,0-7.54-.71-2.75-.66-5.71-1.78-8.87-2.65-6.27-1.78-12.33-1.68-16.51-1.07-2.09.31-3.82.71-4.94,1.02-1.17.31-1.78.51-1.78.46,0,0,.15-.1.46-.2s.71-.31,1.32-.46c1.12-.36,2.85-.82,4.94-1.17,4.23-.71,10.34-.87,16.71.92,3.16.92,6.06,1.99,8.81,2.7,2.75.71,5.25.97,7.39.76,2.14-.15,3.77-.71,4.84-1.22,1.07-.51,1.58-.92,1.63-.92l-.05.05Z"/>
            <path class="cls-2" d="m280.85,186.23s-.2,0-.61.1c-.41,0-.97.1-1.73.15-1.48,0-3.72,0-6.37-.46-2.65-.41-5.76-1.22-9.17-2.14s-7.18-1.94-11.21-2.34c-1.02,0-2.04-.15-3.01-.1h-1.48c-.46.05-.97.1-1.43.15-1.89.25-3.67.76-5.35,1.32-3.31,1.17-6.22,2.55-8.76,3.41s-4.69,1.27-6.22,1.38c-.76.05-1.32,0-1.73,0s-.61,0-.61-.05h.61c.41,0,.97,0,1.73-.1,1.48-.15,3.62-.56,6.11-1.53,2.5-.92,5.4-2.29,8.76-3.46,1.68-.61,3.46-1.12,5.4-1.38.46-.05.97-.1,1.48-.15.51,0,.97,0,1.48-.05,1.02-.05,2.04.05,3.06.1,4.13.41,7.9,1.43,11.31,2.39,3.41.97,6.47,1.78,9.12,2.24,2.65.51,4.79.56,6.27.61.71,0,1.27-.05,1.73-.05h.61v-.05Z"/>
            <path class="cls-2" d="m290.17,161.17s-.87,1.43-1.78,3.87c-.92,2.45-1.58,6.16-.92,10.09.71,3.97,2.6,7.18,4.23,9.22,1.68,2.04,3.01,3.06,2.96,3.11,0,0-.36-.2-.97-.66-.56-.46-1.38-1.22-2.24-2.24-1.73-1.99-3.72-5.3-4.43-9.37-.71-4.08.05-7.85,1.07-10.29.51-1.22,1.02-2.19,1.43-2.85.41-.61.66-.97.66-.92v.05Z"/>
            <path class="cls-2" d="m240.85,164.07s-.31.1-.82.2c-.56.1-1.32.2-2.29.25-.97,0-2.19,0-3.46-.25-1.27-.31-2.65-1.02-3.72-2.09-1.07-1.07-1.89-2.24-2.75-3.21-.82-.97-1.68-1.73-2.5-2.19-1.68-1.02-2.96-.76-2.96-.87,0,0,.31-.1.87-.1s1.38.2,2.24.66c.87.46,1.83,1.22,2.7,2.19s1.68,2.14,2.75,3.16c1.02,1.02,2.24,1.73,3.46,2.04,1.22.31,2.39.36,3.31.36,1.94,0,3.16-.15,3.16-.1v-.05Z"/>
          </g>
          <path class="cls-11" d="m238.97,448.83s-.25-9.78-.25-21.91.1-21.91.25-21.91.25,9.78.25,21.91-.1,21.91-.25,21.91Z"/>
          <path class="cls-11" d="m243.09,437.57s-.25-9.78-.25-21.91.1-21.91.25-21.91.25,9.78.25,21.91-.1,21.91-.25,21.91Z"/>
        </g>
      </g>
    </g>
  </g>
</svg>