<?xml version="1.0" encoding="UTF-8"?>
<svg id="Layer_2" data-name="Layer 2" xmlns="http://www.w3.org/2000/svg" viewBox="0 0 500 500">
  <defs>
    <style>
      .cls-1 {
        fill: #2fa7e0;
      }

      .cls-2 {
        fill: #9decff;
      }

      .cls-3, .cls-4 {
        fill: #fff;
      }

      .cls-5 {
        fill: #aeb1b2;
      }

      .cls-6 {
        fill: #606365;
      }

      .cls-7 {
        fill: #f5f5f5;
      }

      .cls-8 {
        fill: #ffbf9d;
      }

      .cls-9 {
        fill: #707274;
      }

      .cls-10 {
        fill: #ff9a6c;
      }

      .cls-11 {
        fill: #f4d862;
      }

      .cls-12 {
        fill: #cfd1d2;
      }

      .cls-13 {
        fill: #3e4042;
      }

      .cls-14 {
        fill: #e1e1e1;
      }

      .cls-15 {
        opacity: .3;
      }

      .cls-16 {
        opacity: .6;
      }

      .cls-17 {
        fill: #beeafc;
      }

      .cls-18 {
        fill: #808285;
      }

      .cls-19 {
        fill: #375a64;
      }

      .cls-4 {
        isolation: isolate;
        opacity: .4;
      }

      .cls-20 {
        fill: #bec0c2;
      }

      .cls-21 {
        fill: #1a2e35;
      }
    </style>
  </defs>
  <g id="Layer_1-2" data-name="Layer 1">
    <g>
      <circle class="cls-2" cx="250" cy="250" r="250"/>
      <g id="Layer_2-2" data-name="Layer 2">
        <g id="Layer_1-2" data-name="Layer 1-2">
          <g>
            <g>
              <path class="cls-9" d="m60.19,125.62h297.11c3.21,0,5.81,2.6,5.81,5.81v182.16c0,3.21-2.6,5.81-5.81,5.81H60.23c-3.21,0-5.81-2.6-5.81-5.81v-182.2c0-3.17,2.6-5.77,5.77-5.77Z"/>
              <path class="cls-13" d="m357.29,320.02H60.23c-3.54,0-6.43-2.88-6.43-6.39v-182.25c0-3.5,2.88-6.39,6.43-6.39h297.07c3.54,0,6.39,2.88,6.39,6.39v182.25c0,3.54-2.88,6.39-6.39,6.39ZM60.23,126.24c-2.88,0-5.19,2.31-5.19,5.15v182.25c0,2.84,2.31,5.19,5.19,5.19h297.07c2.84,0,5.19-2.31,5.19-5.19v-182.25c0-2.84-2.31-5.19-5.19-5.19H60.23v.04Z"/>
            </g>
            <g>
              <path class="cls-5" d="m60.19,132.58h297.11c3.21,0,5.81,2.6,5.81,5.81v182.16c0,3.21-2.6,5.81-5.81,5.81H60.19c-3.21,0-5.81-2.6-5.81-5.81v-182.2c.04-3.17,2.64-5.77,5.81-5.77Z"/>
              <path class="cls-6" d="m357.29,326.99H60.23c-3.54,0-6.43-2.88-6.43-6.43v-182.2c0-3.54,2.88-6.39,6.43-6.39h297.07c3.54,0,6.39,2.88,6.39,6.39v182.2c0,3.54-2.88,6.43-6.39,6.43ZM60.23,133.16c-2.88,0-5.19,2.35-5.19,5.19v182.2c0,2.84,2.31,5.19,5.19,5.19h297.07c2.84,0,5.19-2.31,5.19-5.19v-182.2c0-2.84-2.31-5.19-5.19-5.19H60.23Z"/>
            </g>
            <path class="cls-12" d="m358.04,314.46c0,3.05-2.51,5.52-5.61,5.52H65.09c-3.09,0-5.61-2.47-5.61-5.52v-173.92c0-3.05,2.51-5.52,5.61-5.52h287.34c3.09,0,5.61,2.47,5.61,5.52v173.92Z"/>
            <g>
              <path class="cls-3" d="m357.54,290.55v-148.49c0-2.88-2.47-5.23-5.56-5.23H66.16c-3.09,0-5.56,2.35-5.56,5.23v148.49h296.94Z"/>
              <path class="cls-20" d="m357.54,291.17H60.6c-.33,0-.62-.29-.62-.62v-148.49c0-3.21,2.76-5.85,6.18-5.85h285.77c3.42,0,6.18,2.64,6.18,5.85v148.49c0,.33-.29.62-.62.62h.04Zm-296.32-1.24h295.71v-147.87c0-2.56-2.23-4.62-4.95-4.62H66.16c-2.72,0-4.95,2.06-4.95,4.62,0,0,0,147.87,0,147.87Z"/>
            </g>
            <g>
              <path class="cls-3" d="m357.54,290.55v-148.49c0-2.88-2.47-5.23-5.56-5.23H66.16c-3.09,0-5.56,2.35-5.56,5.23v148.49h296.94Z"/>
              <path class="cls-20" d="m357.54,291.17H60.6c-.33,0-.62-.29-.62-.62v-148.49c0-3.21,2.76-5.85,6.18-5.85h285.77c3.42,0,6.18,2.64,6.18,5.85v148.49c0,.33-.29.62-.62.62h.04Zm-296.32-1.24h295.71v-147.87c0-2.56-2.23-4.62-4.95-4.62H66.16c-2.72,0-4.95,2.06-4.95,4.62,0,0,0,147.87,0,147.87Z"/>
            </g>
            <path class="cls-18" d="m357.54,152.57v-10.51c0-2.88-2.47-5.23-5.56-5.23H66.16c-3.09,0-5.56,2.35-5.56,5.23v10.51s296.94,0,296.94,0Z"/>
            <g>
              <path d="m297.91,147.46c0-1.15.7-1.98,1.81-2.43h0c-1.03-.54-1.44-1.32-1.44-2.1,0-1.44,1.24-2.43,2.84-2.43,1.77,0,2.68,1.11,2.68,2.27,0,.78-.37,1.61-1.48,2.14h0c1.15.49,1.85,1.32,1.85,2.43,0,1.61-1.36,2.68-3.13,2.68-1.94,0-3.09-1.15-3.09-2.47l-.04-.08Zm4.95-.04c0-1.11-.78-1.65-2.02-2.02-1.07.33-1.65,1.03-1.65,1.9-.04.95.66,1.73,1.85,1.73s1.81-.7,1.81-1.65v.04Zm-3.42-4.57c0,.91.7,1.4,1.73,1.69.78-.25,1.4-.82,1.4-1.65,0-.74-.45-1.48-1.57-1.48-1.03,0-1.61.66-1.61,1.48l.04-.04Z"/>
              <path d="m305.36,144.08c0-.54.37-.91.82-.91s.82.37.82.91c0,.49-.33.87-.87.87-.49,0-.82-.37-.82-.87h.04Zm0,4.99c0-.54.37-.91.82-.91s.82.37.82.91c0,.49-.33.87-.87.87-.49,0-.82-.37-.82-.87h.04Z"/>
              <path d="m310.89,141.77h0l-1.61.87-.25-.95,2.02-1.07h1.07v9.15h-1.2v-8h-.04Z"/>
              <path d="m320.9,141.65h-3.5l-.37,2.35c.21,0,.41-.04.74-.04.7,0,1.4.16,1.98.49.7.41,1.32,1.2,1.32,2.35,0,1.77-1.44,3.13-3.42,3.13-.99,0-1.85-.29-2.31-.58l.33-.95c.37.21,1.11.49,1.98.49,1.15,0,2.18-.74,2.18-1.98s-.82-2.02-2.64-2.02c-.54,0-.95.04-1.28.08l.58-4.41h4.41v1.07Z"/>
            </g>
            <g>
              <rect class="cls-17" x="261.23" y="165.14" width="81.36" height="114.7"/>
              <rect class="cls-1" x="277.22" y="180.1" width="49.37" height="39.28"/>
              <rect class="cls-1" x="280.14" y="250" width="43.56" height="5.32"/>
            </g>
            <g>
              <rect class="cls-17" x="72.26" y="165.14" width="83.5" height="114.7"/>
              <rect class="cls-1" x="83.31" y="178.21" width="30.25" height="37.55"/>
              <rect class="cls-1" x="135.2" y="180.8" width="5.32" height="28.15"/>
              <rect class="cls-1" x="84.05" y="229.27" width="30.25" height="37.55"/>
              <rect class="cls-1" x="135.94" y="231.87" width="5.32" height="28.15"/>
            </g>
            <g>
              <rect class="cls-17" x="167.01" y="165.14" width="83.5" height="114.7"/>
              <g>
                <rect class="cls-1" x="175.09" y="176.1" width="27.61" height="20.85"/>
                <rect class="cls-1" x="214.78" y="176.1" width="27.61" height="20.85"/>
              </g>
              <g>
                <rect class="cls-1" x="175.09" y="207.92" width="27.61" height="20.85"/>
                <rect class="cls-1" x="214.78" y="207.92" width="27.61" height="20.85"/>
              </g>
              <g>
                <rect class="cls-1" x="175.09" y="241.26" width="27.61" height="20.85"/>
                <rect class="cls-1" x="214.78" y="241.26" width="27.61" height="20.85"/>
              </g>
            </g>
            <path class="cls-4" d="m207.52,318.95c30.42-23.45,61.45-46.08,92.77-68.29,20.85-14.8,41.83-29.39,62.81-43.93v-33.42c-23.45,16.36-47.02,32.52-70.52,48.84-31.57,21.93-62.73,44.35-93.39,67.55-13.35,10.14-26.62,20.36-39.89,30.66h46.36c.62-.45,1.2-.95,1.81-1.4h.04Z"/>
            <path class="cls-4" d="m68.31,208.5c14.3-11.05,28.68-22.01,43.27-32.64,18.55-13.52,37.46-26.54,56.71-39.03h-18.63c-16.2,10.51-32.06,21.47-47.81,32.6-14.09,9.97-28.07,20.11-42.08,30.17v15.5c2.84-2.23,5.69-4.45,8.57-6.64l-.04.04Z"/>
            <g>
              <g>
                <g>
                  <path class="cls-21" d="m427.44,350.19l10.47,24.81,7.38-.08-3.26-24.77h-14.59v.04Z"/>
                  <path class="cls-21" d="m387.34,350.27l10.34,24.69,7.38-.08-3.21-24.69h-14.47l-.04.08Z"/>
                  <path class="cls-19" d="m444.62,201.37c-4.04-6.06-83.95-6.97-87.37-.62l-29.18,55.47-43.89-2.02s-5.89-.29-11.66,5.23c-2.84,2.72-2.72,19.91-1.9,26.54.54,4.41,7.25,64.54,7.25,64.54l165.39-.33s5.4-142.76,1.36-148.82Z"/>
                  <path class="cls-21" d="m396.36,351.71v-.54c0-.37,0-.87-.04-1.57,0-1.36-.08-3.38-.12-5.93-.12-5.15-.25-12.57-.45-21.68l.12.12c-13.52.08-31.12.21-50.24.37-19.99.12-38.25.21-52.05.29l.12-.12c-1.4,8.45-1.28,15.5-.91,20.28.16,2.39.41,4.29.58,5.52.08.62.16,1.11.21,1.44.04.33.04.49.04.49,0,0-.58-2.64-.99-7.46-.37-4.82-.58-11.83.82-20.36v-.12h.12c13.81-.08,32.06-.25,52.05-.37,19.12-.12,36.68-.21,50.24-.29h.12v.12c.12,9.11.25,16.53.33,21.68,0,2.56.04,4.57.08,5.93v2.1l-.04.08Z"/>
                  <path class="cls-21" d="m391.29,258.65h.33c.21,0,.58,0,.99.04.87.08,2.18.37,3.67,1.15s3.17,2.1,4.62,4.08c1.44,1.94,2.56,4.62,3.13,7.67.62,3.05.7,6.51.66,10.22,0,3.71-.12,7.71-.37,11.99-.49,8.49-1.57,18.01-2.68,28.23v.16h-.16c-12.86.08-26.99.16-41.83.29-29.34.16-56.09.33-75.83.45h-.12v-.12c-.33-5.61,0-10.67.74-15.08.78-4.37,2.1-8.08,3.92-10.63.91-1.28,1.94-2.27,2.93-2.93.12-.08.25-.16.37-.25s.25-.12.37-.21c.25-.12.49-.25.7-.37.49-.16.91-.37,1.32-.45s.74-.16,1.07-.21c.33,0,.58-.04.78-.08h.62s-.21,0-.62.08c-.21,0-.45,0-.78.08-.29.08-.66.16-1.07.25-.41.12-.82.29-1.28.45-.21.12-.45.25-.7.37-.12.08-.25.12-.37.21s-.25.16-.37.25c-.99.66-2.02,1.65-2.88,2.93-1.81,2.56-3.09,6.22-3.83,10.59s-1.03,9.44-.7,15l-.12-.12c19.78-.12,46.49-.33,75.83-.54,14.8-.08,28.93-.16,41.83-.25l-.16.16c1.15-10.22,2.23-19.7,2.72-28.23.25-4.24.41-8.24.41-11.95s-.04-7.13-.62-10.18c-.54-3.05-1.65-5.65-3.05-7.62-1.4-1.94-3.05-3.3-4.53-4.08-1.48-.78-2.76-1.07-3.63-1.2-.87-.12-1.32-.08-1.32-.08l.04-.08Z"/>
                  <polygon class="cls-21" points="280.31 350.48 277.92 374.96 285.29 374.88 294.53 350.48 280.31 350.48"/>
                </g>
                <path class="cls-21" d="m294.07,292.82s.25,0,.74-.08c.54-.08,1.2-.21,1.98-.33,1.65-.29,3.96-.7,6.51-.95,2.56-.29,4.9-.33,6.59-.33h2.76s-.25-.04-.74-.12c-.45-.04-1.15-.08-2.02-.12-1.69-.08-4.04-.08-6.64.21-2.56.29-4.86.74-6.51,1.07-.82.16-1.48.33-1.94.45s-.7.16-.7.21h-.04Z"/>
                <path class="cls-21" d="m282.41,254.29s.54.29,1.48.78,2.23,1.36,3.63,2.68c1.4,1.28,2.88,3.05,4.16,5.23,1.28,2.18,2.35,4.74,3.09,7.58,1.4,5.69,1.32,11.05,1.24,14.88-.04,1.94-.12,3.46-.16,4.53,0,.49,0,.91-.04,1.24v.41s0-.16.04-.41c0-.33.08-.74.12-1.24.08-1.07.21-2.64.29-4.53.08-1.94.12-4.2,0-6.76s-.45-5.36-1.15-8.2c-.74-2.84-1.81-5.48-3.13-7.67s-2.8-3.96-4.29-5.23c-1.44-1.28-2.76-2.14-3.75-2.6-.45-.25-.87-.41-1.11-.54-.25-.12-.41-.16-.41-.16Z"/>
                <g class="cls-15">
                  <path d="m368.87,300.24c-4.99,1.15-10.1,1.69-15.21,1.52-.37,15.95-1.77,31.9-4.12,47.73-1.28.58-2.6,1.15-4,1.2-1.4,0-2.93-.62-3.5-1.85-.33-.74-.33-1.61-.29-2.43.7-15.91,2.31-31.78,4.9-47.48.21-1.15.45-2.47,1.44-3.13.95-.62,2.18-.45,3.26-.25,6.18,1.15,12.28,2.6,18.3,4.29"/>
                </g>
                <g class="cls-15">
                  <path d="m376.17,298.92l-1.52,21.84s-5.15-11.83-3.83-16.36c1.32-4.53,5.4-5.52,5.4-5.52l-.04.04Z"/>
                </g>
              </g>
              <g>
                <g>
                  <g>
                    <path class="cls-21" d="m377.49,212c.49-17.23,1.03-34.45,1.52-51.68l1.69-2.97c1.48-1.28,3.83-1.07,5.44.08s2.51,3.01,3.17,4.86c3.05,8.9.66,18.67,1.28,28.03.12,2.02.45,4.16,1.65,5.81,1.61,2.27,4.57,3.38,5.81,5.85,1.11,2.23.29,5.23-1.81,6.59,1.52.87,3.05,1.81,4.08,3.21s1.28,3.5.16,4.86c-1.2,1.44-3.38,1.48-5.28,1.32-5.32-.49-10.59-1.48-15.66-3.09-.62-.21-1.32-.45-1.69-.99-.37-.54-.37-1.24-.33-1.9h-.04Z"/>
                    <path class="cls-19" d="m388.45,203.1s-.66-.12-1.44-.99c-.78-.82-1.36-2.43-1.52-4.45-.29-4.04-.41-9.69.08-15.91.25-3.09.62-6.06,1.03-8.7.45-2.64.66-5.15.08-7.17-.54-2.02-1.73-3.34-2.68-4-.49-.33-.91-.49-1.2-.58s-.45-.12-.45-.08.62.12,1.57.78c.91.66,2.02,1.98,2.51,3.96.54,1.98.29,4.41-.16,7.05-.45,2.68-.82,5.61-1.07,8.74-.49,6.22-.33,11.87,0,15.95.21,2.02.82,3.67,1.69,4.49.41.41.82.62,1.07.74.29.08.45.12.45.12l.04.04Z"/>
                  </g>
                  <g>
                    <g>
                      <path class="cls-11" d="m376.71,160.11c.16.74-.37-.62,0,0h0Z"/>
                      <path class="cls-11" d="m377.28,157.19c.58-.62,1.52-.37,2.18.12,1.15.82,2.06,2.23,2.64,3.75s.87,3.21,1.07,4.86c.08.95.12,2.14-.54,2.68-.45.41-1.07.33-1.57,0-.49-.33-.87-.91-1.2-1.44-1.32-2.18-2.39-4.57-3.21-7.09-.16-.74.12-2.43.58-2.88h.04Z"/>
                    </g>
                    <g>
                      <g>
                        <path class="cls-21" d="m382.15,170.13c-1.32-5.61-3.67-11.33-8.33-14.71-4.12-3.05-10.18-4.2-15.29-3.79-2.51.21-5.32,1.44-7.5,2.76-2.97,1.81-4.12,5.32-5.48,8.49-2.72,6.39-2.06,14.88,0,17.19l26.75,13.02c4.57-2.56,9.52-6.06,10.59-11.17.74-3.5.04-8.28-.78-11.75l.04-.04Z"/>
                        <g>
                          <path class="cls-8" d="m372.01,160.2l-16.69-4.33c-5.36-.62-8.98,5.98-9.36,11.33-.41,5.98-.7,13.27,0,17.76,1.36,8.98,8.24,11.13,8.24,11.13,0,0,0,7.79.04,10.47l7.79,23.74,11.09-23.74,1.69-43.11c.04-1.65-1.15-3.05-2.8-3.21v-.04Z"/>
                          <path class="cls-21" d="m348.97,174.41c0,.62.45,1.11,1.11,1.15.62,0,1.15-.41,1.2-1.03,0-.62-.45-1.11-1.11-1.15-.62,0-1.15.41-1.2,1.03Z"/>
                          <path class="cls-21" d="m347.53,170.99s1.03-.49,2.27-.49,2.14.62,2.27.49c.08-.08-.08-.33-.45-.62-.37-.29-1.03-.58-1.81-.58s-1.4.29-1.81.58c-.37.29-.49.58-.45.62Z"/>
                          <path class="cls-21" d="m360.18,174.41c0,.62.45,1.11,1.11,1.15.62,0,1.15-.41,1.2-1.03,0-.62-.45-1.11-1.11-1.15-.62,0-1.15.41-1.2,1.03Z"/>
                          <path class="cls-21" d="m359.68,171.32s1.03-.49,2.27-.49,2.14.62,2.27.49c.08-.08-.08-.33-.45-.62-.37-.29-1.03-.58-1.81-.58s-1.4.29-1.81.58c-.37.29-.49.58-.45.62Z"/>
                          <path class="cls-21" d="m355.15,180.47s-.74-.21-2.02-.37c-.33,0-.62-.08-.66-.33-.08-.25.04-.58.21-.95.29-.78.62-1.57.95-2.39,1.32-3.42,2.27-6.22,2.14-6.26-.12-.04-1.32,2.68-2.64,6.1-.33.82-.62,1.65-.91,2.43-.12.37-.33.78-.16,1.24.08.25.33.41.54.45.21.08.37.08.54.08,1.24.08,2.02.08,2.02,0Z"/>
                          <path class="cls-10" d="m354.16,196.09v2.23c9.03.91,12.03-5.36,12.03-5.36-6.02,3.54-12.03,3.13-12.03,3.13Z"/>
                          <path class="cls-10" d="m359.23,182.78c-.37-.58-.99-.87-1.65-.91-.95,0-1.73.29-2.35,1.15-.21.25-.21.95-.12,1.15.08.21,0,.08.16.25.54.49,1.11.99,1.85,1.15.7.16,1.57-.04,2.06-.74.41-.62.41-1.48.04-2.06Z"/>
                          <path class="cls-21" d="m358.78,181.34s-.21,1.32-1.36,2.27c-1.15.95-2.6.78-2.6.99,0,.08.33.25.91.29.58,0,1.44-.16,2.18-.74.7-.58,1.03-1.36,1.07-1.9.04-.58-.08-.91-.16-.91h-.04Z"/>
                          <path class="cls-21" d="m359.15,167.37c.12.33,1.36.21,2.8.37s2.64.58,2.8.29c.08-.12-.12-.45-.58-.78s-1.2-.66-2.1-.74c-.87-.08-1.69,0-2.18.25-.54.21-.82.45-.74.62Z"/>
                          <path class="cls-21" d="m348.02,166.75c.21.29,1.07,0,2.1,0,1.03-.04,1.9.21,2.1-.08.08-.12-.04-.41-.41-.7-.37-.25-.99-.49-1.69-.45-.7,0-1.32.29-1.69.54-.37.29-.49.58-.37.7h-.04Z"/>
                          <path class="cls-8" d="m372.42,174.33s4.99-1.61,4.95,3.42c-.04,4.99-5.07,3.92-5.07,3.79s.12-7.17.12-7.17v-.04Z"/>
                          <path class="cls-10" d="m373.82,179.61s.08.04.25.12c.12.08.37.12.66,0,.54-.21.99-1.03,1.03-1.94,0-.45-.08-.91-.25-1.24-.16-.37-.37-.62-.66-.66-.25-.08-.45.08-.54.25-.08.12,0,.25-.08.25,0,0-.12-.08-.08-.29,0-.08.08-.21.21-.33.12-.08.29-.16.49-.12.37,0,.74.37.91.78.21.41.29.91.29,1.4,0,.99-.58,1.94-1.28,2.14-.37.08-.66,0-.78-.12-.16-.12-.16-.25-.16-.25h0Z"/>
                        </g>
                        <path class="cls-14" d="m375.51,181.3s.21.21.21.66c0,.21-.08.49-.37.7s-.66.21-.95.08c-.33-.12-.62-.37-.66-.7-.08-.29,0-.58.12-.78.25-.37.58-.41.58-.41,0,0-.25.12-.41.49-.08.16-.12.41-.08.62.04.21.25.41.54.49.25.08.54.08.74,0,.21-.12.29-.33.29-.54.08-.37-.04-.62,0-.62Z"/>
                        <path class="cls-21" d="m345.59,168.6c.66-1.44,1.98-2.51,3.38-3.3,1.4-.78,2.88-1.36,4.29-2.18,3.17-1.85,5.61-4.9,6.72-8.41-2.47-1.28-5.52-1.11-8,.12-2.47,1.24-4.41,3.46-5.52,5.98-1.15,2.51-1.57,5.32-1.52,8.12"/>
                        <path class="cls-21" d="m373.57,158.84c-3.71-3.5-10.67-5.44-15.54-3.79.7,4.2,3.92,8.94,6.68,12.16,2.8,3.26,4.53,8.94,10.63,7.01.41-.12.91.25,1.28,0,.33-.21.49-.58.58-.95,1.61-4.99.12-10.88-3.71-14.47l.08.04Z"/>
                      </g>
                      <path class="cls-3" d="m375.67,158.01s0,.08-.12.16c-.08.08-.16.25-.33.45-.33.37-.82.91-1.52,1.44-.7.54-1.61,1.07-2.72,1.44-1.11.37-2.39.62-3.75.54-1.36-.08-2.64-.45-3.67-.95-1.07-.49-1.94-1.15-2.56-1.77-.66-.62-1.07-1.2-1.36-1.61-.12-.21-.25-.37-.29-.49-.08-.12-.08-.16-.08-.16.04,0,.54.95,1.85,2.14.66.58,1.48,1.2,2.56,1.69,1.03.49,2.27.82,3.59.91s2.6-.16,3.67-.54,2.02-.87,2.72-1.4c1.4-1.03,2.02-1.98,2.06-1.94l-.04.08Z"/>
                      <path class="cls-19" d="m378.07,164.85s-.04.08-.16.16c-.12.08-.29.29-.54.45-.45.37-1.24.82-2.23,1.15-.99.37-2.31.58-3.71.49-1.4-.08-2.97-.41-4.45-1.15-1.44-.74-2.72-1.69-3.71-2.68s-1.77-2.02-2.39-2.88c-.58-.87-1.03-1.65-1.32-2.14-.12-.25-.25-.45-.29-.62-.08-.12-.08-.21-.08-.21,0,0,.04.08.12.21.08.16.21.37.33.58.29.49.74,1.24,1.36,2.1s1.4,1.85,2.39,2.8c.99.99,2.23,1.9,3.67,2.64,1.44.7,2.97,1.07,4.33,1.15,1.4.08,2.64-.12,3.63-.45s1.77-.74,2.23-1.07c.49-.33.74-.58.74-.54h.08Z"/>
                    </g>
                    <path class="cls-19" d="m373.66,192.22s.08,0,.25-.12c.16-.08.41-.21.74-.41.62-.37,1.48-.95,2.47-1.81.99-.82,2.1-1.94,3.09-3.38.99-1.4,1.85-3.13,2.39-5.07,1.11-3.83.87-7.58.25-10.06-.29-1.28-.66-2.27-.95-2.93-.12-.33-.29-.58-.37-.74s-.12-.25-.16-.25c0,0,.12.37.37,1.07.25.66.58,1.69.82,2.93.54,2.51.78,6.14-.33,9.93-.54,1.9-1.36,3.59-2.31,4.99-.95,1.4-2.02,2.51-2.97,3.38s-1.81,1.48-2.39,1.85c-.58.41-.95.62-.91.66v-.04Z"/>
                  </g>
                </g>
                <g>
                  <g>
                    <g>
                      <path class="cls-11" d="m300.79,318.41l-8.37,15.21s-17.6-4.45-19.41-1.81l28.23,18.34,14.01-23.12-14.47-8.57v-.04Z"/>
                      <g class="cls-16">
                        <path class="cls-3" d="m302.11,337.7c.45.49.49,1.36,0,1.81-.45.49-1.36.49-1.81,0-.49-.49-.54-1.52,0-1.94.54-.41,1.57-.41,1.9.16"/>
                      </g>
                      <g class="cls-16">
                        <path class="cls-3" d="m301.2,350.15l1.4-2.35-27.86-16.77s-1.15-.21-2.06.87l28.48,18.22.04.04Z"/>
                      </g>
                      <path class="cls-21" d="m292.05,333.17s.58.62,1.03,1.48.45,1.69.62,1.69c.16.04.45-.91-.08-1.98-.54-1.03-1.48-1.4-1.52-1.24l-.04.04Z"/>
                      <path class="cls-21" d="m288.26,332.63s.37.74.49,1.61c.16.87-.12,1.61,0,1.69s.7-.66.54-1.77c-.16-1.11-.95-1.65-1.03-1.52Z"/>
                      <path class="cls-21" d="m284.35,335.23s.74-.49.82-1.48c.12-.99-.37-1.69-.49-1.61-.16.08,0,.74-.08,1.57s-.37,1.44-.25,1.52Z"/>
                      <path class="cls-21" d="m294.32,329.91s.74.37,1.52.91,1.24,1.15,1.4,1.07c.12-.04-.16-.95-1.07-1.57-.91-.62-1.85-.58-1.81-.41h-.04Z"/>
                    </g>
                    <g class="cls-15">
                      <polygon points="299.14 321.42 297.62 324.1 311.92 332.47 313.36 330.12 299.14 321.42"/>
                    </g>
                    <path class="cls-21" d="m296.05,326.9s.45.49,1.44.87c.49.21,1.11.37,1.77.45.33.04.7.08,1.11.04.16,0,.41,0,.66-.08.25-.04.58-.37.49-.7,0-.33-.21-.58-.41-.7s-.41-.21-.58-.25c-.37-.12-.74-.21-1.07-.25-.7-.08-1.36,0-1.85.08-1.03.21-1.57.62-1.57.66,0,.08.62-.16,1.61-.25.49-.04,1.07-.04,1.73.04.33.04.66.12.99.25.37.08.62.25.62.45q0,.08-.12.12c-.12.04-.29.04-.45.04h-1.03c-.66-.04-1.24-.16-1.73-.29-.95-.25-1.52-.54-1.57-.45l-.04-.04Z"/>
                    <path class="cls-21" d="m296.13,327.19s.62-.29,1.24-1.15c.29-.45.58-1.03.74-1.69.08-.33.12-.7.16-1.11,0-.37,0-.91-.49-1.28-.29-.16-.66-.08-.87.04s-.33.29-.45.45c-.25.29-.45.66-.58.99-.29.66-.33,1.32-.29,1.85.12,1.07.62,1.61.66,1.57.08-.04-.25-.62-.25-1.57,0-.49.08-1.07.37-1.65.12-.29.29-.58.54-.82.25-.29.49-.45.58-.37.16.08.25.45.21.78,0,.33-.04.7-.12.99-.12.62-.37,1.2-.58,1.61-.45.87-.95,1.32-.87,1.36Z"/>
                  </g>
                  <g>
                    <g>
                      <path class="cls-11" d="m326.34,347.88l.87,17.31s-17.93,5.36-17.64,9.6h33.75l-.16-27.2-16.82.29Z"/>
                      <g class="cls-16">
                        <path class="cls-3" d="m337.59,363.63c.66.16,1.11.91.99,1.57s-.87,1.15-1.52.99c-.66-.16-1.24-1.03-1.03-1.65.21-.66,1.11-1.15,1.69-.82"/>
                      </g>
                      <g class="cls-16">
                        <path class="cls-3" d="m343.28,374.75v-2.84l-32.15.37s-1.61,1.11-1.61,2.51h33.75v-.04Z"/>
                      </g>
                      <path class="cls-21" d="m326.63,365.07s.82.25,1.65.74c.82.49,1.24,1.2,1.4,1.15.16,0-.12-1.03-1.11-1.61-.99-.62-1.98-.41-1.94-.25v-.04Z"/>
                      <path class="cls-21" d="m323.13,366.55s.66.41,1.24,1.11c.58.66.74,1.4.91,1.4s.25-.95-.45-1.77c-.7-.87-1.69-.91-1.69-.74Z"/>
                      <path class="cls-21" d="m321.19,370.8s.37-.78-.08-1.69c-.41-.91-1.2-1.24-1.28-1.11s.41.62.74,1.36c.37.74.41,1.44.58,1.44h.04Z"/>
                      <path class="cls-21" d="m326.88,361.07s.82-.08,1.73,0c.95,0,1.65.33,1.73.21.08-.12-.62-.7-1.73-.74-1.11-.04-1.85.49-1.77.62l.04-.08Z"/>
                    </g>
                    <g class="cls-15">
                      <polygon points="326.92 360.16 327.13 363.63 343.28 363.17 343.24 360.41 326.92 360.16"/>
                    </g>
                    <path class="cls-21" d="m326.8,357.57s.66.16,1.69,0c.49-.08,1.11-.29,1.77-.58.33-.16.66-.33.95-.54.16-.08.33-.21.49-.41.16-.16.29-.62.08-.87-.16-.25-.49-.37-.74-.37s-.45.04-.62.08c-.37.08-.74.21-1.03.37-.66.29-1.15.66-1.52,1.03-.78.74-1.03,1.36-.99,1.4.08.04.45-.45,1.24-1.07.41-.29.91-.62,1.48-.87.29-.12.62-.25.95-.33.37-.08.66-.12.74.04v.21c-.08.08-.21.21-.37.29-.29.21-.58.37-.87.54-.58.29-1.15.49-1.61.66-.95.29-1.61.33-1.61.41h-.04Z"/>
                    <path class="cls-21" d="m327,357.81s.37-.58.41-1.65c0-.54-.04-1.15-.25-1.85-.12-.33-.25-.7-.45-1.03s-.45-.78-1.07-.82c-.33,0-.62.25-.7.49-.12.25-.12.41-.16.62-.04.41-.04.78,0,1.15.12.7.41,1.32.74,1.73.66.87,1.36,1.03,1.36.99.04-.08-.54-.41-1.03-1.24-.25-.41-.49-.95-.54-1.57v-.99c.04-.37.16-.66.33-.62.16,0,.45.25.58.54.16.29.33.62.41.91.21.62.33,1.2.33,1.69.04.99-.12,1.61,0,1.65h.04Z"/>
                  </g>
                  <g>
                    <path class="cls-7" d="m375.3,200.01l-1.9-.78c.58-.91-3.92,7.87-10.06,7.95-8.41.08-9.23-8.28-9.23-8.28h-.45l-13.81,14.34-1.81,40.02,1.48,5.15,29.63,10.76,10.34-20.57.91-12.69-5.11-35.86v-.04Z"/>
                    <path class="cls-11" d="m374.4,199.55s16.82,3.83,19.58,11c1.2,3.17,1.61,54.32,1.61,54.32,0,0,2.1,4.7,1.94,14.34-.12,9.27-6.26,15.25-13.89,16.98,0,0-2.02-14.55-10.06-21.84-7.62-6.92-8.33-6.06-8.33-6.06l1.85-16.69,1.9-14.51c1.9-10.39-.25-21.64,3.3-31.57l2.1-5.98Z"/>
                    <path class="cls-11" d="m338.87,209.73l-11.5,50.49,12.32-2.8,3.92-30.29,10.14-28.27s-1.69.21-3.92.58c-5.44.87-9.81,4.95-11,10.3h.04Z"/>
                    <g class="cls-15">
                      <path d="m395.46,273.57c.04.62-.33,1.2-.82,1.57-.49.37-1.11.49-1.69.62-2.84.49-5.77,0-8.49-.91-3.13-1.03-6.14-2.47-9.11-3.96-4.37-2.14-5.73-3.13-9.85-5.73,4.29,1.73,5.69,1.98,10.18,3.01,6.72,1.52,13.77,2.31,19.82,5.56"/>
                    </g>
                    <g>
                      <path class="cls-8" d="m370.77,254.49l-7.5-1.61s-8.61-4.82-10.55-4.78c-1.73,0-8.61,3.13-9.97,3.75-.16.08-.29.16-.37.33h0c-.37.62-.16,1.44.45,1.81l.12.08-.08.16c-.12.21-.21.45-.21.74-.08.87,1.03,1.32,1.61.66l-.29.37s-.21.33-.21.54v.37c-.08.41.12.82.49,1.03h0c.37.21.78.16,1.11-.12.95-.74,2.93-2.18,4.08-2.18,1.07,0,2.76.25,3.79.41.54.08.95.49,1.03.99h0c-.7-.08-5.85,1.65-7.71,2.27-.58.21-1.03.62-1.2,1.2-.16.54,0,1.11,1.11,1.03,2.31-.16,6.68-1.36,6.68-1.36,0,0,2.18-.25,3.38.91,1.69,1.65,2.47,2.27,4.16,2.02s3.05-.87,3.05-.87l2.72.49,4.29-8.28v.04Z"/>
                      <path class="cls-10" d="m354.94,253.09s-.62-.29-1.69-.54-2.6-.37-4.2,0c-1.61.41-2.93,1.24-3.71,1.94-.82.7-1.24,1.28-1.24,1.24,0,0,.08-.16.29-.37.21-.25.49-.58.91-.95.82-.74,2.14-1.61,3.75-2.02,1.65-.41,3.21-.25,4.29,0,.54.12.95.29,1.24.41s.41.21.41.21l-.04.08Z"/>
                      <path class="cls-10" d="m354.37,250.7s-.62-.37-1.73-.62-2.76-.16-4.37.49c-1.61.66-2.93,1.61-3.83,2.31-.45.33-.78.62-1.07.82-.25.21-.41.29-.41.29,0,0,.12-.12.37-.33s.62-.49,1.03-.87c.91-.7,2.18-1.69,3.83-2.35s3.34-.74,4.45-.45c.58.12.99.29,1.28.45.16.08.25.16.33.21.08.04.12.08.12.08v-.04Z"/>
                    </g>
                    <path class="cls-11" d="m383.79,212.12l3.75,40.31h1.07l-16.98.33-6.14,12.36s22.3,10.84,31.82,7.87c11.29-3.54,8.08-16.16,8-20.61,0-.78-6.35-38.25-12.49-43.85,0,0-8.08.54-8.98,3.59h-.04Z"/>
                    <g>
                      <path class="cls-21" d="m383.3,223.38s0,.37.08,1.07c.08.74.25,1.73.41,2.97.37,2.56.91,5.93,1.44,9.69.58,3.79,1.07,7.21,1.44,9.69.16,1.2.33,2.18.41,2.93.12.7.16,1.07.21,1.07s0-.37-.04-1.07-.16-1.73-.33-2.97c-.29-2.51-.74-5.93-1.32-9.73s-1.15-7.21-1.57-9.69c-.21-1.2-.37-2.18-.49-2.93-.12-.7-.21-1.07-.25-1.07v.04Z"/>
                      <path class="cls-21" d="m384.58,205.98s-.12.12-.33.41-.45.7-.7,1.28c-.29.54-.54,1.24-.78,2.02-.21.78-.41,1.69-.49,2.6-.21,1.9-.12,3.59,0,4.82s.25,1.98.29,1.98,0-.78-.04-1.98c0-1.24-.08-2.93.12-4.74.12-.91.29-1.77.49-2.56s.45-1.44.7-2.02c.45-1.11.87-1.77.82-1.81h-.08Z"/>
                      <path class="cls-21" d="m397.27,272.96h-.16c-.12,0-.29.08-.49.12-.41.08-1.07.21-1.85.29-1.65.12-4.04-.08-6.92-.66-1.44-.29-3.05-.66-4.74-1.03-1.69-.45-3.42-1.07-5.23-1.77-3.67-1.36-7.62-3.01-11.79-4.74-.16-.08-.33-.16-.54-.21l.08.25c2.23-4.45,4.29-8.65,6.14-12.36l-.12.08c2.72,0,5.23-.16,7.46-.25,2.23-.08,4.16-.12,5.77-.12s2.88.08,3.75.16c.87.08,1.32.16,1.32.16,0,0-.12,0-.33-.08-.21-.04-.54-.12-.99-.16-.87-.12-2.14-.21-3.75-.25h-5.81c-2.23.04-4.74.16-7.46.21h-.08l-.04.08c-1.85,3.71-3.96,7.91-6.18,12.32l-.08.16.16.08s.33.16.54.21c4.16,1.77,8.16,3.38,11.83,4.74,1.85.66,3.59,1.32,5.28,1.73,1.73.37,3.3.7,4.74.99,2.93.58,5.32.74,7.01.58,1.65-.16,2.51-.58,2.51-.58v.04Z"/>
                      <path class="cls-21" d="m385.57,252.51s.41-.37,1.2-.87c.74-.49,1.94-.95,3.3-1.15,1.36-.21,2.64-.12,3.54-.12s1.48.04,1.48,0-.54-.16-1.48-.25c-.91-.08-2.18-.21-3.63,0-1.4.21-2.64.74-3.38,1.32-.74.54-1.07,1.07-1.03,1.07Z"/>
                      <g class="cls-15">
                        <path d="m385.85,252.47c2.39-.37,4.9-.21,7.21.54,1.44.45,2.88,1.11,3.67,2.39.25.41.41.99.08,1.32-.29.29-.78.21-1.2,0-.82-.37-1.52-.95-2.27-1.52-1.15-.87-2.39-1.65-3.75-2.18-1.36-.54-2.84-.74-4.24-.54"/>
                      </g>
                      <g class="cls-15">
                        <path d="m386.6,251.61c.49-1.4,2.39-2.76,3.59-3.13,2.72-.95,5.89-1.28,8.33.29.25.16.54.41.54.7,0,.45-.45.7-.87.82-1.73.49-3.54.21-5.36,0-1.77-.16-3.71-.21-5.23.7"/>
                      </g>
                      <g class="cls-15">
                        <path d="m387.17,249.84c-3.5-7.21-5.11-16.69-3.67-25.1l3.67,25.1Z"/>
                      </g>
                    </g>
                  </g>
                  <g>
                    <path class="cls-21" d="m383.63,296.2s-6.06,4.04-18.18,4.04-14.84-.82-14.84-.82l-11.29-10.26-24.81,43.48s-19.7-12.2-19.82-11.83c-.25.25,18.38-41.17,22.46-48.34,1.32-2.31,2.56-4.04,4.62-6.68,4.12-5.36,11-7.83,17.64-6.39,3.34.74,7.05,1.69,10.3,2.88,9.03,3.3,16.65,5.52,23.16,11.29,7.54,6.68,12.08,19.66,10.8,22.67l-.04-.04Z"/>
                    <path class="cls-21" d="m342.13,284.12s8.94,6.18,8.7,11.13c-.21,4.16-5.73,65.2-5.73,65.2l-21.97-.37-1.52-39.98,20.52-35.98Z"/>
                    <path class="cls-19" d="m319.87,323.19s0-.04.08-.16c.08-.12.16-.25.25-.45.25-.41.58-.99.99-1.73.87-1.57,2.06-3.75,3.54-6.43,2.97-5.48,7.09-12.98,11.62-21.31,1.61-2.97,3.17-5.85,4.62-8.53l-.16.08c3.5.41,6.39,2.6,7.95,5.03.78,1.24,1.28,2.56,1.48,3.83.25,1.28.25,2.47.25,3.54-.04,2.18-.25,3.92-.33,5.11,0,.58-.04,1.07-.04,1.36v.45s0-.16.04-.45c0-.33.04-.78.12-1.36.08-1.2.33-2.93.41-5.11,0-1.11,0-2.31-.21-3.63-.21-1.28-.7-2.68-1.48-3.96-1.57-2.56-4.53-4.78-8.16-5.23h-.12l-.04.08c-1.44,2.68-3.01,5.52-4.62,8.53-4.49,8.33-8.57,15.87-11.54,21.35-1.44,2.72-2.64,4.95-3.46,6.51-.41.74-.7,1.36-.91,1.77-.08.21-.16.33-.25.45-.04.12-.08.16-.08.16l.04.08Z"/>
                    <path class="cls-19" d="m338.21,275.8s1.57,1.65,2.35,4.24c.82,2.6.33,4.82.41,4.82,0,0,.21-.54.29-1.44.08-.91,0-2.18-.37-3.5-.41-1.32-1.07-2.43-1.65-3.13s-1.03-1.03-1.03-1.03v.04Z"/>
                    <path class="cls-19" d="m342.83,274.11s.12.62.25,1.65c.12.99.16,2.43-.12,3.96s-.82,2.8-1.32,3.71-.87,1.4-.82,1.44c0,0,.49-.41,1.03-1.32.54-.87,1.15-2.23,1.44-3.79.29-1.57.21-3.01,0-4.04s-.45-1.61-.49-1.61h.04Z"/>
                  </g>
                  <path class="cls-21" d="m359.97,246.08s-.62-.82-1.48-2.18c-.41-.7-.87-1.57-1.32-2.56-.41-.99-.78-2.1-1.07-3.34-.29-1.2-.41-2.39-.49-3.46-.04-1.07,0-2.06.04-2.84.16-1.61.41-2.6.37-2.64,0,0-.08.25-.21.66-.08.21-.12.49-.21.82-.04.33-.12.7-.16,1.11-.12.82-.16,1.81-.12,2.88s.21,2.31.45,3.5c.29,1.24.7,2.35,1.11,3.38.45.99.95,1.85,1.4,2.56.21.37.45.66.66.91s.37.49.54.66c.29.33.49.54.49.49v.04Z"/>
                </g>
              </g>
              <path class="cls-11" d="m339.78,207.1s-23.82,40.92-24.36,44.06c-.41,2.35.37,8.98,2.51,9.85,5.98,2.43,12.9-.37,19.21-4.74l.95-.66,1.73-48.51h-.04Z"/>
              <g>
                <path class="cls-19" d="m444.62,201.37s-3.75-2.18-4.62,3.87c-.91,6.06-7.01,50.4-7.01,50.4l-38.12-.37s-8.04-.29-13.52,16.11c-3.83,11.5-7.71,50.53-7.71,50.53l.74,28.27h68.91s2.14-59.26,2.47-85.64c.37-26.34,1.11-55.1-1.11-63.18h-.04Z"/>
                <path class="cls-21" d="m441.2,200.96s-.08.08-.21.16c-.12.12-.33.29-.58.58-.45.54-1.03,1.48-1.15,2.84-.33,2.76-.82,6.76-1.4,11.7-1.24,9.93-2.93,23.74-4.86,39.36v.16h-.16c-2.56-.04-5.23-.12-7.95-.16-8.61-.12-16.77-.21-24.23,0-1.85.04-3.67.12-5.44.29-.45,0-.87.08-1.32.12-.41.04-.87.12-1.28.16-.87.04-1.61.41-2.27.87-1.32.99-2.35,2.27-3.21,3.54-.91,1.28-1.65,2.56-2.35,3.83-2.68,5.07-4.24,9.48-5.19,12.57-.45,1.52-.74,2.76-.87,3.59-.08.41-.08.74-.08.95v.33-.33c0-.21,0-.54.08-.95.12-.87.37-2.06.82-3.63s1.07-3.42,1.9-5.56c.82-2.14,1.85-4.53,3.21-7.09.66-1.28,1.44-2.6,2.31-3.87.91-1.28,1.94-2.6,3.3-3.63l.54-.33s.37-.21.58-.29.41-.12.62-.21c.21-.04.41-.08.62-.08.41-.04.87-.12,1.28-.16.45,0,.87-.08,1.32-.12,1.77-.16,3.59-.21,5.44-.29,7.46-.25,15.66-.16,24.23-.04,2.72.04,5.4.12,7.95.16l-.16.16c1.98-15.58,3.71-29.39,4.99-39.32.66-4.95,1.15-8.9,1.52-11.66.12-1.4.74-2.35,1.24-2.88.49-.54.82-.7.82-.7l-.04-.08Z"/>
                <path class="cls-21" d="m391.29,258.65s.08,0,.25.04c.16,0,.41.08.74.12.62.12,1.57.37,2.72.87,1.15.45,2.47,1.24,3.79,2.39.7.54,1.28,1.28,1.94,2.02.29.41.58.82.87,1.28.08.12.16.21.21.33l.16.37c.12.25.25.49.37.74s.25.49.37.74.21.54.29.78c.21.54.41,1.11.58,1.65.25,1.2.62,2.39.7,3.67.08.66.16,1.32.21,1.98v2.06c.04,1.4-.08,2.8-.12,4.29-.25,5.85-.7,12.28-1.2,19.04-.58,7.62-1.24,14.8-1.9,21.14l.16-.12c-8.24.08-15.21.12-20.11.16-2.43,0-4.37.04-5.69.08h-2.02,7.71c4.9,0,11.87,0,20.11-.04h.12v-.12c.66-6.31,1.32-13.52,1.94-21.14.54-6.76.95-13.19,1.2-19.08,0-1.48.16-2.88.12-4.29v-2.06c0-.66-.16-1.32-.21-1.98-.08-1.32-.45-2.51-.74-3.71-.16-.58-.41-1.15-.62-1.69-.12-.29-.21-.54-.33-.82-.12-.25-.25-.49-.41-.74-.12-.25-.25-.49-.37-.74l-.21-.37s-.16-.21-.25-.33c-.29-.45-.62-.87-.91-1.28-.66-.74-1.28-1.48-1.98-2.02-1.36-1.15-2.72-1.9-3.87-2.35-1.15-.49-2.1-.7-2.76-.82-.33-.04-.58-.08-.74-.12h-.25l.12.08Z"/>
                <path class="cls-21" d="m391.71,350.56s.16-6.14.16-13.72-.08-13.72-.16-13.72-.16,6.14-.16,13.72.08,13.72.16,13.72Z"/>
              </g>
              <g>
                <g>
                  <path class="cls-14" d="m306.07,231l38.78,3.5c.37,0,.66.29.78.62l8.61,27.7c.08.29.29.49.54.58l14.88,4.04c.33.12.58.45.58.82,0,.58-.54,1.03-1.11.91l-16.03-3.38-36.06-4.49c-.33,0-.62-.25-.74-.58l-11.25-28.48c-.25-.62.25-1.28.91-1.2l.12-.04Z"/>
                  <path class="cls-21" d="m306.07,231h-.33c-.21.04-.58.29-.66.74-.04.25.08.49.16.74s.21.54.33.87c.25.62.49,1.32.82,2.1,1.24,3.21,3.05,7.83,5.32,13.64,1.15,2.88,2.39,6.1,3.75,9.52.16.41.33.87.49,1.32l.25.66c.08.21.25.49.45.62.12.08.25.12.37.12h.37l.74.12c.49.04.99.12,1.44.16,1.98.25,4,.49,6.06.78,8.33,1.03,17.6,2.23,27.45,3.46h0c2.72.58,5.52,1.15,8.33,1.77,1.4.29,2.84.62,4.29.91.7.16,1.44.29,2.14.45l1.07.25s.41.08.62.04c.21,0,.41-.16.58-.29.25-.25.33-.62.25-.99-.08-.33-.33-.62-.66-.74h0c-5.11-1.4-10.06-2.72-14.88-4.04h0c-.25-.08-.41-.29-.49-.58l-.29-.87c-.16-.58-.37-1.2-.54-1.77-.37-1.15-.74-2.35-1.07-3.46-.7-2.31-1.44-4.57-2.1-6.76-1.4-4.41-2.72-8.65-3.96-12.65-.16-.49-.33-.99-.45-1.48-.08-.25-.12-.49-.29-.74s-.41-.45-.74-.49c-1.03-.08-2.02-.16-3.01-.29-1.98-.16-3.87-.33-5.73-.49-3.67-.33-7.09-.62-10.22-.91-6.22-.54-11.17-.99-14.59-1.28-1.69-.12-3.01-.25-3.92-.33-.45,0-.78-.04-1.03-.08h-.33s.12,0,.33.04c.25,0,.58.04,1.03.12.91.08,2.23.21,3.92.37,3.42.33,8.41.78,14.59,1.36,3.09.29,6.51.62,10.22.95,1.85.16,3.75.33,5.73.54.99.08,1.98.16,3.01.29.21,0,.41.16.54.33.08.16.16.45.25.7.16.49.29.99.45,1.48,1.24,4,2.56,8.24,3.92,12.69.7,2.23,1.4,4.45,2.1,6.76.37,1.15.7,2.31,1.07,3.46.16.58.37,1.15.54,1.77l.29.91c.08.33.33.66.7.78h0c4.82,1.32,9.81,2.68,14.88,4.04h0c.21.08.41.29.45.49.04.25,0,.49-.16.66-.12.12-.25.16-.37.21-.16,0-.29,0-.49-.04l-1.07-.25c-.7-.16-1.44-.29-2.14-.45-1.44-.29-2.84-.62-4.29-.91-2.84-.62-5.61-1.2-8.33-1.77h0c-9.85-1.24-19.12-2.39-27.45-3.42-2.1-.25-4.12-.49-6.06-.74-.49-.04-.99-.12-1.44-.16l-.74-.08c-.25,0-.49,0-.66-.16-.16-.12-.29-.25-.37-.49l-.25-.66c-.16-.45-.33-.87-.54-1.32-1.36-3.42-2.64-6.64-3.79-9.52-2.31-5.77-4.16-10.43-5.4-13.6-.33-.78-.62-1.48-.87-2.1-.12-.29-.25-.58-.33-.82-.12-.25-.21-.49-.16-.7.04-.45.37-.66.58-.74s.33,0,.33-.04h0Z"/>
                </g>
                <path class="cls-21" d="m343.4,234.38s0,.12.08.33c.08.25.16.54.25.91.21.78.54,1.98.99,3.38.82,2.84,2.06,6.76,3.46,11.09,1.36,4.29,2.64,8.2,3.54,11.05.45,1.36.82,2.51,1.07,3.34.12.37.21.66.29.91.08.21.12.33.12.33,0,0,0-.12-.08-.33-.08-.25-.16-.54-.25-.91-.21-.78-.54-1.98-.99-3.38-.82-2.84-2.06-6.76-3.46-11.09-1.36-4.29-2.64-8.2-3.54-11.05-.45-1.36-.82-2.51-1.07-3.34-.12-.37-.21-.66-.29-.91-.08-.21-.12-.33-.12-.33Z"/>
                <path class="cls-3" d="m328.49,245.67c.58,0,.99.12,1.52.7.37.41.66.99.41,1.52-.16.37-.58.58-.99.62-.41,0-.82-.08-1.15-.29-.49-.29-.91-.74-.95-1.32,0-.58.49-1.24,1.15-1.24Z"/>
              </g>
              <path class="cls-21" d="m333.27,233.23s.12-.29.33-.82c.21-.58.45-1.36.74-2.27.62-1.9,1.52-4.53,2.64-7.38,1.07-2.84,2.14-5.4,2.97-7.25.37-.87.7-1.61.95-2.18.21-.54.33-.82.33-.82,0,0-.16.25-.41.74s-.62,1.24-1.03,2.14c-.87,1.81-1.98,4.37-3.05,7.25-1.07,2.88-1.98,5.52-2.51,7.42-.29.95-.49,1.73-.66,2.31-.12.54-.21.87-.16.87h-.12Z"/>
            </g>
          </g>
        </g>
      </g>
    </g>
  </g>
</svg>