<?xml version="1.0" encoding="UTF-8"?>
<svg id="Layer_2" data-name="Layer 2" xmlns="http://www.w3.org/2000/svg" viewBox="0 0 224.88 226.34">
  <defs>
    <style>
      .cls-1 {
        fill: #fff;
      }

      .cls-2 {
        fill: #455a64;
      }

      .cls-3 {
        fill: #ecd659;
      }

      .cls-4 {
        fill: #eb996e;
      }

      .cls-5 {
        fill: #ffbe9d;
      }

      .cls-6 {
        fill: #263238;
      }
    </style>
  </defs>
  <g id="Floor">
    <g>
      <path class="cls-5" d="m116.61,141.66l5.09.22,18.32,39.76,28.97,14.44-1.38,14.91s-35.67-6.58-44.56-11.56c-8.89-4.98-20.23-37.32-20.23-37.32-.06.23,12.05-20.46,12.05-20.46"/>
      <g>
        <path class="cls-5" d="m167.3,178.01l3.71-3.9c.72-.46,1.55-.69,2.4-.67l11.77.36c2.22.22,4.22,1.43,5.44,3.3l4.28,7.28s2.88,4.98,2.51,6.19c-.55,1.83-2.48,1.46-2.48,1.46,0,0-.41,2.3-1.18,2.77-1.29.78-2.86.18-2.86.18-.43.88-1.34,1.47-2.32,1.4-.19-.01-.4-.05-.61-.11-1.4-.42-2.03-3.13-2.03-3.13l-5.97-1.1s-8.57,5.73-11.59,9.48-10.93.88-10.93.88l-2.96-14.15,12.8-10.24Z"/>
        <path class="cls-4" d="m175.97,179.7c0,.08.95.27,2.57.43,1.62.18,3.92.25,6.5.58l-.28-.21c.42.92.94,1.87,1.53,2.82,1.83,2.92,3.98,5.2,5.66,6.69,1.69,1.49,2.9,2.18,2.95,2.11.07-.09-1.03-.93-2.59-2.49-1.56-1.56-3.6-3.85-5.39-6.7-.58-.92-1.09-1.84-1.51-2.72l-.09-.18-.19-.02c-2.66-.3-4.94-.27-6.57-.32-1.62-.04-2.59-.06-2.6.03Z"/>
        <path class="cls-4" d="m175.7,185.31c-.02.08.79.38,2.22.59,1.42.21,3.47.27,5.76-.2l-.42-.24c.24.7.52,1.42.86,2.13,1.24,2.61,3,4.6,4.42,5.81,1.43,1.22,2.48,1.73,2.53,1.66.07-.1-.87-.76-2.17-2.04-1.3-1.28-2.91-3.24-4.11-5.75-.33-.69-.6-1.38-.84-2.04l-.11-.31-.31.07c-4.4.98-7.8.1-7.82.32Z"/>
        <g>
          <path class="cls-5" d="m160.76,188.22c3.5-1.63,7-3.25,10.49-4.88,1.45-.68,2.97-1.37,4.57-1.36,1.72,0,3.33.82,4.86,1.61,1.88.97,3.76,1.95,5.65,2.92.31.16.64.35.75.68.14.43-.17.87-.49,1.19-2.82,2.86-7.89,3.06-10.93.45-.91,2.46-1.84,4.98-3.54,6.99-1.7,2-4.33,3.42-6.91,2.95"/>
          <path class="cls-4" d="m165.21,198.77s.09.05.28.09c.19.05.48.09.86.1.75.02,1.89-.12,3.16-.77,1.26-.63,2.64-1.76,3.72-3.39,1.11-1.62,1.93-3.66,2.75-5.85l-.52.14c1.55,1.36,3.8,2.09,6.11,1.91,1.15-.09,2.32-.39,3.41-.95.53-.3,1.05-.63,1.51-1.05.23-.21.47-.4.68-.69.2-.27.41-.67.3-1.14-.09-.39-.39-.64-.63-.78-.25-.15-.46-.25-.68-.37-.44-.23-.88-.45-1.31-.68-.87-.45-1.72-.89-2.56-1.32-1.68-.83-3.27-1.81-5.06-2.2-1.81-.44-3.58.12-4.98.75-1.42.65-2.7,1.28-3.89,1.84-2.27,1.11-4.15,2.03-5.59,2.73-1.31.66-2.03,1.05-2.01,1.09.02.05.78-.25,2.13-.83,1.46-.65,3.38-1.49,5.68-2.51,1.21-.54,2.51-1.13,3.91-1.75,1.39-.59,2.97-1.06,4.59-.65,1.62.37,3.19,1.33,4.87,2.18.84.44,1.69.88,2.55,1.33.43.22.87.45,1.31.68.45.23.91.45.93.67.09.27-.32.75-.75,1.1-.41.38-.89.68-1.37.95-.98.51-2.06.8-3.12.89-2.13.18-4.2-.47-5.62-1.69l-.36-.31-.16.45c-.78,2.2-1.56,4.2-2.58,5.78-1.01,1.59-2.26,2.69-3.45,3.34-2.42,1.32-4.14.79-4.11.92Z"/>
        </g>
      </g>
      <g>
        <path class="cls-6" d="m19.48,54.12c-.65-8.12-2.48-16.14-2.72-24.29-.24-8.15,1.32-16.75,6.6-22.97C28.63.65,38.32-2.24,45.27,2.01l1.83,6.83c-.48,31.53,2.04,63.37,1.55,94.89-.06,4.14-3.15,8.1-4.78,11.91-1.62,3.81-5.18,7.11-9.32,7.13-5.42.03-9.33-5.2-11.36-10.22-7.35-18.22-2.16-38.85-3.73-58.43Z"/>
        <path class="cls-3" d="m36.17,10.64c1.05-2.09,2.12-4.21,3.75-5.88,1.63-1.67,3.94-2.85,6.26-2.57,1.09.13,2.23.67,2.66,1.68.43,1.01-.25,2.45-1.35,2.43l-.22.22c-2.29,2.32-4.62,4.59-7,6.82-.6.56-1.22,1.13-1.99,1.42-.77.29-1.72.25-2.31-.33-.97-.95-.42-2.57.19-3.78Z"/>
        <path class="cls-6" d="m32.12,18.93C39.55,8.48,50.04,2.04,62.82.96c7.21-.61,10.3.69,15.59,1.74,5.29,1.05,10.17,3.52,13.57,7.71,4.04,4.98,7.53,10.62,8.66,16.93,1.16,6.48,1.09,12.9.21,18.25-1.07,6.5-4.8,16.57-8.29,22.15l-10.99,2.1c-9.18.94-18.5,1.87-27.61.38-9.11-1.49-18.15-5.72-23.49-13.26-7.41-10.47-5.79-27.58,1.64-38.03Z"/>
        <g>
          <path class="cls-5" d="m46.94,17.82l21.62-10.34,5.85.28c13.06-.84,23.05,12.95,23.85,23.53.89,11.75,1.52,26.12.24,34.91-2.57,17.67-17.34,20.13-17.34,20.13,0,0,.93,9.26,1.44,15.1l-34.19-.15-6.95-77.1c-.11-3.22,2.27-5.98,5.47-6.36Z"/>
          <path class="cls-4" d="m72.1,63.89c.06-.93.51-1.77,1.13-2.37,1.23-1.2,3.12-1.44,4.58-.57,1.46.87,2.39,2.78,2.25,4.63h0c-.71,1.13-1.86,1.93-3.17,2.14-.2.03-.41.05-.62.06-1.01.04-2.05-.23-2.87-.92-.82-.69-1.37-1.83-1.3-2.97Z"/>
          <g>
            <path class="cls-6" d="m94.59,47.34c.06,1.19-.91,2.23-2.15,2.31-1.24.08-2.3-.82-2.36-2.01-.06-1.19.91-2.23,2.15-2.31,1.25-.08,2.3.82,2.36,2.01Z"/>
            <path class="cls-6" d="m94.69,37.43c-.28.3-2.01-.95-4.44-.91-2.43,0-4.2,1.28-4.47.98-.13-.13.15-.67.92-1.24.76-.57,2.06-1.14,3.57-1.15,1.52-.01,2.8.53,3.54,1.09.76.56,1.02,1.09.88,1.23Z"/>
            <path class="cls-6" d="m80.39,57.51c-.01-.14,1.5-.42,3.94-.76.62-.07,1.21-.2,1.31-.63.14-.45-.13-1.12-.44-1.84-.6-1.5-1.24-3.07-1.9-4.71-2.64-6.71-4.56-12.22-4.29-12.33.27-.1,2.63,5.25,5.27,11.95.64,1.65,1.24,3.23,1.82,4.74.24.7.66,1.5.35,2.44-.16.47-.61.81-1.01.92-.4.13-.75.14-1.05.16-2.47.16-4,.2-4.01.06Z"/>
            <path class="cls-4" d="m81.19,86.31s-11.86.92-23.7-6c0,0,6.45,12.14,24.08,10.27l-.38-4.27Z"/>
            <path class="cls-6" d="m73.25,59.28c.4-.03.43,2.61,2.72,4.46,2.28,1.85,5.09,1.52,5.12,1.89.04.17-.62.52-1.81.57-1.17.05-2.87-.3-4.27-1.43-1.39-1.13-2.01-2.66-2.11-3.74-.11-1.1.17-1.76.35-1.75Z"/>
            <path class="cls-6" d="m93.28,28.99c-.4.6-2.27.23-4.45.44-2.18.14-3.97.81-4.46.28-.22-.26.01-.84.76-1.45.74-.6,2.01-1.17,3.51-1.29,1.5-.12,2.85.24,3.66.72.83.48,1.14,1.02.97,1.31Z"/>
            <path class="cls-6" d="m69.75,47.99c.02,1.2,1.04,2.17,2.29,2.17,1.25,0,2.24-.96,2.23-2.15-.02-1.2-1.05-2.17-2.29-2.17-1.25,0-2.25.96-2.23,2.16Z"/>
            <path class="cls-6" d="m61.8,38.72c.29.28,1.94-1.07,4.37-1.19,2.43-.15,4.27,1.01,4.52.7.12-.14-.19-.66-.99-1.18-.79-.52-2.13-1.01-3.64-.92-1.51.09-2.76.71-3.46,1.31-.72.61-.95,1.16-.8,1.28Z"/>
            <path class="cls-6" d="m62.73,30.85c.51.53,2.35-.14,4.61-.28,2.25-.21,4.18.16,4.59-.44.18-.29-.15-.83-1.01-1.31-.85-.48-2.25-.84-3.79-.72-1.55.12-2.87.69-3.62,1.3-.77.61-1,1.19-.78,1.45Z"/>
          </g>
          <g>
            <path class="cls-5" d="m46.5,53.51c-.02-1.31-1.58-4.39-2.88-4.58-3.47-.5-9.71-.14-9.66,8.66.08,12.03,12.14,9.47,12.15,9.12.01-.27.45-8.67.38-13.21Z"/>
            <path class="cls-4" d="m42.77,62.34c-.05-.04-.21.15-.56.31-.34.16-.94.27-1.57.04-1.27-.46-2.36-2.47-2.43-4.64-.04-1.09.18-2.14.57-3,.36-.88.93-1.5,1.57-1.62.64-.15,1.09.23,1.24.57.16.34.09.58.15.6.03.03.26-.2.16-.7-.05-.24-.19-.52-.48-.75-.29-.23-.71-.35-1.16-.3-.93.07-1.76.93-2.18,1.88-.47.95-.75,2.13-.7,3.36.09,2.42,1.35,4.68,3.09,5.17.85.21,1.55-.04,1.91-.33.37-.3.43-.57.39-.59Z"/>
          </g>
        </g>
        <path class="cls-6" d="m43.13,49l3.26,2.95c12.29-13.47,35.83-46.71,34.52-44.73,0,0-9.25-3.09-18.91-.76-9.66,2.33-27.86,8.48-26.79,19.98,1.07,11.5,7.92,22.57,7.92,22.57Z"/>
        <path class="cls-2" d="m25.55,47.53s.03-.25.14-.71c.11-.46.33-1.12.69-1.94.73-1.63,2.17-3.88,4.62-5.97,2.41-2.15,5.82-3.99,9.75-5.53,3.92-1.58,8.37-2.9,12.67-5.1,4.34-2.13,8.16-4.77,11.38-7.43,3.21-2.69,5.83-5.43,7.86-7.87,2.02-2.44,3.47-4.57,4.44-6.06.44-.71.81-1.28,1.09-1.73.25-.39.39-.6.41-.59.02.01-.09.23-.31.65-.22.41-.54,1.03-.99,1.8-.91,1.53-2.31,3.71-4.31,6.21-1.99,2.49-4.6,5.29-7.83,8.03-3.24,2.71-7.09,5.39-11.47,7.55-4.36,2.23-8.84,3.54-12.74,5.08-3.91,1.5-7.28,3.27-9.67,5.34-2.44,2.01-3.91,4.17-4.69,5.74-.77,1.59-.98,2.57-1.04,2.55Z"/>
        <path class="cls-2" d="m29.16,49.18s-.19-.97.29-2.65c.45-1.66,1.72-3.96,4.12-5.94,2.37-2.04,5.87-3.43,9.73-4.6,3.88-1.14,8.08-2.54,12.15-4.78,4.07-2.23,7.67-4.84,10.61-7.59,2.95-2.73,5.3-5.51,7.08-7.98,1.81-2.45,2.99-4.63,3.84-6.1.37-.71.66-1.29.9-1.75.21-.4.33-.6.35-.59.02,0-.06.23-.24.65-.21.47-.48,1.07-.8,1.8-.79,1.52-1.92,3.74-3.7,6.25-1.75,2.52-4.09,5.36-7.05,8.14-2.95,2.8-6.59,5.46-10.7,7.71-4.11,2.27-8.41,3.68-12.28,4.79-3.86,1.13-7.28,2.46-9.62,4.39-2.37,1.88-3.66,4.08-4.16,5.68-.53,1.61-.43,2.59-.52,2.58Z"/>
        <path class="cls-2" d="m44.9,69.25c0-.08-1.03-.14-2.83-.49-1.8-.37-4.36-1.28-6.96-3.29-2.62-1.98-5.04-5.16-6.87-9.1-1.82-3.94-3.07-8.64-3.53-13.64-.22-2.5-.19-4.95.09-7.3.31-2.34.85-4.57,1.55-6.63,1.44-4.11,3.5-7.51,5.55-10.08,4.13-5.18,7.71-7.39,7.56-7.55-.02-.02-.24.11-.64.39-.4.29-1.01.67-1.73,1.27-1.47,1.15-3.5,2.96-5.63,5.54-2.14,2.57-4.29,6.01-5.8,10.19-.73,2.1-1.3,4.37-1.63,6.77-.3,2.4-.33,4.92-.1,7.47.47,5.09,1.77,9.86,3.66,13.88,1.9,4.01,4.45,7.26,7.19,9.24,2.72,2.02,5.4,2.86,7.24,3.15.92.19,1.66.15,2.14.19.49.02.75.02.75,0Z"/>
      </g>
      <g>
        <g>
          <polygon class="cls-5" points="81.93 97.73 48.59 94.13 42.49 99.69 66.29 113.68 76.79 119.12 87.16 115.97 90.45 109.79 81.93 97.73"/>
          <g>
            <path class="cls-3" d="m126.87,138.33s-10.45-20.05-13.04-24.44c-4.41-7.47-12.64-11.7-12.64-11.7l-19.26-4.46s2,9.65-9.99,10.32c-15.24.85-24.71-13.77-24.71-13.77,0,0-17.39,1.79-22.2,3.81-4.8,2.02-18.39,7.7-20.38,25.77L0,153.35l36.75,2.8-.51,39.26-.18,22.39c16.41,6.83,40.9,10.74,63.85,4.58,1.39-.37.67-16.32,3.87-32.65l6.05-14.69c2.42-5.88,3.93-12.12,4.28-18.47.23-4.18.12-7.34.12-7.34,0,0,9.43-3.24,12.63-10.9Z"/>
            <g>
              <path class="cls-5" d="m97.92,209.21l-61.61-18.49.44-34.57-31.37-2.39s2.5,17.92,2.87,27.1c.53,13.21,6.88,31.68,11.13,35.6,4.25,3.92,80.18,8.18,80.18,8.18l-1.64-15.42Z"/>
              <path class="cls-5" d="m132.86,220.09c-.51.84-1.47,1.34-2.44,1.18-.19-.03-.39-.09-.6-.17-1.35-.55-1-3.36-1-3.36l-6.56-1.6s-9.07,4.9-12.43,8.35c-3.36,3.45-10.96-.14-10.96-.14l-1.62-14.36,13.08-10.11s-.8.6.2-1.4c1-2,4.78-.92,4.78-.92.68-.98,3.21-1.15,3.21-1.15l10.63,2.07c2.19.43,4.07,1.82,5.11,3.79l3.98,7.53s1.99,5.35,1.52,6.52c-.72,1.77-2.61,1.22-2.61,1.22,0,0-.79,3.36-1.69,3.41-.9.05-2.6-.84-2.6-.84h0Z"/>
              <path class="cls-4" d="m110.82,208.15c0,.11,1.44.09,3.72.37,2.28.29,5.41.93,8.62,2.32,1.61.68,3.08,1.47,4.36,2.28,1.24.83,2.54,1.53,2.89,2.51.17.48.04.94-.22,1.27-.25.33-.58.53-.86.62-.58.19-.93,0-.95.07-.03.01.31.32,1.02.19.34-.06.75-.26,1.09-.63.35-.35.58-1.02.38-1.66-.18-.64-.68-1.17-1.22-1.61-.55-.43-1.14-.87-1.79-1.29-1.29-.85-2.79-1.68-4.44-2.38-3.29-1.41-6.52-2-8.84-2.17-2.33-.16-3.77.04-3.77.11Z"/>
              <path class="cls-4" d="m109.54,214.93c0,.2,4.37.36,9.71,1.09,5.34.71,9.6,1.72,9.65,1.52.02-.09-1.02-.45-2.74-.89-1.72-.44-4.13-.94-6.82-1.31-2.69-.36-5.15-.52-6.92-.55-1.78-.03-2.88.05-2.88.14Z"/>
              <path class="cls-4" d="m132.82,219.81s.11-.39.22-1.13c.1-.73.23-1.8.25-3.14,0-.67,0-1.4-.13-2.2-.11-.8-.42-1.65-.87-2.42-.85-1.54-2.08-3.16-3.7-4.43-1.62-1.25-3.24-2.34-4.93-2.99-1.67-.65-3.26-.9-4.58-1.06-1.32-.15-2.39-.2-3.13-.23-.74-.03-1.15-.02-1.15.03-.01.11,1.62.29,4.22.69,1.29.22,2.83.52,4.41,1.17,1.57.64,3.17,1.72,4.73,2.94,1.56,1.23,2.71,2.71,3.58,4.21.93,1.43,1,3,1.06,4.3.06,2.62-.14,4.26.01,4.27Z"/>
              <path class="cls-4" d="m118.84,199.16c0,.1,1.59.27,4.13.76,2.44.57,6.37,1.06,8.36,4.63,2.2,3.28,4.04,6.36,4.76,8.83.78,2.45.56,4.09.7,4.09.04,0,.13-.4.15-1.13.03-.73-.05-1.81-.39-3.09-.63-2.59-2.45-5.78-4.66-9.08-.56-.83-1.18-1.62-1.92-2.27-.73-.66-1.62-1.07-2.43-1.38-1.65-.61-3.2-.87-4.49-1.07-2.59-.38-4.21-.37-4.21-.28Z"/>
              <path class="cls-4" d="m112.36,222.38s.24-.13.67-.44c.49-.33,1.12-.77,1.91-1.3,1.68-1.1,4.17-2.66,7.42-4.31l-.15.02c1.95.49,4.16,1.04,6.55,1.64l-.21-.3c-.06.54-.07,1.07,0,1.63.07.55.2,1.14.63,1.65.23.25.56.41.85.47.29.1.61.15.93.13.64-.04,1.26-.33,1.72-.79.12-.11.22-.24.32-.37l.07-.1.03-.05.02-.03h0c.09-.03-.76.21-.4.11h0s.01.01.01.01l.2.1c.27.13.55.26.83.37.29.11.58.22.89.3.16.04.32.08.49.09.16.02.36.04.62-.07.39-.24.55-.54.72-.83.16-.29.29-.59.4-.89.23-.6.41-1.21.57-1.85l-.41.24c.85.22,1.88.09,2.54-.65.3-.35.55-.78.56-1.3.01-.47-.06-.88-.14-1.3-.34-1.66-.87-3.28-1.46-4.92v-.02s-.02-.02-.02-.02c-.68-1.28-1.39-2.64-2.12-4.02-.45-.85-.9-1.7-1.35-2.55-.45-.82-.84-1.73-1.5-2.48-.64-.75-1.42-1.36-2.28-1.79-.85-.45-1.83-.62-2.69-.78-3.52-.67-6.88-1.32-10.02-1.92h-.04s-.04,0-.04,0c-.63.06-1.22.16-1.81.33-.57.18-1.18.39-1.62.96l.38-.09c-1.1-.55-2.41-.66-3.46-.07-1.05.58-1.59,1.6-1.91,2.58l.09-.13c-3.75,2.88-6.82,5.24-9.01,6.92-1.01.8-1.82,1.43-2.43,1.92-.55.44-.83.69-.82.71.02.02.33-.18.91-.59.63-.45,1.47-1.05,2.51-1.81,2.22-1.64,5.33-3.93,9.15-6.74l.06-.05.03-.09c.29-.86.82-1.8,1.68-2.24.84-.48,1.99-.37,2.91.1l.23.12.15-.2c.26-.34.79-.57,1.31-.72.53-.15,1.11-.25,1.68-.29h-.08c3.14.61,6.49,1.28,10.01,1.97.9.17,1.74.32,2.52.73.78.39,1.49.94,2.06,1.62.58.66.95,1.51,1.41,2.36.44.84.89,1.69,1.34,2.55.73,1.38,1.45,2.73,2.12,4.01l-.02-.04c.58,1.6,1.11,3.22,1.44,4.8.08.39.14.8.13,1.15.01.31-.17.62-.39.89-.43.51-1.22.63-1.86.47l-.33-.08-.08.32c-.15.6-.32,1.2-.54,1.77-.2.53-.49,1.18-.81,1.38-.02,0-.13.03-.27,0-.13-.01-.27-.04-.4-.07-.27-.07-.55-.16-.82-.27-.27-.11-.53-.22-.79-.35l-.19-.09h-.01s0,0,0,0c.36-.1-.49.14-.41.11h0s-.01.02-.01.02l-.03.04-.05.08c-.08.1-.16.2-.25.29-.36.36-.85.59-1.34.63-.25.02-.49-.02-.73-.1-.26-.06-.43-.15-.59-.3-.58-.71-.58-1.89-.51-2.83l.02-.25-.22-.05c-2.4-.57-4.61-1.09-6.57-1.55l-.08-.02-.07.04c-3.26,1.72-5.71,3.34-7.36,4.51-.82.59-1.44,1.07-1.84,1.4-.41.34-.61.52-.6.54Z"/>
            </g>
          </g>
        </g>
        <g>
          <path class="cls-2" d="m204.01,224.33l20.66-54.27c.78-2.04-.73-4.23-2.92-4.23h-66.35c-1.21,0-2.31.7-2.83,1.8l-19.87,51.76-41.68.71c-1.72,0-3.12,1.4-3.12,3.12h0c0,1.72,1.4,3.12,3.12,3.12h110.07c1.29,0,2.46-.8,2.92-2.01Z"/>
          <path class="cls-1" d="m175.92,196.09c0,2.4,1.95,4.35,4.35,4.35s4.35-1.95,4.35-4.35-1.95-4.35-4.35-4.35-4.35,1.95-4.35,4.35Z"/>
        </g>
        <path class="cls-6" d="m104.72,116.18c-.11.06.89,1.93,2.29,5.04,1.4,3.11,3.14,7.5,4.55,12.51,1.39,5.02,2.18,9.67,2.59,13.06.41,3.39.53,5.5.65,5.5.05,0,.07-.53.07-1.49,0-.96-.06-2.35-.2-4.06-.28-3.42-.99-8.14-2.39-13.2-1.42-5.06-3.25-9.46-4.79-12.54-.77-1.54-1.43-2.76-1.93-3.58-.5-.82-.79-1.26-.84-1.24Z"/>
        <path class="cls-6" d="m0,153.35s.26.06.76.12c.57.06,1.3.13,2.21.22,2.01.17,4.79.4,8.24.69,7.1.53,16.91,1.27,28.16,2.12l.36.03.02-.36c.24-3.74.49-7.69.74-11.75.4-7.07.74-13.81.85-19.95.32-6.17-1.19-11.81-3.61-15.82-2.4-4.07-5.57-6.43-7.89-7.59-1.18-.56-2.13-.93-2.8-1.09-.66-.19-1.01-.27-1.01-.25-.03.1,1.4.39,3.68,1.59,2.24,1.22,5.29,3.59,7.58,7.6,2.31,3.97,3.73,9.44,3.38,15.54-.15,6.12-.51,12.86-.91,19.92-.25,4.06-.49,8.01-.72,11.74l.39-.34c-11.26-.74-21.08-1.39-28.18-1.86-3.45-.2-6.24-.36-8.25-.48-.91-.04-1.64-.07-2.21-.1-.5-.01-.77-.01-.77,0Z"/>
        <path class="cls-6" d="m69.09,177.36s.46-.12,1.23-.45c.39-.16.86-.38,1.38-.69.52-.3,1.13-.61,1.74-1.07,1.27-.83,2.66-2,4.06-3.44,1.37-1.47,2.73-3.22,3.89-5.23,1.13-2.03,1.95-4.09,2.51-6.02.52-1.94.82-3.73.88-5.25.08-.75.03-1.44.03-2.04,0-.6-.05-1.12-.11-1.54-.11-.84-.19-1.3-.24-1.29-.15.01.09,1.87-.2,4.82-.13,1.48-.47,3.22-1.02,5.1-.59,1.87-1.4,3.87-2.5,5.84-1.13,1.96-2.44,3.68-3.74,5.13-1.34,1.43-2.66,2.61-3.86,3.48-2.39,1.76-4.11,2.5-4.04,2.64Z"/>
      </g>
    </g>
  </g>
</svg>