<?xml version="1.0" encoding="UTF-8"?><svg id="Layer_2" xmlns="http://www.w3.org/2000/svg" viewBox="0 0 34.26 36"><defs><style>.cls-1{fill:#29339b;}</style></defs><g id="Layer_1-2"><g><path class="cls-1" d="M31.47,7.91c4.88-3.48,1.86-7.91,1.86-7.91,0,0-.53,3.13-5.82,3.39-4.15,.2-11.52-.14-19.24,.24C.54,4,.19,9.76,0,12.22l.99-.89c2.3-1.7,8.34-2.05,13.7-1.58,8.67,.76,14.97-.55,16.78-1.84Z"/><path class="cls-1" d="M31.47,19.8c4.88-3.48,1.86-7.91,1.86-7.91,0,0-.53,3.13-5.82,3.39-4.15,.2-11.52-.14-19.24,.24C.54,15.89,.19,21.65,0,24.11l.99-.89c2.3-1.7,8.34-2.05,13.7-1.58,8.67,.76,14.97-.55,16.78-1.84Z"/><path class="cls-1" d="M31.47,31.69c4.88-3.48,1.86-7.91,1.86-7.91,0,0-.53,3.13-5.82,3.39-4.15,.2-11.52-.14-19.24,.24S.19,33.54,0,36l.99-.89c2.3-1.7,8.34-2.05,13.7-1.58,8.67,.76,14.97-.55,16.78-1.84Z"/></g></g></svg>