<?xml version="1.0" encoding="UTF-8"?><svg id="Layer_2" xmlns="http://www.w3.org/2000/svg" viewBox="0 0 45.34 78.62"><defs><style>.cls-1{fill:#fff;}.cls-2{opacity:.6;}.cls-3{fill:#ffbf9d;}.cls-4{fill:#ff9a6c;}.cls-5{fill:#e1e1e1;}.cls-6{opacity:.3;}.cls-7{fill:#375a64;}.cls-8{fill:#f5d84d;}.cls-9{fill:#1a2e35;}</style></defs><g id="Layer_1-2"><g><path class="cls-9" d="M10.39,12.9c-1.01,.65-2.22,.99-3.43,.98-.38,0-.77-.05-1.15-.01-.38,.03-.77,.15-1.05,.41-.28,.26-.42,.69-.27,1.05,.22,.5,.92,.69,1.02,1.22,.08,.38-.21,.75-.53,.97s-.7,.37-.97,.65c-.32,.34-.45,.85-.32,1.3,.13,.45,.52,.81,.97,.91,.27,.06,.61,.06,.76,.3,.1,.17,.07,.38,.04,.57-.05,.41-.03,.84,.16,1.21s.57,.65,.99,.64c.16,0,.32-.05,.48-.05,.16,0,.34,.08,.39,.23,.03,.11,0,.22-.02,.33-.06,.54,.48,.96,1,1.12,1.04,.31,2.21,.01,3.09-.63,.88-.64,1.5-1.59,1.91-2.6,.41-1.01,.63-2.08,.85-3.15"/><g><path class="cls-8" d="M22.06,39.89c-.1-.29-.3-.54-.52-.77-1.38-1.47-3.47-2.17-5.49-2.06-2.01,.11-3.94,.99-5.51,2.26-.84,.68-1.96,1.98-2.25,3.02,1.23,.3,3.06-.12,4.21-.62,1.16-.5,2.3-1.11,3.55-1.24,1.45-.15,2.88,.37,4.31,.66,.29,.06,.58,.11,.87,.07,.29-.04,.58-.17,.74-.42,.17-.26,.18-.6,.07-.9Z"/><g class="cls-6"><path d="M22.06,39.89c-.1-.29-.3-.54-.52-.77-1.38-1.47-3.47-2.17-5.49-2.06-2.01,.11-3.94,.99-5.51,2.26-.84,.68-1.96,1.98-2.25,3.02,1.23,.3,3.06-.12,4.21-.62,1.16-.5,2.3-1.11,3.55-1.24,1.45-.15,2.88,.37,4.31,.66,.29,.06,.58,.11,.87,.07,.29-.04,.58-.17,.74-.42,.17-.26,.18-.6,.07-.9Z"/></g><g><g><path class="cls-8" d="M21.05,57.39l3.5-2.27s3.48,2.8,4.17,2.44l-4.15-6.94-5.6,3.31,2.08,3.46Z"/><path class="cls-5" d="M22.97,53.16c-.04-.16,.05-.34,.21-.39,.15-.05,.34,.05,.39,.2,.05,.16-.06,.38-.22,.41-.16,.03-.37-.09-.38-.25"/><g class="cls-2"><path class="cls-1" d="M24.57,50.62l-.55,.36,4.19,6.52s.32,.23,.52,.06l-4.15-6.94Z"/></g><path class="cls-9" d="M24.59,55.26s-.05-.2-.04-.43c0-.23,.1-.41,.07-.43-.03-.03-.2,.14-.2,.43,0,.28,.15,.46,.18,.44Z"/><path class="cls-9" d="M25.32,55.81s0-.19,.08-.39c.07-.2,.21-.32,.18-.36-.01-.04-.23,.06-.31,.31-.09,.25,.01,.46,.05,.44Z"/><path class="cls-9" d="M26.44,55.7s-.21,.02-.34,.22c-.14,.2-.11,.4-.08,.4,.04,0,.08-.16,.19-.32,.11-.16,.25-.26,.23-.29Z"/><path class="cls-9" d="M23.73,55.69s-.12-.16-.22-.36c-.11-.2-.13-.38-.17-.39-.04,0-.07,.22,.05,.45,.12,.23,.32,.33,.34,.3Z"/></g><polygon class="cls-6" points="21.61 52.37 23.2 56 22.67 56.38 20.83 52.84 21.61 52.37"/></g><g><path class="cls-9" d="M19.53,38.13c-.14,0-4.85-.1-7.39,1.57l-2.01,1.13,.05,2.04s-.43,.72-.34,1.15c.1,.43-.01,2.25-.01,2.25,0,0-.75,.05-.85,1.34,0,0-1.05,.43-1.51,1.2-.46,.77-5.16,9.4-5.45,10.79-.29,1.39-.48,3.84,.58,4.65,1.05,.81,3.4,.53,3.4,.53,0,0,.34,1.01,2.4,1.05,2.06,.05,5.23-2.35,5.23-2.35l9.49-6.47-2.25-4.81-3.32,2.03,3.55-4.12s1.63-2.78,1.15-5.7c-.36-2.17-2.73-6.28-2.73-6.28Z"/><path class="cls-7" d="M20.34,39.63s-.04,0-.11,0c-.08,0-.19,0-.32,0-.28,0-.68,0-1.17,0-.5,0-1.09,.02-1.74,.09-.65,.07-1.36,.19-2.07,.43-1.43,.48-2.58,1.25-3.4,1.8-.4,.28-.73,.5-.97,.67-.11,.07-.19,.13-.26,.18-.06,.04-.09,.06-.1,.06s.03-.03,.08-.07c.07-.05,.15-.12,.25-.2,.22-.17,.54-.41,.95-.69,.81-.56,1.96-1.35,3.41-1.84,.72-.25,1.44-.37,2.1-.43,.65-.06,1.25-.07,1.74-.07,.5,0,.9,.02,1.18,.03,.13,0,.24,.01,.32,.02,.07,0,.11,.01,.11,.01Z"/><path class="cls-7" d="M10.65,41.12s-.12,.08-.15,.28c-.01,.09,0,.21,.1,.3,.09,.08,.24,.13,.37,.08,.13-.05,.21-.19,.21-.31,.01-.12-.06-.23-.13-.28-.16-.12-.3-.08-.3-.1,0,0,.03-.02,.09-.03,.06,0,.15,0,.25,.07,.09,.06,.19,.18,.18,.34,0,.15-.1,.32-.27,.39-.17,.07-.36,0-.46-.1-.11-.11-.13-.27-.11-.37,.03-.11,.08-.18,.13-.22,.05-.04,.08-.05,.08-.04Z"/><path class="cls-7" d="M12.34,41.37s-.08-.04-.17-.14c-.09-.1-.22-.24-.27-.46-.05-.21,0-.4,.04-.53,.04-.13,.08-.2,.09-.2,.01,0,0,.09-.03,.21-.02,.13-.06,.31-.02,.49,.04,.18,.16,.33,.23,.43,.08,.1,.13,.17,.12,.18Z"/><path class="cls-7" d="M12.74,41.12s-.07-.03-.16-.12c-.08-.09-.19-.24-.24-.42-.1-.37-.03-.68-.01-.68,.03,0,0,.31,.1,.65,.1,.34,.33,.55,.31,.57Z"/><path class="cls-7" d="M17.82,39.63s-.02-.09-.03-.22c-.01-.13-.04-.32-.11-.51-.08-.19-.2-.33-.29-.43-.09-.1-.15-.16-.14-.17,0,0,.08,.03,.19,.12,.1,.09,.24,.24,.33,.44,.08,.2,.1,.4,.09,.54,0,.14-.02,.22-.03,.22Z"/><path class="cls-7" d="M18.44,39.61s-.02-.09-.01-.22c0-.13,.01-.32-.04-.51-.06-.18-.17-.34-.24-.45-.07-.11-.11-.19-.1-.2,.01,0,.07,.05,.15,.16,.08,.11,.21,.25,.28,.46,.06,.21,.03,.41,.02,.54-.02,.13-.04,.22-.05,.21Z"/><path class="cls-7" d="M10.32,60.46s.02-.08,.09-.21c.06-.14,.16-.34,.29-.59,.26-.51,.65-1.25,1.13-2.15,.96-1.81,2.3-4.31,3.8-7.06,.37-.69,.74-1.36,1.09-2.01,.35-.65,.6-1.31,.77-1.97,.35-1.31,.34-2.55,.19-3.56-.15-1.01-.45-1.8-.68-2.32-.12-.26-.22-.46-.29-.59-.03-.06-.06-.11-.08-.15-.02-.03-.03-.05-.02-.05,0,0,.01,.02,.03,.05,.02,.04,.05,.09,.09,.15,.08,.13,.18,.33,.3,.59,.24,.52,.55,1.3,.71,2.32,.16,1.01,.17,2.27-.17,3.59-.17,.66-.42,1.33-.78,1.99-.35,.65-.72,1.32-1.09,2.01-1.49,2.75-2.84,5.24-3.82,7.05-.48,.9-.88,1.63-1.15,2.14-.13,.25-.24,.44-.31,.58-.03,.06-.06,.11-.08,.15-.01,.03-.02,.05-.02,.05Z"/><path class="cls-7" d="M20.91,54.25s-.03,.03-.1,.07c-.08,.05-.18,.11-.3,.19-.28,.17-.66,.41-1.12,.69-.95,.59-2.26,1.4-3.68,2.33-1.43,.93-2.71,1.78-3.64,2.4-.46,.3-.83,.55-1.1,.73-.12,.08-.22,.15-.3,.2-.07,.04-.11,.07-.11,.06,0,0,.03-.03,.1-.08,.07-.05,.17-.12,.29-.21,.26-.19,.63-.44,1.08-.76,.92-.63,2.19-1.5,3.62-2.43,1.43-.93,2.74-1.73,3.7-2.31,.48-.29,.87-.51,1.14-.67,.13-.07,.23-.13,.31-.18,.07-.04,.11-.06,.11-.06Z"/><path class="cls-7" d="M22.39,57.51s-.04-.07-.09-.19c-.06-.14-.14-.32-.23-.52-.2-.44-.48-1.04-.8-1.7-.31-.65-.59-1.24-.81-1.7-.09-.2-.17-.38-.24-.52-.06-.12-.08-.19-.08-.2,0,0,.04,.06,.11,.18,.07,.12,.16,.29,.27,.5,.22,.43,.52,1.02,.84,1.69,.32,.66,.59,1.27,.77,1.72,.09,.22,.16,.41,.2,.53,.04,.13,.06,.2,.05,.2Z"/><path class="cls-7" d="M10.32,60.46s1.61-1.45,3.63-3.2c2.02-1.75,3.67-3.15,3.69-3.13s-1.61,1.45-3.63,3.21c-2.02,1.75-3.67,3.15-3.69,3.13Z"/><path class="cls-7" d="M8.31,63.83s.19-.13,.39-.43c.2-.3,.44-.75,.71-1.24,.27-.49,.5-.94,.67-1.26,.17-.33,.27-.53,.29-.52,.01,0-.07,.22-.23,.55-.15,.33-.38,.79-.65,1.28-.27,.49-.52,.93-.74,1.23-.11,.15-.22,.26-.3,.32-.08,.06-.14,.08-.14,.08Z"/><path class="cls-7" d="M10.03,64.35s.09-.21,.2-.55c.11-.34,.23-.83,.3-1.38,.06-.55,.06-1.05,0-1.41-.03-.18-.08-.31-.12-.4-.05-.08-.09-.13-.08-.14,0,0,.05,.03,.11,.12,.05,.09,.12,.23,.16,.41,.09,.36,.1,.88,.04,1.43-.07,.56-.2,1.05-.33,1.39-.07,.17-.13,.31-.18,.4-.05,.09-.08,.14-.09,.13Z"/><path class="cls-7" d="M8.04,61.56s.14-.05,.36-.12c.22-.06,.53-.16,.85-.3,.64-.3,1.05-.71,1.08-.68,0,0-.09,.12-.27,.27-.18,.15-.44,.34-.77,.49-.33,.15-.64,.23-.87,.28-.23,.05-.37,.06-.37,.05Z"/><path class="cls-7" d="M10.47,48.23s0,.01-.02,.04c-.02,.03-.05,.06-.08,.11-.07,.09-.18,.24-.3,.42-.25,.37-.57,.94-.87,1.69-.3,.75-.57,1.67-.84,2.7-.27,1.03-.54,2.18-1.01,3.32-.47,1.14-1.06,2.16-1.44,3.16-.38,.99-.58,1.94-.57,2.74,0,.4,.05,.76,.12,1.07,.07,.31,.17,.57,.26,.77,.09,.2,.17,.36,.24,.46,.03,.05,.05,.09,.07,.12,.01,.03,.02,.04,.02,.04,0,0-.01-.01-.03-.04-.02-.03-.04-.07-.07-.11-.07-.1-.15-.25-.25-.45-.09-.21-.2-.46-.28-.78-.08-.31-.13-.68-.14-1.08-.01-.81,.18-1.77,.56-2.78,.38-1,.96-2.03,1.43-3.16,.46-1.14,.74-2.28,1.01-3.31,.27-1.03,.55-1.95,.86-2.7,.31-.75,.64-1.32,.9-1.69,.13-.19,.24-.32,.31-.41,.04-.04,.06-.08,.09-.1,.02-.02,.03-.03,.03-.03Z"/><path class="cls-7" d="M10.78,42.44s-.03,.08-.1,.22c-.06,.14-.14,.36-.18,.63-.04,.27-.03,.61,.03,.97,.06,.36,.21,.74,.31,1.16,.05,.21,.07,.43,.05,.63-.02,.21-.05,.4-.09,.58-.08,.36-.19,.68-.28,.95-.09,.27-.18,.48-.24,.62-.06,.15-.09,.23-.1,.22,0,0,.02-.09,.07-.24,.05-.17,.12-.38,.21-.63,.08-.27,.18-.59,.26-.95,.08-.36,.14-.76,.03-1.17-.1-.41-.25-.8-.3-1.17-.06-.37-.06-.71-.01-.99,.05-.28,.14-.5,.21-.64,.04-.07,.07-.12,.09-.16,.02-.03,.04-.05,.04-.05Z"/><path class="cls-7" d="M11,47.96s.28-.24,.46-.78c.09-.27,.15-.6,.14-.97,0-.37-.07-.78-.15-1.21-.08-.43-.17-.83-.2-1.21-.03-.38-.02-.72,.02-1.01,.04-.29,.1-.51,.16-.66,.03-.07,.06-.13,.08-.17,.02-.04,.03-.06,.04-.05,0,0-.03,.08-.08,.23-.05,.15-.1,.37-.13,.66-.03,.28-.03,.62,0,.99,.03,.37,.13,.78,.21,1.2,.08,.43,.15,.84,.15,1.22,0,.38-.07,.73-.17,1-.1,.27-.23,.47-.34,.59-.05,.06-.1,.1-.13,.13-.03,.03-.05,.04-.05,.04Z"/><path class="cls-7" d="M15.66,46.51s-.08,.02-.22,.04c-.14,.02-.35,.05-.6,.09-.51,.09-1.2,.24-1.95,.5-.74,.26-1.39,.56-1.84,.81-.23,.12-.41,.22-.53,.3-.13,.07-.2,.11-.2,.1,0,0,.06-.05,.18-.14,.12-.08,.3-.2,.52-.33,.45-.26,1.1-.58,1.85-.84,.75-.26,1.46-.41,1.97-.48,.26-.04,.47-.06,.61-.07,.14,0,.22-.01,.23,0Z"/><path class="cls-7" d="M15.95,44.51s-.27,.01-.7,.08c-.21,.03-.47,.09-.74,.17-.27,.09-.56,.2-.86,.36-.29,.15-.55,.33-.78,.5-.22,.18-.41,.35-.56,.51-.3,.31-.45,.54-.46,.53,0,0,.03-.06,.1-.16,.07-.1,.17-.25,.32-.41,.14-.17,.33-.35,.56-.53,.23-.18,.49-.36,.79-.52,.3-.15,.6-.27,.88-.35,.28-.08,.54-.13,.76-.16,.22-.03,.4-.03,.52-.03,.12,0,.19,0,.19,.01Z"/><path class="cls-7" d="M16.36,48.71s-.07,.03-.21,.08c-.13,.04-.33,.11-.57,.2-.48,.17-1.13,.43-1.82,.77-.69,.34-1.29,.7-1.72,.98-.21,.14-.38,.25-.5,.33-.12,.08-.18,.12-.19,.12,0,0,.06-.06,.17-.15,.11-.09,.28-.21,.48-.36,.42-.29,1.02-.66,1.71-1.01,.7-.34,1.36-.59,1.84-.75,.24-.08,.44-.13,.58-.17,.14-.03,.22-.05,.22-.04Z"/><path class="cls-7" d="M22.15,43.91s-.06-.02-.18-.06c-.11-.04-.28-.11-.5-.18-.43-.14-1.06-.31-1.83-.4l.05-.04c.02,.79,.02,1.73-.05,2.73-.08,1.08-.22,2.08-.39,2.9v-.02c.21,.69,.43,1.25,.61,1.63,.09,.19,.17,.33,.22,.43,.06,.1,.09,.15,.08,.15,0,0-.04-.04-.11-.14-.06-.09-.15-.24-.24-.42-.19-.38-.42-.93-.64-1.63h0s0-.02,0-.02c.16-.82,.3-1.82,.37-2.89,.07-1,.08-1.93,.07-2.72v-.05s.05,0,.05,0c.78,.1,1.41,.28,1.84,.44,.21,.08,.38,.15,.49,.2,.11,.05,.17,.08,.17,.09Z"/><path class="cls-7" d="M22.3,44.7s-.15-.03-.39-.11c-.24-.07-.56-.16-.93-.25-.73-.17-1.33-.28-1.33-.31,0-.01,.15,0,.4,.04,.24,.04,.58,.09,.95,.18,.74,.17,1.3,.42,1.29,.45Z"/><path class="cls-7" d="M21.42,41.88s-.22-.05-.58-.13c-.36-.08-.86-.18-1.42-.23-.56-.05-1.07-.04-1.44-.02-.37,.02-.6,.04-.6,.02,0,0,.06-.02,.16-.04,.1-.02,.25-.04,.44-.05,.37-.03,.88-.05,1.45,0,.56,.05,1.07,.15,1.42,.26,.18,.05,.32,.1,.42,.13,.1,.04,.15,.06,.15,.07Z"/><path class="cls-7" d="M17.68,42.71s-.08,.03-.24,.08c-.16,.04-.39,.09-.68,.14-.58,.1-1.39,.19-2.29,.11-.44-.04-.88-.09-1.23-.31-.17-.11-.3-.25-.38-.42-.08-.16-.09-.34-.07-.49,.05-.29,.14-.52,.21-.67,.07-.15,.13-.22,.13-.22,0,0-.04,.08-.1,.23-.06,.15-.14,.38-.17,.66-.02,.14,0,.3,.07,.44,.07,.15,.2,.28,.36,.38,.32,.2,.75,.25,1.19,.29,.88,.07,1.69,0,2.27-.09,.29-.04,.52-.08,.68-.11,.16-.03,.25-.05,.25-.04Z"/></g></g><g><g><path class="cls-9" d="M17.21,9.82c-.88-1.9-3.05-1.53-4.09-1.02-1.04,.5-1.82,1.3-2.3,2.43-.31,.73-.55,1.57-1.16,2.01-.27,.19-.59,.29-.87,.45-.29,.16-.56,.42-.61,.77-.09,.63,.54,1.07,1.08,1.33-.32,.22-.4,.71-.29,1.1s.37,.71,.63,1.01c.78,.93,2.18,2.06,3.18,2.69,1,.62,1.65,.7,2.73,.25,.44-.18,.84-.48,1.31-.53,.54-.06,1.06,.22,1.59,.33,.53,.11,1.21-.04,1.39-.61,.07-.22,.04-.45,.07-.68,.03-.23,.14-.47,.34-.52,.17-.04,.33,.06,.49,.11,.39,.13,.97,3,1.34,2.83,0,0,.54-4.87-.5-7.72-.33-.91-1.04-2.85-1.61-3.6-.78-1.04-2.64-.81-2.73-.62"/><g><path class="cls-3" d="M16.1,10.13c-1.38-.48-3.24,.58-3.67,1.98-.47,1.56-.98,3.47-1.07,4.69-.18,2.46,1.56,3.18,1.56,3.18l-.71,3.84,5.99-1.94,2.09-9.05,.19-.76-4.39-1.95Z"/><path class="cls-9" d="M12.43,14.01c.02,.05,.31-.02,.62,.1,.31,.12,.48,.37,.53,.34,.02-.01,.01-.09-.06-.21-.07-.11-.21-.25-.4-.32-.2-.08-.39-.07-.51-.03-.13,.04-.18,.09-.17,.12Z"/><path class="cls-9" d="M15.53,14.82s.28-.12,.62-.09c.33,.02,.57,.21,.61,.17,.02-.02-.01-.09-.12-.18-.1-.08-.27-.17-.48-.19-.21-.01-.39,.05-.5,.12-.11,.07-.15,.14-.13,.16Z"/><path class="cls-9" d="M14.14,16.2s-.19-.1-.51-.22c-.08-.03-.16-.06-.16-.12,0-.06,.05-.15,.11-.23,.13-.18,.26-.38,.4-.58,.56-.82,.98-1.51,.94-1.53-.03-.02-.51,.63-1.07,1.45-.13,.2-.26,.4-.39,.58-.05,.09-.13,.18-.12,.32,0,.07,.06,.13,.11,.15,.05,.03,.1,.04,.14,.05,.33,.1,.53,.15,.54,.13Z"/><path class="cls-4" d="M12.93,20s1.65,.49,3.45-.09c0,0-1.16,1.48-3.56,.69l.11-.6Z"/><g><path class="cls-4" d="M13.96,17.29s.01,.05,0,0h0Z"/><path class="cls-4" d="M15.03,17.13c-.07-.15-.21-.27-.36-.32-.22-.08-.47-.04-.65,.11-.11,.12-.07,.32-.06,.37,.12,.15,.13,.27,.29,.36,.16,.09,.57,.03,.7-.08,.12-.1,.14-.29,.07-.44Z"/></g><path class="cls-9" d="M15.05,16.65c-.05-.02-.14,.34-.5,.52-.36,.18-.73,.05-.75,.1-.01,.02,.07,.09,.23,.13,.16,.04,.4,.05,.62-.06,.22-.11,.35-.3,.4-.44,.05-.15,.03-.24,0-.25Z"/><path class="cls-9" d="M16.21,13.09c-.02,.09,.26,.19,.53,.39,.28,.19,.47,.42,.54,.37,.04-.03,.03-.12-.02-.25-.05-.13-.17-.29-.34-.4-.17-.12-.35-.17-.48-.18-.14,0-.23,.03-.24,.07Z"/><path class="cls-9" d="M12.63,12.75c.07,.07,.32-.03,.63-.07,.31-.04,.58,0,.63-.09,.02-.04-.03-.11-.15-.17-.12-.06-.31-.1-.53-.08-.21,.03-.39,.11-.49,.2-.1,.09-.13,.17-.1,.2Z"/><path class="cls-9" d="M20.82,12.08c-.08-.19-.28-.31-.46-.41-1.19-.65-2.43-1.23-3.69-1.72l-.52,.29c-.15,1.01,.37,2.09,1.27,2.58,.36,.2,.82,.38,.86,.79,.05,.42-.39,.71-.64,1.05-.31,.42-.32,1.03-.04,1.46,.16,.25,.4,.44,.55,.69,.19,.34,.2,.77,.05,1.13-.15,.36-.4,.85-.73,1.05,.89,.23,1.94-.22,2.4-1.01,.28-.47,.3-1.05,.34-1.6,.08-1.25,.28-2.49,.59-3.7,.05-.21,.11-.43,.02-.62Z"/><path class="cls-9" d="M16.76,10.01c-.34,.41-.69,.82-1.14,1.1-.45,.28-1.03,.41-1.52,.21,.12-.14,.25-.27,.37-.41-.88,.6-1.88,1.01-2.92,1.21,.66-.8,1.33-1.61,2.23-2.13,.9-.52,2.07-.67,2.95-.12"/></g></g><path class="cls-9" d="M20.95,14.65l-2.8,2.17c.32,.35,.2,1.24-.12,1.6-.31,.35-.73,.66-.86,1.11-.14,.5,.13,1.02,.14,1.54,.01,.74-.48,1.36-.86,1.99-.38,.63-.66,1.47-.23,2.07,.48,.68,1.56,.58,2.22,.07,.66-.51,1.03-1.28,1.52-1.95,.49-.67,1.25-1.18,2.07-1.1,.27-2.5-.12-5.18-1.07-7.51Z"/><path class="cls-9" d="M21.41,20.71s.15-.15,.43-.38c.28-.23,.69-.56,1.06-1.07,.18-.25,.35-.55,.47-.9,.12-.34,.19-.73,.17-1.12-.02-.4-.16-.8-.38-1.17-.23-.37-.55-.71-.93-1-.75-.58-1.64-.92-2.44-1.27-.8-.34-1.52-.7-2.05-1.13-.54-.42-.87-.87-1.04-1.2-.17-.34-.2-.55-.17-.56,.04-.01,.12,.17,.33,.46,.21,.29,.56,.67,1.09,1.03,.52,.37,1.22,.68,2.02,.99,.4,.16,.83,.32,1.26,.53,.43,.2,.88,.44,1.3,.77,.41,.32,.77,.7,1.04,1.14,.26,.43,.41,.92,.42,1.39,.02,.47-.08,.91-.23,1.29-.15,.38-.36,.7-.58,.96-.44,.53-.9,.83-1.22,1.02-.32,.18-.52,.25-.54,.22Z"/><path class="cls-7" d="M21.47,14.11s-.09-.02-.24-.08c-.15-.06-.38-.14-.65-.26-.54-.23-1.29-.57-2-1.14-.71-.57-1.16-1.3-1.33-1.86-.09-.28-.12-.52-.13-.69,0-.08,0-.15,0-.19,0-.04,0-.07,0-.07,.02,0,0,.37,.19,.92,.18,.55,.63,1.25,1.32,1.81,.69,.56,1.44,.9,1.97,1.15,.25,.11,.47,.21,.63,.28,.15,.07,.23,.11,.23,.11Z"/><path class="cls-7" d="M21.55,16.9s.05-.11,.07-.32c.03-.2,0-.52-.15-.86-.15-.34-.44-.7-.85-.98-.4-.29-.9-.52-1.4-.82-.5-.3-.93-.67-1.25-1.05-.33-.38-.56-.78-.73-1.12-.16-.35-.26-.64-.31-.85-.03-.1-.04-.18-.05-.24,0-.05-.01-.08-.01-.08,0,0,.04,.11,.1,.31,.06,.2,.16,.49,.33,.83,.17,.33,.41,.72,.73,1.09,.32,.38,.74,.74,1.23,1.03,.49,.29,.99,.53,1.4,.83,.41,.29,.71,.67,.86,1.02,.16,.35,.17,.68,.12,.89-.02,.11-.05,.18-.07,.24-.02,.05-.04,.08-.04,.08Z"/><path class="cls-7" d="M6.09,15.03s0-.01,.02-.03c.01-.02,.03-.05,.06-.08,.06-.07,.15-.16,.31-.23,.16-.07,.37-.09,.6-.1,.24-.01,.51-.03,.81-.03,.3,0,.63,0,.96-.09,.34-.08,.67-.26,.97-.51,.3-.25,.56-.58,.79-.93,.23-.36,.43-.76,.63-1.17,.2-.41,.41-.81,.66-1.16,.24-.36,.54-.67,.87-.9,.66-.47,1.39-.63,1.99-.65,.61-.02,1.09,.12,1.4,.25,.08,.03,.14,.06,.2,.09,.05,.03,.1,.06,.14,.08,.08,.04,.12,.07,.11,.07,0,0-.04-.02-.12-.05-.04-.02-.09-.04-.15-.07-.06-.02-.13-.05-.21-.08-.31-.12-.79-.24-1.38-.21-.59,.03-1.3,.19-1.94,.65-.32,.23-.6,.53-.84,.88-.24,.35-.45,.75-.65,1.15-.2,.41-.4,.81-.64,1.17-.24,.36-.5,.69-.81,.95-.31,.26-.66,.44-1.01,.52-.35,.08-.68,.08-.98,.08-.3,0-.57,0-.81,.02-.24,0-.44,.03-.59,.09-.15,.06-.25,.15-.31,.21-.06,.06-.09,.1-.09,.1Z"/></g><g><path class="cls-3" d="M4.97,12.56c-1.1-2.78-2.56-5.5-2.77-7.58L0,5.07c.05,.8,.33,7.48,1.89,10.11,1.55,2.64,6.74,8.81,6.74,8.81l1.83-4.7s-4.39-3.96-5.49-6.74Z"/><path class="cls-3" d="M1.32,.67H.36s.09,.57,.53,.6c.44,.03,.35-.07,.35-.07l-.1,.09-.6,.12s.03,.47,.43,.54l.58-.54-.23-.74Z"/><path class="cls-3" d="M3.94,.59c-.09,.72-.1,.68-.1,.68l-.88,.72-.22-1.07c-.03-.14-.15-.25-.3-.26l-.4-.02s.16-.55-.35-.51c0,0-.28-.08-.5,.85C.96,1.99-.09,4.35,0,5.14l2.22,.09c-.02-.74,.58-1.52,.88-1.85,.09-.1,.16-.22,.19-.35,.03-.13,.1-.32,.25-.49,.27-.3,.85-.85,.85-.85V0s-.37-.12-.46,.58Zm-1.79,1.62l-.46,.21,.08-.47,.38-.04v.3Z"/><path class="cls-4" d="M1.68,2.46s0-.07,.02-.2c.02-.13,.05-.31,.1-.53,.05-.23,.1-.49,.15-.78,.03-.15,.07-.3,.08-.46,0-.15-.06-.32-.22-.33-.15-.03-.28,.1-.35,.23-.04,.06-.06,.14-.09,.21-.02,.07-.05,.15-.07,.22-.09,.28-.17,.54-.24,.76-.07,.22-.14,.39-.19,.51-.05,.12-.08,.18-.09,.18,0,0,.02-.07,.06-.19,.04-.12,.1-.29,.16-.51,.06-.23,.14-.48,.22-.77,.02-.07,.05-.15,.07-.22,.02-.07,.05-.16,.09-.23,.04-.07,.1-.15,.17-.2,.07-.06,.18-.09,.28-.07,.05,0,.09,.02,.14,.05,.04,.03,.08,.07,.1,.11,.04,.08,.06,.18,.06,.26,0,.17-.05,.32-.08,.47-.06,.29-.12,.55-.17,.78-.05,.22-.09,.4-.13,.52-.03,.12-.05,.19-.06,.19Z"/><path class="cls-4" d="M2.13,2.21s0-.25-.03-.54c0-.07-.01-.14-.02-.21,0-.07-.01-.11-.04-.13-.06-.05-.14-.05-.13-.06,0,0,.02-.01,.04-.02,.03,0,.07,0,.13,.02,.06,.03,.08,.11,.09,.18,.01,.07,.02,.14,.03,.21,.02,.31-.04,.55-.07,.55Z"/><path class="cls-4" d="M3.22,1.8s-.06,.08-.18,.19c-.12,.1-.3,.24-.52,.34-.23,.11-.45,.13-.61,.14-.16,.01-.26,0-.26,0,0-.01,.1-.03,.25-.06,.15-.03,.37-.07,.58-.16,.21-.1,.39-.22,.52-.31,.13-.09,.21-.14,.22-.13Z"/></g><g><path class="cls-3" d="M20.66,22.64s2.47-.07,3.95-.51c1.48-.44,7.16-1.79,7.16-1.79l9.11-1.52,.18,2.36s-8.46,2.47-10.11,3.04c-1.64,.56-9.16,3.14-10.58,2.81l-.88-1.81,1.17-2.57Z"/><g><path class="cls-3" d="M45.25,16.05c-.15-.03-.89,.3-.89,.3,.25-.31,.02-.61,.02-.61l-1.01,.5s-.51,.52-.85,.77c-.33,.25-1.27,1.33-1.29,1.4l-.6,.56,.38,2.23s.48,.04,.79-.1c.31-.15,.77-.73,.77-.73l.86-.07c.1,0,.2-.04,.27-.11,.26-.22,.22-.59,.22-.59,.54-.31,.23-.71,.23-.71,0,0,.31-.04,.44-.24,.11-.17,.08-.3-.03-.48-.1-.19-.9-.13-.9-.13l-.04-.23s1.21-.96,1.48-1.17c.27-.21,.28-.55,.14-.58Z"/><path class="cls-4" d="M44.38,16.33s-.1,.21-.37,.44c-.13,.12-.3,.26-.44,.43-.15,.17-.25,.41-.32,.67-.08,.26-.16,.51-.27,.72-.11,.21-.25,.38-.37,.52-.12,.13-.24,.23-.32,.28-.08,.06-.13,.08-.13,.08-.01-.01,.17-.14,.4-.41,.11-.13,.24-.31,.34-.51,.11-.21,.18-.45,.26-.71,.08-.26,.18-.51,.35-.7,.16-.18,.33-.31,.47-.43,.28-.22,.41-.4,.42-.39Z"/><path class="cls-4" d="M43.94,19.58s-.14,.1-.41,.19c-.13,.04-.29,.09-.48,.1-.09,0-.19,0-.29,0-.1-.01-.21-.04-.31-.11-.09-.07-.16-.18-.16-.3,.02-.13,.1-.2,.16-.27,.07-.06,.16-.12,.24-.13,.08-.02,.15-.04,.22-.05,.27-.06,.44-.07,.44-.05,0,.01-.16,.04-.43,.12-.07,.02-.14,.04-.21,.06-.08,.02-.14,.06-.2,.12-.06,.06-.12,.14-.13,.21,0,.08,.04,.17,.12,.22,.15,.11,.37,.1,.54,.1,.18,0,.34-.04,.47-.08,.26-.07,.42-.14,.42-.13Z"/><path class="cls-4" d="M44.17,18.88s-.11,.06-.31,.09c-.1,.02-.22,.03-.35,.03-.13,0-.31-.02-.42-.16-.11-.15-.08-.33-.02-.45,.07-.13,.18-.2,.27-.25,.19-.09,.31-.1,.31-.09,0,.02-.12,.05-.28,.15-.08,.05-.17,.12-.22,.23-.05,.11-.07,.25,.01,.36,.08,.1,.23,.13,.35,.13,.13,0,.25,0,.34,0,.2-.02,.32-.04,.32-.03Z"/><path class="cls-4" d="M43.58,20.25s-.1,.04-.25,.08c-.16,.04-.38,.09-.64,.08-.06,0-.15-.02-.2-.08-.05-.06-.06-.13-.06-.19,0-.13,.08-.22,.15-.27,.16-.1,.28-.04,.27-.03,0,.02-.11,0-.23,.09-.06,.05-.11,.13-.11,.22,0,.04,.01,.09,.04,.13,.03,.03,.07,.04,.13,.05,.24,.01,.46-.03,.62-.05,.16-.02,.26-.03,.27-.01Z"/></g></g><g><path class="cls-8" d="M16.47,30.46s-.06,.04-.17,.1c-.11,.06-.29,.13-.51,.19-.44,.13-1.08,.22-1.78,.09-.69-.13-1.26-.45-1.62-.74-.18-.14-.31-.27-.39-.37-.08-.1-.12-.15-.12-.16,.01-.01,.19,.21,.56,.48,.36,.27,.92,.57,1.59,.7,.67,.13,1.31,.06,1.74-.06,.44-.11,.69-.24,.7-.23Z"/><path class="cls-8" d="M12.3,23.68s5.81-1.86,6.02-1.91c.22-.06,5.34,.4,5.34,.4,0,0-.22,3.39,1.08,4.49h0l-3.77,1.36-1.19,3.27s-.66,1.33-.14,2.58c1,2.37,2.73,6.1,2.47,6.52-.03,.04-.18-1.29-2.64-1.99-.74-.21-2.1-.21-3.32,.03-5.27,1.06-7.3,3.49-7.9,3.91,0,0,1.08-8.51,.57-9.84-.51-1.33-1.05-2.19-.63-3.38,.42-1.18,1.06-3.07,1.06-3.07l-2.07-2.35,2.9-4.82,2.65,2.2-.43,2.6Z"/><path class="cls-9" d="M14.23,31.56s-.07,.01-.2,0c-.13,0-.31-.02-.54-.07-.45-.09-1.06-.34-1.58-.83-.52-.49-.79-1.1-.89-1.55-.05-.23-.07-.41-.07-.54,0-.13,0-.2,0-.2,.02,0,.01,.29,.13,.72,.12,.43,.39,1.02,.89,1.49,.5,.47,1.1,.73,1.53,.83,.44,.11,.73,.11,.72,.13Z"/><path class="cls-9" d="M8.78,24.37s.32,.39,.4,1c.09,.61-.08,1.09-.1,1.07-.03,0,.09-.48,0-1.06-.08-.58-.34-1-.31-1.01Z"/><path class="cls-9" d="M21.1,25.37s-.12,.1-.3,.27c-.18,.17-.39,.43-.54,.77-.15,.34-.2,.68-.21,.92,0,.24,.02,.4,0,.4,0,0-.06-.15-.08-.4-.01-.25,.03-.61,.19-.96,.16-.35,.39-.62,.58-.78,.19-.16,.34-.23,.34-.22Z"/><g class="cls-6"><path d="M13.37,31.43c-.63-.14-1-.37-1.45-.82-.25-.24-.46-.52-.63-.87-.13,.58,.67,1.6,1.45,1.97,.78,.38,1.76,.35,2.52-.07-.65-.02-1.25-.07-1.89-.21Z"/></g><path class="cls-1" d="M20.48,35.65s-.15-.1-.45-.24c-.3-.13-.77-.27-1.36-.28-.59-.01-1.29,.11-2.01,.41-.72,.3-1.45,.76-2.2,1.26-1.49,1.03-2.96,1.79-4.06,2.25-.55,.23-1,.4-1.31,.51-.16,.06-.28,.09-.36,.12-.08,.03-.13,.04-.13,.03s.04-.02,.12-.05c.09-.03,.21-.08,.36-.14,.31-.12,.76-.3,1.3-.54,1.09-.48,2.54-1.24,4.03-2.27,.75-.5,1.49-.97,2.22-1.27,.73-.3,1.45-.41,2.05-.39,.6,.02,1.07,.17,1.37,.32,.3,.15,.44,.27,.44,.27Z"/><path class="cls-1" d="M19.43,32.61s-.11-.12-.35-.27c-.24-.15-.63-.32-1.13-.36-.51-.04-1.11,.07-1.74,.32-.63,.25-1.28,.61-1.97,.98-.69,.37-1.35,.71-1.99,.96-.63,.25-1.23,.4-1.74,.47-.51,.07-.93,.05-1.22,.02-.14-.02-.25-.04-.33-.05-.07-.02-.11-.03-.11-.03,0,0,.16,.02,.44,.04,.28,.02,.7,.03,1.2-.05,.5-.07,1.09-.23,1.72-.48,.63-.25,1.29-.59,1.97-.96,.69-.37,1.34-.73,1.98-.98,.63-.25,1.26-.36,1.77-.31,.52,.05,.91,.23,1.15,.39,.24,.17,.33,.3,.33,.3Z"/><path class="cls-1" d="M11.68,30.3s-.04,.04-.12,.1c-.04,.03-.09,.06-.15,.1-.06,.03-.13,.08-.21,.11-.16,.08-.35,.15-.58,.2-.22,.05-.48,.09-.74,.1-.27,0-.52-.03-.75-.07-.23-.05-.42-.11-.58-.19-.08-.03-.15-.07-.21-.1-.06-.03-.11-.06-.15-.09-.08-.05-.12-.09-.12-.09,0-.02,.19,.1,.51,.22,.16,.06,.35,.12,.58,.16,.22,.04,.47,.07,.73,.06,.26,0,.51-.04,.73-.09,.22-.05,.41-.11,.57-.18,.32-.13,.49-.25,.5-.24Z"/><path class="cls-1" d="M20.3,29.83s-.02,.02-.07,.06c-.05,.04-.13,.09-.23,.15-.21,.11-.54,.24-.96,.28-.42,.04-.94,0-1.48-.14-.54-.13-1.12-.35-1.74-.52-1.23-.35-2.42-.33-3.24-.21-.41,.06-.75,.14-.97,.2-.23,.06-.35,.1-.35,.09,0,0,.03-.02,.09-.04,.06-.02,.14-.06,.26-.09,.22-.07,.56-.16,.97-.23,.83-.14,2.03-.17,3.28,.18,.62,.18,1.19,.39,1.73,.53,.54,.14,1.03,.19,1.45,.15,.42-.03,.74-.14,.95-.24,.21-.1,.31-.18,.32-.18Z"/><path class="cls-1" d="M20.15,27.08s-.04,0-.12,.02c-.08,0-.19,.02-.34,.03-.29,0-.73,0-1.25-.09-.52-.08-1.13-.24-1.8-.42-.67-.18-1.41-.38-2.2-.46-.2,0-.4-.03-.59-.02-.1,0-.19,0-.29,0-.09,.01-.19,.02-.28,.03-.37,.05-.72,.15-1.05,.26-.65,.23-1.22,.5-1.72,.67-.5,.17-.92,.25-1.22,.27-.15,.01-.26,0-.34,0-.08,0-.12,0-.12-.01,0,0,.04,0,.12,0,.08,0,.19,0,.34-.02,.29-.03,.71-.11,1.2-.3,.49-.18,1.06-.45,1.72-.68,.33-.12,.68-.22,1.06-.27,.09-.01,.19-.02,.29-.03,.1,0,.19,0,.29-.01,.2-.01,.4,.01,.6,.02,.81,.08,1.55,.28,2.22,.47,.67,.19,1.27,.35,1.79,.44,.52,.1,.94,.11,1.23,.12,.14,0,.25-.01,.34-.01,.08,0,.12,0,.12,0Z"/><path class="cls-1" d="M21.98,22.16s-.17,.28-.35,.76c-.18,.48-.31,1.21-.18,1.98,.14,.78,.51,1.41,.83,1.81,.33,.4,.59,.6,.58,.61,0,0-.07-.04-.19-.13-.11-.09-.27-.24-.44-.44-.34-.39-.73-1.04-.87-1.84-.14-.8,.01-1.54,.21-2.02,.1-.24,.2-.43,.28-.56,.08-.12,.13-.19,.13-.18Z"/><path class="cls-1" d="M12.3,22.73s-.06,.02-.16,.04c-.11,.02-.26,.04-.45,.05-.19,0-.43,0-.68-.05-.25-.06-.52-.2-.73-.41-.21-.21-.37-.44-.54-.63-.16-.19-.33-.34-.49-.43-.33-.2-.58-.15-.58-.17,0,0,.06-.02,.17-.02,.11,0,.27,.04,.44,.13,.17,.09,.36,.24,.53,.43,.17,.19,.33,.42,.54,.62,.2,.2,.44,.34,.68,.4,.24,.06,.47,.07,.65,.07,.38,0,.62-.03,.62-.02Z"/></g><path class="cls-9" d="M11.93,78.62s-.05-1.92-.05-4.3,.02-4.3,.05-4.3,.05,1.92,.05,4.3-.02,4.3-.05,4.3Z"/><path class="cls-9" d="M12.74,76.41s-.05-1.92-.05-4.3,.02-4.3,.05-4.3,.05,1.92,.05,4.3-.02,4.3-.05,4.3Z"/></g></g></svg>