<?xml version="1.0" encoding="UTF-8"?><svg xmlns="http://www.w3.org/2000/svg" viewBox="0 0 91.01 76.18"><defs><style>.cls-1{fill:#2fa7e0;}.cls-2,.cls-3{fill:#fff;}.cls-4{fill:#aeb1b2;}.cls-5{fill:#606365;}.cls-6{opacity:.6;}.cls-7{isolation:isolate;}.cls-8{fill:#ffbf9d;}.cls-9{fill:#707274;}.cls-10{fill:#ff9a6c;}.cls-11{fill:#f4d862;}.cls-12{fill:#cfd1d2;}.cls-13{fill:#3e4042;}.cls-14{fill:#e1e1e1;}.cls-15{opacity:.3;}.cls-16{fill:none;stroke:#2fa7e0;stroke-miterlimit:10;}.cls-17{fill:#808285;}.cls-18{fill:#375a64;}.cls-3{mix-blend-mode:screen;opacity:.4;}.cls-19{fill:#bec0c2;}.cls-20{fill:#1a2e35;}</style></defs><g class="cls-7"><g id="Layer_2"><g id="Layer_1-2"><g><g><path class="cls-9" d="M17.8,.15H89.46c.77,0,1.4,.63,1.4,1.4V45.5c0,.77-.63,1.4-1.4,1.4H17.8c-.77,0-1.4-.63-1.4-1.4V1.55c0-.77,.63-1.4,1.4-1.4Z"/><path class="cls-13" d="M89.46,47.04H17.8c-.85,0-1.55-.69-1.55-1.55V1.55c0-.85,.69-1.55,1.55-1.55H89.46c.85,0,1.55,.69,1.55,1.55V45.5c0,.85-.69,1.55-1.55,1.55ZM17.8,.3c-.69,0-1.25,.56-1.25,1.25V45.5c0,.69,.56,1.25,1.25,1.25H89.46c.69,0,1.25-.56,1.25-1.25V1.55c0-.69-.56-1.25-1.25-1.25H17.8Z"/></g><g><path class="cls-4" d="M17.8,1.82H89.46c.77,0,1.4,.63,1.4,1.4V47.17c0,.77-.63,1.4-1.4,1.4H17.8c-.77,0-1.4-.63-1.4-1.4V3.22c0-.77,.63-1.4,1.4-1.4Z"/><path class="cls-5" d="M89.46,48.72H17.8c-.85,0-1.55-.69-1.55-1.55V3.22c0-.85,.69-1.55,1.55-1.55H89.46c.85,0,1.55,.69,1.55,1.55V47.17c0,.85-.69,1.55-1.55,1.55ZM17.8,1.97c-.69,0-1.25,.56-1.25,1.25V47.17c0,.69,.56,1.25,1.25,1.25H89.46c.69,0,1.25-.56,1.25-1.25V3.22c0-.69-.56-1.25-1.25-1.25H17.8Z"/></g><path class="cls-12" d="M89.64,45.7c0,.74-.61,1.33-1.35,1.33H18.98c-.75,0-1.35-.6-1.35-1.33V3.75c0-.74,.6-1.33,1.35-1.33H88.28c.75,0,1.35,.6,1.35,1.33V45.7Z"/><g><path class="cls-2" d="M89.52,39.93V4.12c0-.7-.6-1.26-1.34-1.26H19.24c-.74,0-1.34,.56-1.34,1.26V39.93H89.52Z"/><path class="cls-19" d="M89.52,40.08H17.89c-.08,0-.15-.07-.15-.15V4.12c0-.78,.67-1.41,1.49-1.41H88.17c.82,0,1.49,.63,1.49,1.41V39.93c0,.08-.07,.15-.15,.15Zm-71.48-.3H89.37V4.12c0-.61-.54-1.11-1.2-1.11H19.24c-.66,0-1.2,.5-1.2,1.11V39.79Z"/></g><g><path class="cls-2" d="M89.52,39.93V4.12c0-.7-.6-1.26-1.34-1.26H19.24c-.74,0-1.34,.56-1.34,1.26V39.93H89.52Z"/><path class="cls-19" d="M89.52,40.08H17.89c-.08,0-.15-.07-.15-.15V4.12c0-.78,.67-1.41,1.49-1.41H88.17c.82,0,1.49,.63,1.49,1.41V39.93c0,.08-.07,.15-.15,.15Zm-71.48-.3H89.37V4.12c0-.61-.54-1.11-1.2-1.11H19.24c-.66,0-1.2,.5-1.2,1.11V39.79Z"/></g><path class="cls-17" d="M89.52,6.65v-2.53c0-.7-.6-1.26-1.34-1.26H19.24c-.74,0-1.34,.56-1.34,1.26v2.53H89.52Z"/><g><path d="M75.14,5.41c0-.28,.17-.48,.44-.59h0c-.25-.13-.35-.32-.35-.51,0-.35,.3-.59,.68-.59,.43,0,.64,.27,.64,.54,0,.19-.09,.39-.36,.52h0c.28,.12,.45,.31,.45,.58,0,.38-.33,.64-.75,.64-.46,0-.74-.28-.74-.6Zm1.19-.01c0-.27-.19-.4-.49-.48-.26,.07-.4,.24-.4,.46-.01,.22,.16,.42,.44,.42s.44-.17,.44-.39Zm-.82-1.11c0,.22,.17,.34,.42,.41,.19-.06,.34-.2,.34-.4,0-.18-.11-.36-.37-.36-.25,0-.38,.16-.38,.35Z"/><path d="M76.93,4.6c0-.13,.08-.21,.2-.21s.2,.09,.2,.21c0,.12-.08,.21-.2,.21-.12,0-.2-.09-.2-.21Zm0,1.2c0-.13,.08-.21,.2-.21s.2,.09,.2,.21c0,.12-.08,.21-.2,.21-.12,0-.2-.09-.2-.21Z"/><path d="M78.26,4.04h0l-.38,.21-.06-.23,.48-.26h.26v2.21h-.29v-1.93Z"/><path d="M80.68,4.02h-.84l-.09,.57c.05,0,.1-.01,.18-.01,.17,0,.34,.04,.48,.12,.17,.1,.32,.29,.32,.57,0,.43-.34,.76-.82,.76-.24,0-.45-.07-.55-.14l.08-.23c.09,.05,.27,.12,.47,.12,.28,0,.52-.18,.52-.48,0-.29-.19-.49-.64-.49-.13,0-.22,.01-.31,.02l.14-1.06h1.06v.25Z"/></g><path class="cls-3" d="M18.92,17.61c3.45-2.67,6.92-5.31,10.44-7.87,4.47-3.26,9.04-6.4,13.68-9.42h-4.49c-3.9,2.53-7.74,5.18-11.53,7.87-3.4,2.41-6.77,4.85-10.15,7.28v3.74c.69-.54,1.37-1.07,2.06-1.6Z"/><g><g><rect class="cls-1" x="31.28" y="13.89" width="13.33" height="4.78"/><rect class="cls-1" x="47.59" y="13.89" width="13.33" height="4.78"/><g><g><rect class="cls-1" x="67.18" y="17.71" width="5.27" height=".42"/><polyline class="cls-1" points="68.14 16.76 69.75 14.21 71.5 16.81"/><rect class="cls-1" x="69.21" y="16.39" width="1.22" height="1.52"/></g><rect class="cls-16" x="63.91" y="13.64" width="11.82" height="5.28" rx="1.9" ry="1.9"/></g></g><g><rect class="cls-1" x="31.41" y="21.38" width="13.33" height="4.78"/><rect class="cls-1" x="47.72" y="21.38" width="13.33" height="4.78"/><g><g><rect class="cls-1" x="67.31" y="25.2" width="5.27" height=".42"/><polyline class="cls-1" points="68.26 24.25 69.87 21.7 71.63 24.3"/><rect class="cls-1" x="69.33" y="23.88" width="1.22" height="1.52"/></g><rect class="cls-16" x="64.03" y="21.13" width="11.82" height="5.28" rx="1.9" ry="1.9"/></g></g><g><rect class="cls-1" x="31.53" y="28.87" width="13.33" height="4.78"/><rect class="cls-1" x="47.85" y="28.87" width="13.33" height="4.78"/><g><g><rect class="cls-1" x="67.44" y="32.69" width="5.27" height=".42"/><polyline class="cls-1" points="68.39 31.74 70 29.19 71.75 31.79"/><rect class="cls-1" x="69.46" y="31.37" width="1.22" height="1.52"/></g><rect class="cls-16" x="64.16" y="28.62" width="11.82" height="5.28" rx="1.9" ry="1.9"/></g></g></g><path class="cls-3" d="M53.33,48.07c7.34-5.66,14.82-11.12,22.38-16.47,5.03-3.57,10.09-7.09,15.15-10.6V12.94c-5.65,3.95-11.35,7.85-17.01,11.78-7.61,5.29-15.13,10.7-22.52,16.29-3.22,2.44-6.43,4.91-9.62,7.39h11.19c.15-.11,.29-.23,.44-.34Z"/><g><g><path class="cls-20" d="M14.77,10.54l-1.74-.53c-2.1-.74-3.84-.17-4.98,1.27-1.14,1.44-1.58,3.35-1.51,5.2,.04,1.19,.27,2.44-.2,3.53-.26,.61-.72,1.1-1.15,1.6s-.87,1.02-1.06,1.65c-.19,.63-.1,1.4,.4,1.83,.21,.18,.48,.3,.65,.52,.23,.31,.21,.73,.23,1.12,.1,1.82,1.55,3.46,3.32,3.78,1.77,.31,3.68-.74,4.38-2.41,.51-1.21,.41-2.57,.36-3.88-.18-4.59,.26-9.2,1.3-13.67Z"/><g><g><path class="cls-20" d="M18.53,8.4c-1.5-.45-2.92-.02-4.32,.7-1.4,.72-2.53,1.92-3.26,3.33-.78,1.48-1.13,3.2-.86,4.86,.27,1.65,1.18,3.21,2.55,4.14,1.87,1.27,4.47,1.22,6.41,.07,1.95-1.15,3.23-3.29,3.59-5.55,.24-1.56,.06-3.2-.64-4.6-.71-1.4-1.97-2.54-3.46-2.95"/><g><path class="cls-20" d="M13.55,13.16c.29-.57,.29-1.24,.45-1.86,.36-1.37,1.59-2.34,2.93-2.73,1.25-.36,2.68-.07,4.06,.57,.94,.44,1.8,1.11,2.36,2,.74,1.18,.87,2.73,.33,4.01l-6.88-1.89c-.72,.47-1.46,.95-2.29,1.16-.24,.06-.5,.1-.74,.03-.24-.07-.46-.27-.49-.52-.03-.28,.16-.52,.28-.77Z"/><path class="cls-8" d="M20.91,11.11l-6.27,.57c-.6-.03-1.12,.4-1.2,1l-1.51,13.44c-.1,.92,.09,1.84,.56,2.64l.49,.83c1.12,1.9,3.84,2.05,5.08,.23,.09-.13,.15-.24,.18-.33,.03-.12,.08-.19,.09-.3l.27-1.29c.2-1.19,.35-2.4,.35-2.39,0,0,2.54-.02,3.57-3.21,.51-1.59,.85-4.27,1.06-6.48,.19-1.99-.72-4.6-2.68-4.71Z"/><g><g><path class="cls-20" d="M22.4,18.48c-.03,.22-.24,.38-.47,.36-.23-.02-.39-.22-.37-.45,.03-.22,.24-.38,.47-.36,.23,.02,.39,.23,.37,.45Z"/><path class="cls-20" d="M22.8,17.12c-.06,.05-.34-.24-.78-.31-.44-.08-.81,.1-.85,.04-.02-.03,.05-.12,.21-.2,.16-.08,.41-.15,.69-.1,.28,.05,.49,.19,.61,.32,.12,.13,.15,.24,.12,.26Z"/></g><g><path class="cls-20" d="M18.43,17.99c-.03,.22-.24,.38-.47,.36-.23-.02-.39-.22-.37-.45,.03-.22,.24-.38,.47-.36,.23,.02,.39,.23,.37,.45Z"/><path class="cls-20" d="M18.56,16.49c-.06,.05-.34-.24-.78-.31-.44-.08-.81,.1-.85,.04-.02-.03,.05-.12,.21-.2,.16-.08,.41-.15,.69-.1,.28,.05,.49,.19,.61,.32,.12,.13,.15,.24,.12,.26Z"/></g><path class="cls-20" d="M19.49,20.11s.29-.03,.74-.02c.12,0,.23,0,.26-.07,.04-.08,.01-.21-.02-.35-.06-.3-.13-.61-.2-.93-.27-1.33-.45-2.41-.39-2.42,.05-.01,.32,1.06,.59,2.38,.06,.33,.13,.64,.18,.94,.02,.14,.07,.3-.01,.46-.04,.08-.14,.13-.21,.14-.08,.01-.14,0-.2,0-.46-.05-.74-.09-.73-.12Z"/><path class="cls-10" d="M18.96,25.51s-2.19-.21-4.14-1.87c0,0,.73,2.44,4.01,2.66l.13-.79Z"/><path class="cls-10" d="M19.13,21.17c-.13-.24-.39-.4-.67-.42-.2-.01-.41,.05-.55,.19-.14,.14-.2,.36-.12,.53,.09,.19,.34,.27,.56,.24,.22-.03,.43-.14,.62-.25,.05-.03,.11-.06,.15-.11,.04-.05,.06-.12,.03-.17"/><path class="cls-20" d="M18.13,20.21c.07,0,0,.5,.36,.91,.36,.42,.88,.44,.88,.51,0,.03-.13,.08-.35,.05-.21-.03-.52-.15-.74-.4-.22-.25-.28-.56-.27-.76,.01-.21,.09-.32,.12-.31Z"/></g><path class="cls-20" d="M18.92,14.89c-.06,.12-.5-.01-1.03-.04-.53-.03-.98,.06-1.03-.07-.02-.06,.07-.16,.26-.25,.19-.09,.47-.16,.79-.15,.32,.02,.6,.11,.78,.22,.18,.11,.26,.22,.23,.28Z"/><path class="cls-20" d="M23.18,15.14c-.09,.09-.38-.07-.75-.13-.37-.08-.69-.04-.75-.16-.02-.06,.04-.15,.19-.23,.15-.08,.39-.12,.64-.07,.25,.05,.46,.18,.57,.3,.11,.13,.14,.24,.1,.28Z"/><path class="cls-20" d="M12.54,12.06c.86-1.81,3.93-4.05,5.87-3.63l2.86,2.35c-.34,1.05-1.29,1.88-2.37,2.05-.58,.09-1.25,.04-1.64,.48-.4,.44-.31,1.19-.69,1.65-.53,.64-1.71,.44-2.14,1.16-.19,.31-.17,.72-.36,1.03-.26,.41-1.43,.81-1.86,.6-.43-.21-.33-.99-.42-1.43-.16-.74,0-1.09,.14-1.47,.33-.9,.21-1.93,.62-2.79Z"/><path class="cls-8" d="M13.49,18.32c.04-.24,.09-.59-.13-.7-.65-.33-2.02-.57-2.29,1.06-.37,2.23,1.92,2.14,1.93,2.08,.01-.05,.36-1.59,.49-2.44Z"/><path class="cls-10" d="M12.47,19.8s-.04,.02-.11,.04c-.07,.02-.18,.02-.29-.04-.22-.13-.35-.53-.3-.94,.03-.2,.1-.39,.2-.54,.09-.15,.22-.25,.34-.25,.12,0,.19,.08,.21,.14,.02,.07,0,.11,0,.12,0,0,.05-.03,.05-.12,0-.05-.02-.1-.06-.15-.05-.05-.12-.09-.2-.09-.17-.02-.35,.12-.46,.28-.12,.16-.2,.37-.23,.6-.06,.45,.1,.91,.4,1.06,.15,.07,.28,.04,.36,0,.08-.04,.1-.09,.09-.1Z"/></g><path class="cls-20" d="M20.71,10.02c.1,.94,1.33,2.28,1.84,3.06,.99,1.5,1.16,1.97,.79,5.01,.66-.98,1.2-1.96,1.3-3.15,.1-1.19-.19-2.42-.9-3.37-.71-.95-1.86-1.58-3.03-1.55"/></g><path class="cls-20" d="M11.78,11.48c1.26-1.84,2.85-2.82,4.29-3.11"/></g><path class="cls-18" d="M11.29,20.13s-.04-.03-.09-.1c-.06-.07-.14-.18-.23-.33-.19-.29-.42-.75-.58-1.36-.17-.61-.26-1.35-.27-2.18-.05-.83,.13-1.75,.47-2.65,.34-.9,.78-1.7,1.28-2.36,.5-.66,1.03-1.19,1.52-1.57,.49-.38,.94-.62,1.26-.76,.16-.07,.28-.12,.37-.15,.09-.03,.13-.04,.13-.04,0,.01-.17,.08-.48,.23-.31,.15-.74,.4-1.22,.78-.48,.38-.99,.91-1.48,1.57-.49,.65-.92,1.45-1.25,2.33-.33,.88-.51,1.78-.47,2.6,.01,.82,.09,1.56,.24,2.16,.15,.6,.36,1.06,.53,1.36,.17,.3,.29,.45,.28,.46Z"/></g><g><path class="cls-20" d="M22.41,48.78s12.65-1.45,14.71-1.81c3.95-.68,7.91-.03,9.59,3.42,.76,1.57-.2,4.6-2.52,6.85-1.73,1.68-10.31,10.49-10.31,10.49l-7.36-6.23,9.11-7.18-17.65,2.52,4.44-8.04Z"/><g><path class="cls-20" d="M35.53,63.42l-4.73,5.07s3.58,6.66,2.79,7.69l-10.19-9.11,7.05-8.21,5.08,4.57Z"/><path class="cls-14" d="M28.02,65.23c-.24-.12-.57-.02-.7,.22-.13,.24-.02,.58,.22,.71,.24,.13,.64,.02,.74-.23,.1-.25-.04-.65-.31-.71"/><path class="cls-18" d="M23.4,67.06l.71-.83,9.56,9.1s.15,.42-.08,.84l-10.2-9.12Z"/><path class="cls-2" d="M31,68.58s-.31-.15-.7-.21c-.38-.07-.7,.03-.72-.03-.04-.05,.29-.28,.76-.2,.46,.08,.71,.4,.66,.44Z"/><path class="cls-2" d="M31.69,69.98c-.03,.06-.32-.05-.67,0-.35,.05-.59,.24-.64,.19-.05-.03,.16-.36,.6-.42,.44-.07,.75,.17,.71,.22Z"/><path class="cls-2" d="M31.19,71.8c-.05-.03,.09-.34,.46-.5,.36-.16,.69-.06,.68,0,0,.07-.29,.08-.58,.21-.3,.13-.5,.32-.55,.28Z"/><path class="cls-2" d="M31.95,67.31c-.06,.03-.23-.25-.53-.48-.29-.24-.59-.34-.58-.41,0-.06,.38-.05,.72,.22,.35,.28,.45,.64,.39,.66Z"/></g><path class="cls-18" d="M38.94,62.53s-.03,.04-.09,.11c-.07,.08-.17,.18-.28,.3-.26,.27-.62,.65-1.06,1.11-.91,.94-2.17,2.24-3.59,3.71l-.04,.04-.05-.04c-.29-.25-.6-.51-.92-.78-1.77-1.51-3.37-2.87-4.54-3.87-.57-.49-1.03-.9-1.37-1.19-.15-.13-.27-.24-.37-.33-.08-.08-.13-.12-.12-.12s.05,.03,.14,.1c.1,.08,.23,.18,.38,.31,.34,.28,.81,.67,1.39,1.15,1.18,.99,2.79,2.35,4.57,3.84,.31,.27,.62,.53,.92,.78h-.09c1.43-1.45,2.7-2.74,3.62-3.67,.45-.45,.82-.81,1.08-1.08,.12-.12,.22-.21,.3-.29,.07-.06,.11-.1,.11-.09Z"/></g><g><path class="cls-20" d="M49.7,62.13l6.21,5.56,6.16,2.96c.44,.21,.62,.76,.38,1.2h0c-.13,.24-.37,.41-.65,.44-1.74,.19-8.15,.85-8.58,.42-.5-.5-6.93-5.42-6.93-5.42l3.42-5.15Z"/><path class="cls-18" d="M62.45,71.85l-9.66,.49,.43,.37c.27,.19,.37,.17,.67,.17,.81,0,3.05-.07,7.9-.57,.28-.03,.53-.2,.66-.46h0Z"/><g class="cls-6"><path class="cls-2" d="M52.79,69.93c.24-.07,.53,.09,.6,.33,.08,.24-.07,.54-.32,.61-.24,.07-.59-.1-.64-.35-.05-.25,.15-.59,.4-.6"/></g><path class="cls-2" d="M58.47,70.95s-.16-.45-.02-.98c.12-.54,.51-.82,.47-.86-.01-.02-.13,.02-.27,.15-.15,.13-.31,.37-.38,.66-.07,.3-.04,.58,.03,.76,.07,.19,.15,.28,.17,.26Z"/><path class="cls-2" d="M59.7,71.22c.05,0,.02-.39,.2-.8,.17-.42,.47-.65,.44-.7-.02-.05-.41,.15-.61,.62-.2,.47-.08,.89-.03,.88Z"/><path class="cls-2" d="M56.67,70.87c.06,0,0-.59,.23-1.26,.22-.67,.61-1.1,.57-1.14-.03-.04-.51,.36-.74,1.08-.24,.72-.1,1.33-.05,1.32Z"/><path class="cls-2" d="M54.65,69.34c.05,.02,.2-.46,.57-.94,.36-.48,.78-.75,.75-.8-.02-.04-.51,.17-.9,.68-.39,.51-.47,1.05-.42,1.05Z"/><path class="cls-2" d="M53.26,68.36c.05,.01,.14-.53,.57-1,.42-.48,.94-.62,.92-.67,0-.02-.14-.02-.35,.06-.21,.07-.48,.24-.7,.49-.23,.26-.36,.54-.41,.76-.05,.22-.04,.36-.02,.36Z"/></g><g><path class="cls-20" d="M2.23,54.48c.13,.32-.43,10.64,9.21,10.7,8.66,.06,20.31-8,21.63-7.48,.87,.34,15.82,13.52,15.82,13.52l5.39-6.43s-13.83-13.4-15.19-14.36c-2.91-2.07-4.96-2.05-9.75-1.17-4.29,.79-14.79,4.33-14.79,4.33l-1.01-.87-11.32,1.76Z"/><path class="cls-18" d="M26.24,50.3s.05-.03,.16-.07c.11-.04,.27-.11,.48-.18,.43-.16,1.06-.38,1.89-.61,.83-.23,1.86-.49,3.08-.66,.61-.09,1.26-.15,1.96-.14,.7,.01,1.44,.1,2.19,.28,1.51,.37,3.09,1.12,4.47,2.35,1.34,1.26,2.73,2.64,4.21,4.08,2.96,2.88,6.22,6.06,9.65,9.4l.05,.04-.04,.05c-.24,.28-.49,.58-.74,.89-.8,.95-1.63,1.92-2.45,2.82-.81,.9-1.56,1.79-2.32,2.68l.02,.05c-3.04-2.67-5.9-5.18-8.47-7.43-1.28-1.13-2.5-2.19-3.63-3.19-.56-.5-1.11-.98-1.63-1.43-.26-.23-.52-.45-.77-.67-.13-.11-.25-.22-.37-.32-.13-.1-.27-.17-.41-.23-.57-.25-1.21-.22-1.71,.03-.51,.25-.98,.49-1.43,.71-.89,.44-1.65,.82-2.28,1.13-.62,.31-1.1,.54-1.43,.71-.16,.08-.28,.14-.37,.18-.08,.04-.13,.06-.13,.06,0,0,.04-.02,.12-.07,.09-.04,.21-.11,.37-.19,.33-.17,.8-.41,1.42-.73,.62-.32,1.38-.7,2.27-1.15,.44-.22,.92-.46,1.43-.72,.52-.26,1.18-.29,1.77-.04,.15,.07,.29,.14,.42,.24,.13,.1,.25,.21,.38,.32,.25,.22,.51,.44,.77,.67,.52,.46,1.07,.93,1.64,1.43,1.13,.99,2.35,2.05,3.64,3.18,2.57,2.25,5.43,4.75,8.48,7.42l.02,.05c.75-.9,1.52-1.82,2.27-2.78,.73-.96,1.48-1.87,2.28-2.81,.25-.3,.5-.6,.73-.87v.09c-3.42-3.34-6.68-6.52-9.64-9.41-1.48-1.44-2.87-2.82-4.2-4.08-1.36-1.21-2.93-1.97-4.42-2.34-.75-.18-1.48-.27-2.17-.29-.69-.02-1.34,.05-1.95,.13-1.21,.16-2.24,.41-3.07,.63-.83,.23-1.47,.44-1.89,.59-.21,.07-.37,.13-.49,.17-.11,.04-.17,.05-.17,.05Z"/></g><g><path class="cls-11" d="M20.95,27.41s3.2,1.29,3.58,4.03c.32,2.29-.39,8.38-.38,8.8,.01,.49,.17,.8,.34,.99,.39,.43,.61,.99,.6,1.57,0,.44-.05,.89-.2,1.14-.37,.63-3.91,4.79-3.91,4.79l-3.15-6.64s2.06-6.22,2.08-6.38c.02-.16,1.02-8.29,1.02-8.29Z"/><path class="cls-8" d="M24.57,43.66c.14,.02,4.75,3.35,4.75,3.35,0,0,1.13-2.21,1.63-2.27,.5-.07,2.06,.54,2.2,.71,.14,.17,.44,.19,.75,.22,.3,.03,.85,.8,.85,.8l1.04,.78s-.33,.61-.41,.72c-.09,.11-.79-.19-.78-.3s.09,.69-.45,.72c-.54,.02-1.23-.35-1.23-.35l-.18-.93-1.34-.88-.16,.89s1.35,.28,1.31,.73-.44,.58-.44,.58l-1.12-.03-2.46,.6s-6.46-1.45-6.7-2.19c-.24-.74,.86-3.41,2.75-3.15Z"/><path class="cls-11" d="M24.62,42.11s.74,.54,1.28,1.8c.29,.66,3.37,2.95,3.37,2.95l-2.5,2.05s-5.21,.22-5.46-.57c-.25-.79,.57-4.29,.57-4.29l2.74-1.94Z"/></g><g><path class="cls-14" d="M21.37,51.03h0c.06,.23,.29,.37,.52,.32l9.06-2.01,7.79-1.44,.07-.7-7.44,1.08-9.67,2.19c-.25,.06-.4,.31-.33,.56Z"/><path class="cls-14" d="M35.53,37.47l-4.19,10.89c-.17,.43,.19,.89,.65,.81l9.25-1.73c.21-.03,.38-.18,.45-.38l4.2-10.8c.08-.22-.09-.45-.32-.44l-9.54,1.27c-.23,.02-.42,.16-.5,.38Z"/><path class="cls-20" d="M36.47,37.09s-.97,2.72-2.24,6.05c-1.27,3.33-2.33,6.02-2.37,6s.97-2.72,2.24-6.05c1.27-3.33,2.33-6.02,2.37-6Z"/><path class="cls-2" d="M38.79,42.24c-.26,.52-.24,1.07,.04,1.21s.72-.16,.98-.69c.26-.52,.24-1.07-.04-1.21s-.72,.16-.98,.69Z"/></g><g><path class="cls-11" d="M21.52,49.34s-.75-3.23-.6-3.82c.43-1.7,2.68-6,2.49-8.57-.19-2.57-2.46-9.55-2.46-9.55l-2.17-.76c-.88,1.94-4.27,1.5-7.05-.77l-3.48,.71L2.81,43.78l-.91,6.26c-2.21,2.92,.34,4.46,.34,4.46,0,0,4.19,1.34,7.51,.74,2.48-.45,6.1-2.22,6.91-2.87,1.94-1.54,5.02-1.44,5.02-1.44l-.15-1.6Z"/><path class="cls-8" d="M15.44,49.5l2.27,.94s1.26-.76,1.45-.83c.19-.07,2.69-.42,3.19-.4,.5,.02,1.05-.07,1.05-.07l-3,1.87-1.9,2.57s-.78,.28-1.62,.29c-.83,0-2.8-.48-2.8-.48l1.36-3.88Z"/><g><path class="cls-11" d="M8.69,26.54s-3.98,.24-5.38,3.47c-.93,2.15-2.86,11.63-3.15,13.36s0,3.84,1.37,4.94c1.36,1.09,12.71,6,12.71,6l2.36-4.62-9.57-6.03h-.31s1.15-6.96,1.15-6.96"/><path class="cls-20" d="M7.87,36.68s0,.04-.01,.12c-.01,.08-.03,.2-.05,.35-.05,.32-.12,.77-.21,1.37-.19,1.2-.47,2.94-.82,5.13l-.04-.05c.09,0,.2,0,.31,0h.01s.01,0,.01,0c2.55,1.6,5.83,3.66,9.58,6.02l.05,.03-.03,.05c-.75,1.47-1.54,3.02-2.36,4.63l-.03,.05-.06-.02c-2.3-1-4.76-2.08-7.27-3.24-.99-.46-1.97-.92-2.93-1.38-.48-.24-.95-.47-1.42-.72-.46-.25-.94-.49-1.32-.85-.38-.36-.66-.82-.86-1.3-.2-.48-.32-.98-.37-1.49-.06-.5-.06-1.01,0-1.5,.05-.49,.15-.97,.23-1.44,.36-1.88,.74-3.67,1.11-5.33,.37-1.67,.73-3.21,1.11-4.61,.19-.7,.38-1.36,.59-1.99,.21-.62,.52-1.17,.87-1.63,.36-.45,.77-.81,1.17-1.09,.41-.27,.8-.49,1.17-.64,.74-.32,1.35-.45,1.77-.53,.21-.03,.37-.05,.48-.06,.11,0,.16,0,.16,0,0,0-.05,0-.16,.02-.11,.01-.27,.04-.47,.08-.41,.08-1.02,.23-1.75,.55-.37,.15-.76,.37-1.16,.65-.4,.28-.79,.64-1.15,1.08-.34,.46-.64,.99-.85,1.61-.2,.62-.39,1.28-.58,1.98-.37,1.4-.73,2.95-1.09,4.61-.36,1.67-.74,3.45-1.1,5.33-.09,.47-.18,.95-.23,1.43-.05,.48-.05,.98,.01,1.47,.11,.98,.46,2,1.19,2.71,.37,.35,.84,.58,1.3,.83,.46,.25,.94,.48,1.41,.72,.96,.46,1.94,.93,2.93,1.38,2.51,1.15,4.97,2.24,7.27,3.24l-.08,.03c.82-1.6,1.61-3.15,2.37-4.62l.02,.08c-3.74-2.36-7.01-4.44-9.56-6.05h.02c-.11,0-.22,0-.31,0h-.05s0-.05,0-.05c.37-2.18,.66-3.92,.86-5.12,.1-.59,.18-1.05,.24-1.36,.03-.15,.05-.27,.06-.35,.01-.08,.03-.12,.03-.12Z"/></g><path class="cls-20" d="M23.06,31.44s-.05,.24-.1,.68c-.02,.22-.03,.49-.02,.81,.01,.32,.05,.67,.1,1.07,.11,.79,.26,1.73,.28,2.8,.03,1.06-.09,2.25-.53,3.4-.44,1.14-1.01,2.16-1.37,3.14-.36,.99-.33,1.96-.28,2.75,.05,.8,.12,1.44,.17,1.88,.02,.21,.04,.38,.05,.51,.01,.12,.01,.18,0,.18,0,0-.02-.06-.04-.18-.02-.13-.05-.3-.08-.51-.06-.44-.15-1.08-.21-1.88-.06-.79-.1-1.78,.26-2.79,.36-1,.93-2.02,1.36-3.15,.43-1.13,.56-2.3,.53-3.35-.01-1.05-.16-1.99-.25-2.79-.05-.4-.08-.76-.08-1.08,0-.32,.02-.59,.05-.82,.03-.22,.07-.39,.1-.51,.03-.11,.05-.17,.05-.17Z"/><path class="cls-20" d="M9,33.3s.1-.36,.16-.96c.04-.3,.04-.66,.02-1.05-.04-.39-.11-.83-.24-1.26-.27-.88-.72-1.58-1.1-2.04-.38-.46-.68-.69-.66-.71,0,0,.08,.05,.21,.15,.13,.1,.31,.27,.52,.5,.41,.45,.88,1.17,1.16,2.07,.14,.45,.21,.89,.24,1.29,.02,.41,0,.77-.05,1.07-.02,.15-.05,.29-.08,.41-.02,.12-.05,.22-.08,.3-.05,.16-.09,.25-.1,.25Z"/><path class="cls-20" d="M14.52,42.93s.45-.07,1.08-.43c.16-.08,.31-.2,.49-.32,.16-.14,.34-.27,.5-.45,.34-.33,.67-.75,.95-1.22,.57-.95,.86-1.93,1.01-2.64,.14-.72,.15-1.17,.17-1.17,0,0,.01,.11,0,.32,0,.21-.03,.5-.09,.87-.12,.72-.4,1.73-.99,2.69-.29,.48-.62,.91-.97,1.24-.17,.18-.36,.31-.52,.45-.18,.11-.34,.24-.51,.31-.16,.08-.31,.16-.45,.2-.14,.05-.25,.09-.36,.1-.2,.04-.31,.05-.31,.04Z"/><path class="cls-20" d="M4.21,44.9s.47-.58,1.29-.95c.82-.37,1.56-.36,1.56-.33,0,.04-.71,.09-1.5,.46-.8,.35-1.32,.85-1.35,.82Z"/><g><path class="cls-8" d="M23.99,49.75c-.03,.17-.15,.3-.31,.34-.03,0-.07,.01-.1,.01-.25,0-.36-.47-.36-.47l-1.13,.16s-1.61,2.07-2.17,2.65c-2.23,2.31-2.81,.64-2.81,.64l.69-2.71,1.43-2.42s-.09,.15-.05-.24c.03-.38,.69-.45,.69-.45,.05-.2,.43-.38,.43-.38l1.79-.34c.37-.07,.75,.04,1.03,.28l1.09,.95s.64,.73,.64,.94c0,.33-.33,.36-.33,.36,0,0,.08,.58-.06,.65-.14,.06-.46,.03-.46,.03h0Z"/><path class="cls-10" d="M19.8,49.22s.23-.08,.61-.17c.37-.1,.9-.19,1.49-.17,.29,0,.57,.04,.82,.09,.25,.05,.49,.08,.61,.22,.06,.07,.06,.15,.04,.22-.02,.07-.06,.12-.1,.15-.08,.07-.15,.06-.14,.07,0,0,.07,.03,.17-.03,.05-.03,.1-.09,.13-.17,.03-.08,.03-.2-.04-.29-.07-.09-.18-.14-.29-.18-.11-.03-.23-.07-.36-.09-.25-.05-.54-.09-.84-.1-.6-.02-1.14,.09-1.52,.21-.38,.12-.59,.24-.58,.25Z"/><path class="cls-10" d="M20.02,50.38s.71-.22,1.59-.43c.88-.22,1.61-.33,1.61-.36,0-.02-.19,0-.48,.03-.3,.04-.7,.11-1.15,.22-.44,.11-.84,.24-1.12,.35-.28,.11-.45,.19-.44,.2Z"/><path class="cls-10" d="M23.97,49.7s0-.07-.03-.19c-.03-.12-.07-.3-.15-.51-.04-.11-.09-.22-.16-.34-.07-.12-.17-.24-.29-.33-.23-.19-.52-.37-.85-.47-.33-.1-.65-.17-.96-.17-.3,0-.57,.06-.78,.12-.22,.06-.39,.12-.5,.16-.12,.04-.18,.07-.18,.08,0,.02,.27-.06,.7-.15,.22-.05,.47-.09,.76-.09,.28,0,.6,.08,.92,.17,.32,.1,.59,.26,.82,.44,.23,.17,.34,.41,.43,.62,.17,.41,.24,.69,.26,.68Z"/><path class="cls-10" d="M20.51,47.3s.27-.06,.69-.14c.42-.06,1.06-.23,1.59,.21,.55,.38,1.02,.76,1.29,1.11,.27,.34,.34,.62,.36,.61,0,0,0-.07-.05-.19-.04-.12-.12-.29-.25-.47-.26-.37-.74-.77-1.29-1.15-.14-.1-.29-.18-.44-.24-.16-.06-.32-.07-.47-.07-.3,0-.55,.06-.77,.11-.43,.1-.68,.2-.68,.22Z"/><path class="cls-10" d="M20.92,51.39s.03-.04,.08-.11c.06-.08,.13-.19,.22-.33,.2-.28,.49-.68,.9-1.15h-.02c.34-.03,.72-.08,1.13-.14l-.05-.03c.02,.09,.06,.17,.1,.26,.04,.08,.1,.17,.2,.22,.05,.03,.11,.03,.16,.02,.05,0,.1-.01,.15-.04,.1-.05,.18-.13,.22-.23,.01-.03,.02-.05,.03-.08v-.02s0-.01,0-.01h0s0,0,0,0c.01,0-.11,.08-.06,.04h0s0,0,0,0h.04c.05,0,.1,0,.15,.01,.05,0,.1,0,.16,0,.03,0,.05,0,.08-.02,.03,0,.06-.02,.09-.05,.05-.06,.05-.12,.06-.18,0-.06,0-.11,0-.17,0-.11-.01-.22-.02-.33l-.05,.06c.15-.02,.3-.1,.36-.26,.03-.07,.04-.16,0-.24-.03-.07-.06-.14-.1-.2-.16-.24-.34-.47-.53-.69h0s0,0,0,0c-.18-.16-.38-.33-.58-.51-.12-.11-.25-.21-.37-.32-.12-.1-.24-.22-.39-.3-.15-.08-.31-.13-.47-.14-.16-.02-.32,.02-.47,.04-.59,.11-1.16,.22-1.69,.32h0s0,0,0,0c-.1,.05-.18,.1-.26,.17-.08,.06-.16,.14-.2,.25l.05-.04c-.21-.02-.42,.05-.55,.2-.13,.16-.15,.35-.14,.53v-.03c-.4,.69-.74,1.26-.98,1.66-.11,.19-.2,.34-.26,.46-.06,.11-.09,.16-.08,.16,0,0,.04-.05,.11-.15,.07-.11,.16-.26,.28-.44,.25-.4,.59-.96,1.02-1.64h0s0-.03,0-.03c0-.16,.02-.34,.13-.46,.1-.13,.29-.18,.46-.17h.04s.01-.04,.01-.04c.02-.07,.09-.14,.16-.2,.07-.06,.16-.11,.25-.15h-.01c.53-.09,1.1-.2,1.69-.31,.15-.03,.29-.06,.44-.04,.15,.01,.29,.06,.42,.13,.13,.07,.24,.18,.37,.29,.12,.11,.24,.21,.37,.32,.2,.17,.39,.34,.58,.51h0c.19,.21,.37,.44,.52,.67,.04,.06,.07,.12,.09,.17,.02,.05,.01,.11,0,.16-.04,.11-.15,.18-.26,.19h-.06s0,.06,0,.06c.01,.1,.02,.21,.02,.31,0,.1,0,.22-.04,.27,0,0-.02,.01-.04,.02-.02,0-.04,.01-.07,.01-.05,0-.1,0-.14,0-.05,0-.1,0-.15,0h-.04s0,0,0,0h0c.05-.04-.07,.05-.06,.04h0s0,0,0,0h0s0,.02,0,.02c0,.02-.01,.04-.02,.06-.03,.08-.1,.15-.17,.18-.04,.02-.08,.03-.12,.03-.04,0-.08,0-.11-.01-.13-.08-.21-.26-.25-.42v-.04s-.05,0-.05,0c-.41,.06-.79,.11-1.12,.16h-.01s0,.01,0,.01c-.41,.48-.69,.89-.88,1.18-.09,.15-.16,.26-.2,.34-.04,.08-.06,.12-.06,.12Z"/></g><g class="cls-15"><path d="M18.63,37.93c-.2,.94-.56,1.94-1.08,2.74-.62,.96-1.39,1.47-2.36,2.07l-.07,.03c1.15,.01,2.3-.57,2.98-1.51,.68-.94,.89-2.22,.53-3.34Z"/></g></g></g></g></g></g></g></svg>