<?xml version="1.0" encoding="UTF-8"?><svg id="Layer_2" xmlns="http://www.w3.org/2000/svg" viewBox="0 0 58.65 58.65"><defs><style>.cls-1{fill:#29339b;}.cls-2{fill:#fff;stroke:#29369d;stroke-linecap:round;stroke-linejoin:round;stroke-width:.41px;}.cls-3{fill:#e6f6fc;}</style></defs><g id="Layer_1-2"><g><rect class="cls-2" x=".2" y=".2" width="43.68" height="43.68"/><rect class="cls-1" x="2.24" y="2.24" width="39.62" height="39.62"/><g><path class="cls-3" d="M32.66,15.57l-9.24,9.66-7.2-2.02c-.72-.2-1.49-.06-2.09,.37L2.24,32.22v9.63H41.85V21.48l-5.67-5.91c-.96-1-2.56-1-3.52,0Z"/><circle class="cls-3" cx="16.93" cy="12.9" r="5" transform="translate(-1.44 23.66) rotate(-67.68)"/></g><circle class="cls-3" cx="43.88" cy="43.88" r="14.77"/><circle class="cls-1" cx="43.88" cy="43.88" r="12.18"/><g><rect class="cls-3" x="42.57" y="36.27" width="2.62" height="14.75" rx="1.17" ry="1.17"/><rect class="cls-3" x="42.57" y="36.27" width="2.62" height="14.75" rx="1.17" ry="1.17" transform="translate(87.53 -.24) rotate(90)"/></g></g></g></svg>