<?xml version="1.0" encoding="UTF-8"?><svg id="Layer_2" xmlns="http://www.w3.org/2000/svg" viewBox="0 0 32.21 22.2"><defs><style>.cls-1{fill:#29339b;}</style></defs><g id="Layer_1-2"><g><path class="cls-1" d="M25.3,22.07c5.91,.99,6.91-4.28,6.91-4.28,0,0-2.59,1.84-6.51-1.72-3.08-2.79-8.04-8.25-13.77-13.44C6.2-2.56,1.87,1.26,0,2.87l1.33,.07c2.83,.42,7.35,4.45,10.81,8.57,5.6,6.67,10.97,10.2,13.17,10.57Z"/><path class="cls-1" d="M20.08,11.51c3.46-4.12,7.97-8.15,10.81-8.57l1.33-.07c-1.87-1.61-6.2-5.43-11.93-.23S9.59,13.28,6.51,16.07c-3.92,3.56-6.51,1.72-6.51,1.72,0,0,1,5.27,6.91,4.28,2.19-.37,7.57-3.9,13.17-10.57Z"/></g></g></svg>