<?xml version="1.0" encoding="UTF-8"?><svg xmlns="http://www.w3.org/2000/svg" viewBox="0 0 55 47"><defs><style>.cls-1{fill:#fff;}.cls-2,.cls-3{fill:#b2b2b2;}.cls-4{isolation:isolate;}.cls-5{fill:#707070;}.cls-3{mix-blend-mode:multiply;opacity:.4;}.cls-6{fill:#d4d4d4;}.cls-7{fill:#e5e5e5;}.cls-8{fill:#797a7b;}.cls-9{fill:#6d6d6d;}</style></defs><g class="cls-4"><g id="Layer_2"><g id="Layer_1-2"><g><g><rect class="cls-1" x=".37" y="23.08" width="54.24" height="18.5"/><path class="cls-2" d="M54.61,41.91H.37C.17,41.91,0,41.76,0,41.58V23.08c0-.19,.17-.34,.37-.34H54.61c.21,0,.37,.15,.37,.34v18.5c0,.19-.17,.34-.37,.34ZM.75,41.24H54.24V23.42H.75v17.82Z"/></g><g><polygon class="cls-7" points="54.61 23.02 .37 23.02 3.93 18.33 52.37 18.33 54.61 23.02"/><path class="cls-2" d="M54.63,23.36s0,0-.01,0H.37c-.14,0-.27-.07-.33-.18-.06-.11-.06-.24,.02-.35l3.55-4.69c.07-.09,.18-.15,.31-.15H52.37c.15,0,.28,.08,.34,.2l2.21,4.62c.05,.06,.08,.13,.08,.21,0,.19-.17,.34-.37,.34ZM1.08,22.69H54.04l-1.92-4.02H4.13l-3.05,4.02Z"/></g><g><rect class="cls-1" x="9.02" y="35.01" width="36.94" height="6.57"/><path class="cls-2" d="M45.96,41.91H9.02c-.21,0-.37-.15-.37-.34v-6.57c0-.19,.17-.34,.37-.34H45.96c.21,0,.37,.15,.37,.34v6.57c0,.19-.17,.34-.37,.34Zm-36.56-.67H45.59v-5.9H9.4v5.9Z"/></g><g><rect class="cls-9" x="9.02" y="38.98" width="36.94" height="2.6"/><path class="cls-2" d="M45.96,41.91H9.02c-.21,0-.37-.15-.37-.34v-2.6c0-.19,.17-.34,.37-.34H45.96c.21,0,.37,.15,.37,.34v2.6c0,.19-.17,.34-.37,.34Zm-36.56-.67H45.59v-1.93H9.4v1.93Z"/></g><g><path class="cls-6" d="M39.73,10.21H15.25c-4.11,.11-3.62,4.36-3.62,4.36v6.71h31.71v-6.71s.5-4.25-3.62-4.36Z"/><path class="cls-5" d="M43.35,21.63H11.64c-.21,0-.37-.15-.37-.34v-6.71c0-.06-.24-2.2,1.1-3.58,.69-.71,1.66-1.08,2.87-1.12h24.49c1.23,.03,2.2,.41,2.89,1.12,1.35,1.38,1.11,3.53,1.1,3.62v6.68c0,.19-.16,.34-.37,.34Zm-31.34-.67h30.96v-6.38c0-.05,.21-1.98-.92-3.14-.55-.56-1.33-.86-2.33-.88H15.25c-.99,.03-1.78,.33-2.32,.89-1.13,1.17-.92,3.09-.92,3.11v6.41Z"/></g><g><path class="cls-8" d="M48.86,26.16c0,.53-.47,.95-1.06,.95s-1.06-.43-1.06-.95,.47-.95,1.06-.95,1.06,.43,1.06,.95Z"/><path class="cls-8" d="M51.73,26.16c0,.53-.47,.95-1.06,.95s-1.06-.43-1.06-.95,.47-.95,1.06-.95,1.06,.43,1.06,.95Z"/></g><g><path class="cls-8" d="M48.86,28.41c0,.53-.47,.95-1.06,.95s-1.06-.43-1.06-.95,.47-.95,1.06-.95,1.06,.43,1.06,.95Z"/><path class="cls-8" d="M51.73,28.41c0,.53-.47,.95-1.06,.95s-1.06-.43-1.06-.95,.47-.95,1.06-.95,1.06,.43,1.06,.95Z"/></g><g><rect class="cls-1" x="14.49" y=".34" width="26.56" height="20.95"/><path class="cls-2" d="M41.05,21.63H14.49c-.21,0-.37-.15-.37-.34V.34c0-.19,.17-.34,.37-.34h26.56c.21,0,.37,.15,.37,.34V21.29c0,.19-.17,.34-.37,.34Zm-26.18-.67h25.81V.67H14.86V20.95Z"/></g><g><path class="cls-1" d="M40.12,35.01H14.82s-3.09,6.37-3.83,11.66H43.95c-.75-5.29-3.83-11.66-3.83-11.66Z"/><path class="cls-2" d="M43.95,47H10.99c-.11,0-.21-.04-.28-.11-.07-.07-.1-.17-.09-.26,.75-5.27,3.83-11.68,3.86-11.75,.06-.12,.19-.2,.34-.2h25.29c.15,0,.28,.08,.34,.2,.03,.06,3.12,6.47,3.86,11.75,.01,.1-.02,.19-.09,.26-.07,.07-.17,.11-.28,.11Zm-32.54-.67H43.52c-.74-4.58-3.14-9.89-3.65-10.99H15.07c-.51,1.09-2.92,6.41-3.65,10.99Z"/></g><path class="cls-3" d="M28.7,38c5.99,.53,10.95,2.8,14.83,6.45-1.11-4.7-3.41-9.45-3.41-9.45H14.82s-1.63,3.37-2.81,7.23c4.45-3.42,10.59-4.78,16.68-4.24Z"/><path class="cls-2" d="M40.17,43.31H23.04c-.21,0-.37-.15-.37-.34s.17-.34,.37-.34h17.12c.21,0,.37,.15,.37,.34s-.17,.34-.37,.34Z"/><path class="cls-2" d="M39.29,41.66H22.17c-.21,0-.37-.15-.37-.34s.17-.34,.37-.34h17.12c.21,0,.37,.15,.37,.34s-.17,.34-.37,.34Z"/><path class="cls-2" d="M41.1,44.9H13.7c-.21,0-.37-.15-.37-.34s.17-.34,.37-.34h27.4c.21,0,.37,.15,.37,.34s-.17,.34-.37,.34Z"/><rect class="cls-3" x="11.64" y="19.26" width="31.71" height="2.03"/></g></g></g></g></svg>